<svg fill="#91a8d0" width="48" height="48" viewBox="0 0 48 48" xmlns="http://www.w3.org/2000/svg">
    <path d="M16.9511299,44 L31.3500576,44 L31.7528187,32.9618904 L34.4714807,29.6201522 L36.1831919,21.2148981 L31.6521046,25.2655188 L28.3293486,22.0250222 L22.1871687,20.7085945 L25.9126859,25.2655188 L27.9264919,30.6325673 L28.9333949,31.746512 L27.3223501,32.5566362 L27.4230404,40.8605528 L26.1140904,31.5442211 L23.999618,31.3416901 L26.8189463,29.5189107 L20.5760045,19.8985664 L16.2462978,18.1770766 L17.353915,17.670773 L18.2601038,16.2530557 L17.9580329,14.734097 L20.5759807,17.1644694 L25.1070202,16.0505247 L25.6104479,13.3163797 L16.2462739,9.06322791 L9.5,19.0884422 L18.4616038,32.0505247 L16.9512254,43.9997118 L16.9511299,44 Z M21.0818915,4 L17.3563743,8.96217852 L22.2903661,11.0887304 L25.1096945,6.32927503 L21.0820825,4.00019211 L21.0818915,4 Z M25.7140751,6.63285546 L22.7940803,11.1897798 L26.2175504,13.1138006 L25.7141228,15.6454146 L27.5265482,14.4302284 L30.7486378,9.7720145 L25.7143616,6.63280743 L25.7140751,6.63285546 Z M30.446543,10.9874889 L34.8769161,14.0254545 L28.6339743,21.721826 L24.6063624,19.7978052 L30.4462565,10.987681 L30.446543,10.9874889 Z M35.3786246,14.4305646 L38.5,18.4811853 L31.6529642,24.658454 L28.9343022,22.2280816 L35.3782903,14.4308527 L35.3786246,14.4305646 Z M24.9070245,17.06342 L23.1953133,20.0000961 L20.3759849,18.3798478 L24.9070245,17.06342 Z"/>
</svg>