<svg fill="#91a8d0" width="24" height="24" viewBox="0 0 24 24" xmlns="http://www.w3.org/2000/svg">
    <path d="M21.9506248,11.9506248 C21.9506248,16.9194933 18.326603,21.0419261 13.577535,21.818948 C13.3946719,21.8488672 13.2101407,21.8738265 13.0240842,21.893683 C12.999624,21.8962935 12.9751374,21.8988158 12.9506248,21.9012495 L12.9506248,18.8797359 C13.1176174,18.8558495 13.2827087,18.8260691 13.4456813,18.7906124 C15.5854524,18.3250779 17.3599728,16.8809991 18.2769936,14.9506248 L12.9506248,14.9506248 L12.9506248,11.9506248 L19.2006248,11.9506248 L21.9506248,11.9506248 Z M10.4995978,2.05513259 C6.13808802,2.68910945 2.68902002,6.1382217 2.05511001,10.4997531 C2.03354282,10.6481433 2.01523426,10.7975896 2.00025925,10.9480171 C2.00017272,10.9488863 5.02151362,10.9506248 5.02151362,10.9506248 C5.04388409,10.7957414 5.06930103,10.6520702 5.09902636,10.509982 C5.66439695,7.80749003 7.78834327,5.67767621 10.4876745,5.10373131 C10.640213,5.07129784 10.7945889,5.0438328 10.9506248,5.02151362 L10.9506248,2 C10.7992642,2.015028 10.6488964,2.03343097 10.4995978,2.05513259 Z M13.5421324,2.07657446 C17.6531792,2.73403745 20.9277807,5.89717031 21.7505885,9.95062476 L18.6607473,9.95062476 C17.9471198,7.55280426 15.9832786,5.6934268 13.5251426,5.12841265 C13.3522423,5.08867069 13.1768965,5.05533251 12.9993683,5.02866115 C12.9831386,5.02622286 12.9668907,5.02384028 12.9506248,5.02151362 L12.9506248,2 C13.1548179,2.02043434 13.3493944,2.04575066 13.5421324,2.07657446 Z M10.6578513,21.8678302 C6.24654953,21.2984358 2.736156,17.8545071 2.06615311,13.4755265 C2.04433886,13.3329538 2.02553557,13.1893898 2.00981018,13.0449015 C2.0063947,13.0135193 2.00312441,12.9820935 2,12.9506248 L5.02151361,12.9506248 C5.02322072,12.9625593 5.02495793,12.9744841 5.02672516,12.9863992 C5.05013981,13.1442657 5.07882509,13.3004135 5.11259635,13.4546581 C5.70347838,16.1534118 7.85133643,18.2695042 10.5671728,18.8139376 C10.6906274,18.8386861 10.8152555,18.8601869 10.9409645,18.8783472 C10.9441839,18.8788123 10.9506248,21.9012495 10.9506248,21.9012495 C10.8526104,21.8915181 10.7550123,21.8803714 10.6578513,21.8678302 Z"></path>
</svg>