<svg fill="#91a8d0" width="24" height="24" viewBox="0 0 24 24" xmlns="http://www.w3.org/2000/svg">
	<polygon points="20.001,14.002 20.001,18.002 18.001,20.002 18.001,17.002 16.001,18.002 16.001,23.002 20.001,23.002 22.001,19.002 22.001,13.002"/>
	<polygon points="6.001,20.002 4.001,18.002 4.001,14.002 2.001,13.002 2.001,19.002 4.001,23.002 8.001,23.002 8.001,18.002 6.001,17.002"/>
	<path d="M12.001,3.002c0,0-5,6.239-5,9c0,2.762,2.238,5,5,5s5-2.238,5-5C17.001,9.24,12.001,3.002,12.001,3.002z M12.657,15.002v-1.048c0.574-0.252,1.033-0.715,1.286-1.288h1.059C14.663,13.783,13.779,14.664,12.657,15.002z"/>
</svg>