<svg fill="#91a8d0" width="48" height="48" viewBox="0 0 48 48" xmlns="http://www.w3.org/2000/svg">
    <path d="M26.745098,35.8881119 L28.9411765,35.8881119 L28.9411765,40.6433566 L26.745098,40.6433566 L26.745098,44 L21.254902,44 L21.254902,40.6433566 L18.7843137,40.6433566 L18.7843137,35.8881119 L21.254902,35.8881119 L21.254902,32.2517483 C14.9595686,31.0107864 10,25.2117357 10,18.2657343 C10,10.3996756 16.301098,4 24,4 C31.7452941,4 38,10.3996756 38,18.2657343 C38,25.1365177 33.1864706,30.8871941 26.745098,32.2517483 L26.745098,35.8881119 Z M24.042,9.59000015 C19.3462353,9.59000015 15.5278039,13.4806406 15.5278039,18.2627113 C15.5278039,23.0456209 19.3462353,26.9351428 24.042,26.9351428 C28.7363922,26.9351428 32.5559216,23.0456209 32.5559216,18.2627113 C32.5548235,13.4806406 28.7363922,9.59000015 24.042,9.59000015 L24.042,9.59000015 Z"/>
</svg>