<svg fill="none" viewBox="0 0 610 610" version="1.1" xmlns="http://www.w3.org/2000/svg">
    <polygon stroke-width="40" stroke="#91a8d0" points="491.837389 442.034456 486.540217 430.051133 488.891989 423.625348 483.835906 415.466772 480.426517 409.374748 477.510684 403.109572 475.35679 397.061158 475.222596 390.074338 471.164993 395.325471 465.176389 397.559583 458.862542 394.1527 451.31822 390.481882 443.653353 386.60869 438.044579 383.532957 432.708741 377.058807 439.10447 370.60498 441.103703 364.291705 432.342557 366.59653 425.068893 367.212316 418.504856 367.77239 411.89533 369.247335 405.847591 371.449471 400.866564 375.410916 399.190301 381.621225 396.367719 388.065913 388.32302 389.174213 379.461796 386.300828 375.508816 380.955636 376.389025 374.325998 375.465604 367.845695 369.533861 371.264739 366.067612 377.970712 364.211669 385.447599 363.984223 393.349348 363.624861 401.432568 356.71056 402.027728 349.041144 398.963951 348.570335 406.460599 345.652228 420.913675 343.923652 429.722812 342.581732 436.664326 341.424039 442.960729 340.284545 449.204182 338.922156 455.857799 337.634822 462.223961 343.345945 465.685408 349.573364 467.04535 352.59837 472.728292 351.381545 480.91977 350.433103 487.249998 349.107102 493.793955 346.389144 501.187531 343.46194 506.945721 340.978249 512.818028 338.869843 519.173648 333.406634 515.396635 327.254272 513.102262 319.066281 510.845959 312.470402 511.200524 308.658441 505.797025 307.220993 499.602167 301.275602 497.257802 295.125513 503.057127 290.542513 507.780862 283.80107 510.884053 276.643404 511.291362 258.065769 509.84087 245.886136 508.888522 232.416895 507.836538 222.573114 507.068794 215.338116 504.947221 209.2881 500.879837 203.788502 497.090765 197.192622 492.484008 189.964447 487.3555 185.251805 482.197555 182.474712 476.362475 179.643034 470.48327 176.836373 464.545277 173.745408 458.440046 170.624875 452.296529 168.279924 446.322839 165.612004 440.568821 162.489196 433.521915 154.4354 438.088949 149.470297 442.919692 142.97904 449.714204 137.74555 454.782097 132.464299 459.284177 120.855549 469.041283 115.976874 473.63098 111.364307 478.293843 106.945068 483.04159 101.863965 488.92337 97.7722476 493.972717 88.4584063 504.021225 81.3189361 506.104712 64.7587303 506.353789 58.4062157 505.799955 54.2894779 511.634202 54.2394391 503.669578 56.6298772 497.521547 49.4471927 494.359544 46.9271112 488.428101 40.4540517 487.516681 34.0833403 485.834504 27.9650942 483.088479 26.0113475 476.552976 23.5981675 469.727108 20.7050775 464.096843 26.9370464 459.908483 32.9665913 457.554875 39.1485226 455.749348 45.2667689 452.598434 50.2273254 446.835797 52.2038155 440.806257 52.2902436 434.433569 53.6458102 427.310231 57.4054614 421.450151 62.5820898 417.527701 70.351583 413.417551 77.5069736 409.744143 83.413696 407.372374 90.0914592 406.357987 96.6486705 406.75964 103.353724 408.295874 110.750206 408.653545 117.707723 407.601051 124.374111 405.091462 129.894178 401.831296 134.847914 397.70031 139.253504 392.66327 142.608307 387.26547 145.064703 381.18141 146.627243 374.42276 146.986607 367.877952 147.512001 360.259674 148.485462 353.729077 150.471048 347.35077 153.186732 341.605726 156.689371 336.030622 160.79019 329.833603 165.489187 322.668529 169.289777 317.025455 173.561179 310.505223 177.68474 304.380769 181.480782 298.564131 185.586148 292.386521 189.393563 286.66928 193.542144 280.596924 198.348038 275.028971 203.126639 270.745831 208.430636 267.11389 214.330538 263.704857 219.83696 259.524164 225.211464 253.811882 228.946096 248.331227 232.241761 242.442591 238.580631 241.914453 245.19243 240.676258 251.485809 241.958463 257.613154 239.614106 263.162792 236.098985 267.720772 231.627245 273.447816 228.77807 279.964089 228.437692 286.464441 230.254014 290.378754 225.17767 293.151299 219.132849 291.095204 213.137734 295.025437 207.914243 301.218741 204.577595 307.414321 201.513819 308.567461 194.567327 311.34228 188.812159 311.421887 182.170474 310.775943 175.417047 316.380168 172.352834 321.80471 168.87179 322.869148 162.605175 328.111734 158.859789 329.082924 152.584064 334.136733 148.412856 338.9358 144.030215 345.6636 144.725927 347.42629 138.429222 346.109389 131.330884 351.167747 126.759992 357.374697 121.452108 363.845483 118.266724 371.962964 120.230807 380.223734 121.739817 386.953807 118.80986 392.173647 114.209328 395.80593 108.331539 401.749045 102.926289 406.550392 98.5103802 412.334297 94.8108105 418.500307 91.1728329 426.287994 89.0939643 433.270529 89.4609958 440.912651 91.2168782 447.317477 92.8699782 453.656346 94.479018 460.900441 95.8237935 467.334835 99.1504588 472.468248 105.360283 471.726782 113.175882 468.624443 121.871929 465.060392 130.781911 467.487222 137.172791 469.650216 144.0126 470.550895 150.291525 471.417458 156.696476 476.694161 165.387751 482.801036 169.056703 488.762347 171.830386 494.571269 174.398584 493.850272 181.469021 493.145195 188.266274 492.537918 195.650256 491.623593 206.141747 491.689553 214.138399 492.083029 221.098904 498.440092 222.674665 505.067815 221.093033 511.672792 220.259663 518.305063 218.689749 525.699273 218.158617 531.926691 219.573011 534.587788 225.412419 537.110145 231.298608 534.608257 237.12008 531.792498 243.349223 528.947176 249.680865 526.101847 256.035788 522.726577 263.282389 520.006344 269.364059 517.14055 276.073341 515.841843 282.365846 516.596958 289.420848 519.278525 295.698282 523.217857 301.427006 527.502903 307.525147 531.787952 313.582046 535.854652 319.433459 540.023702 325.419619 545.664319 333.45271 550.565738 340.429717 554.375427 345.799418 558.100962 350.934377 562.063039 356.517874 566.661958 363.133424 570.41024 368.546517 563.914434 371.625408 557.759797 369.795673 551.182112 366.81352 544.891006 363.916365 544.197303 371.546238 548.163927 377.633513 547.260975 384.24252 544.379258 391.478757 543.280702 397.931929 549.232915 400.201194 555.599076 402.778275 561.471683 405.305482 567.469386 407.914745 573.837823 410.113542 580.310882 411.585254 587.398042 410.875786 587.809715 417.812066 578.732418 424.525322 565.420114 425.017811 559.033482 427.74409 552.448975 430.273921 546.808361 433.316717 541.140455 439.745133 533.775812 440.1262 527.061662 439.454934 519.788 438.666417 512.837306 437.83099 506.209585 438.355696 499.782014 439.287851 493.113352 441.310433 492.239965 441.829266"></polygon>
</svg>