<svg fill="#91a8d0" width="75" height="75" viewBox="0 0 75 75" xmlns="http://www.w3.org/2000/svg">
    <path d="M50,75 C46.6462588,64.24289 43.172405,54.6284988 38.5,54.625 C33.7475825,54.7205775 28.1395713,65.0329725 25,73.5 C27.7926762,61.7210437 27.0643475,12.45448 25,0 C27.5173887,9.4550325 32.7973287,27.9565087 38,27.875 C43.103845,27.7430225 45.9390413,17.4163837 48.625,6.875 C46.9521563,19.9898713 47.8580087,61.6122912 50,75 L50,75 Z"/>
    <path d="M43,18.3783784 C43,20.9852814 40.9852814,23 38.3783784,23 C36.0147186,23 34,20.9852814 34,18.6216216 C34,16.8923048 34.8576952,15.4067333 36.1891892,14.7297297 C37.6423048,13.7990381 39.3576952,13.7990381 40.8108108,14.7297297 C42.1423048,15.4067333 43,16.8923048 43,18.6216216 L43,18.3783784 Z"/>
</svg>