<svg fill="#91a8d0" viewBox="0 0 48 48" version="1.1" xmlns="http://www.w3.org/2000/svg">
    <path d="M28.6548373,39.187141 L25.74282,39.187141 L25.74282,12.4999479 L38.0150976,12.4999479 L32.8167983,20.748564 C32.55318,21.1668026 32.6785944,21.7198091 33.0969284,21.9833319 C33.2452495,22.0768677 33.4101779,22.1212495 33.5733883,22.1212495 C33.8706985,22.1212495 34.161423,21.9732148 34.3316009,21.7033926 L38.8399306,14.5494317 L43.3480694,21.7033926 C43.6117831,22.1216312 44.1647896,22.2470456 44.5829328,21.9833319 C45.0011714,21.7198091 45.1263948,21.1668026 44.862872,20.748564 L39.6647636,12.4999479 L39.7304295,12.4999479 C40.4967549,12.4999479 41.1180998,11.878603 41.1180998,11.1122777 C41.1180998,10.3460477 40.4968503,9.72470282 39.7304295,9.72470282 L29.5220477,9.72470282 C28.9455618,8.88612581 28.0947679,8.25122777 27.0987072,7.94981345 C26.9563991,6.33670282 25.6024208,5.07158351 23.9522777,5.07158351 C22.302039,5.07158351 20.9481562,6.33670282 20.8057527,7.94981345 C19.809692,8.25122777 18.958898,8.88612581 18.3825076,9.72470282 L8.17412581,9.72470282 C7.40770499,9.72470282 6.78636009,10.3460477 6.78636009,11.1122777 C6.78636009,11.878603 7.40760954,12.4999479 8.17412581,12.4999479 L8.23979176,12.4999479 L3.04149241,20.748564 C2.77787419,21.1668026 2.9032885,21.7198091 3.32152711,21.9833319 C3.46984816,22.0768677 3.63487202,22.1212495 3.79798698,22.1212495 C4.09520174,22.1212495 4.38611714,21.9732148 4.55629501,21.7033926 L9.06462473,14.5494317 L13.572859,21.7033926 C13.8364772,22.1216312 14.3893883,22.2470456 14.8076269,21.9833319 C15.225961,21.7198091 15.3512798,21.1668026 15.087757,20.748564 L9.88955315,12.4999479 L22.1618308,12.4999479 L22.1618308,39.1869501 L19.2499089,39.1869501 C17.5071844,39.1869501 16.0943167,40.5999132 16.0943167,42.3426377 L31.8103341,42.3426377 C31.8103341,40.5999132 30.3974664,39.187141 28.6548373,39.187141 Z"></path>
    <path d="M15.6519306,23.0733102 L2.47722343,23.0733102 C2.21370065,23.0733102 2,23.2869154 2,23.5505336 C2,27.4459176 5.16914534,30.6150629 9.06462473,30.6150629 C12.9600087,30.6150629 16.1292495,27.4459176 16.1292495,23.5505336 C16.129154,23.2870108 15.9154534,23.0733102 15.6519306,23.0733102 Z"></path>
    <path d="M45.4273319,23.0733102 L32.2526247,23.0733102 C31.989102,23.0733102 31.7754013,23.2869154 31.7754013,23.5505336 C31.7754013,27.4459176 34.9445466,30.6150629 38.8401215,30.6150629 C42.7355054,30.6150629 45.9046508,27.4459176 45.9046508,23.5505336 C45.9045553,23.2870108 45.6908547,23.0733102 45.4273319,23.0733102 Z"></path>
</svg>