<svg fill="#91a8d0" width="48" height="48" viewBox="0 0 48 48" xmlns="http://www.w3.org/2000/svg">
    <path d="M23.3015887,43.9224119 C22.7238424,43.759794 22.1585909,43.2836888 21.895194,42.737824 C21.6149656,42.1570625 21.6184435,41.3520698 21.9037303,40.7608309 C22.0299045,40.4993456 22.4755209,40.001533 22.7263045,39.8419088 L22.8539251,39.7606809 L22.838474,37.7769746 L22.8230166,35.7932683 L21.6620324,36.5889936 L20.5010477,37.3847172 L20.6237898,37.6161562 C20.7221119,37.8015472 20.7466656,37.9427541 20.7472046,38.3258662 C20.7478046,38.7508135 20.7294535,38.8375051 20.5826288,39.1034146 C20.3978746,39.4380262 20.1591209,39.6703109 19.8068967,39.8581246 C19.6150251,39.9604409 19.4796472,39.9843993 19.0933767,39.9843993 C18.7071046,39.9843993 18.5717272,39.9604409 18.3798546,39.8581246 C17.8122004,39.555432 17.4721956,39.0623099 17.4256493,38.4742051 C17.3910209,38.0366846 17.4693214,37.7481146 17.7307162,37.3498999 C17.9175772,37.065233 18.1570772,36.8782209 20.1365525,35.4713257 C21.3456246,34.6119862 22.3244003,33.8916336 22.3116019,33.8705425 C22.2988088,33.8494504 22.0224788,33.6428767 21.6975345,33.4114904 L21.1067361,32.9907878 L19.4266588,34.2235136 C18.502614,34.9015125 17.7341309,35.4562388 17.7189172,35.4562388 C17.7037035,35.4562388 17.6479404,34.8104378 17.4348677,34.471563 C17.2272998,34.1414425 16.4781867,33.3036988 14.5768151,31.4050004 C12.4698409,29.3009884 11.8796083,28.6496284 11.2045346,27.6834689 C10.0387287,26.0149768 9.33060308,24.1753647 9.05634592,22.1027737 C8.98121803,21.5350263 8.98121803,19.7809027 9.05634592,19.2131553 C9.36689781,16.8662806 10.2291542,14.8309016 11.6761567,13.0290217 C12.4715904,12.0385075 13.0338004,11.611618 14.2628851,11.0648996 C15.1313288,10.6786006 16.805903,10.1292848 16.8820856,10.2057159 C16.8925983,10.2162622 16.6688414,10.3758017 16.3848493,10.560248 C15.6760335,11.0206054 14.4170972,12.2774101 13.9379841,13.002969 C13.278344,14.0019143 12.8426751,15.0324327 12.5772319,16.2216485 C12.4624467,16.7359006 12.4473219,16.9510558 12.4473219,18.0696732 C12.4473219,19.5654205 12.5039025,19.8922148 13.0355893,21.4673568 C13.6785351,23.3721105 14.3634683,24.45077 16.2070625,26.461921 C17.9113098,28.321061 18.6662762,28.9731915 21.2594551,30.8261141 L22.8510593,31.9633768 L22.8510593,30.9010368 L22.8510593,29.8386968 L22.6407414,29.7097273 C22.5250661,29.6387947 22.2032793,29.4015947 21.9256593,29.1826178 C21.6480393,28.963641 21.168514,28.6231142 20.8600472,28.4258915 C20.5515803,28.2286689 20.2920477,28.0620521 20.2833046,28.0556321 C20.2745603,28.0492115 20.3435846,27.6553352 20.4366909,27.180351 C20.5297972,26.7053673 20.5874246,26.301421 20.5647551,26.2826926 C20.5420851,26.2639642 20.3543356,26.1784315 20.147523,26.0926205 C19.2339777,25.7135621 18.2610704,25.0546726 17.4467298,24.2635405 C16.1232909,22.9778184 15.2884978,21.4832568 14.8513999,19.6170211 C14.701512,18.977059 14.6932572,18.8727948 14.6932572,17.6195353 C14.6932572,16.3662758 14.701512,16.2620116 14.8513999,15.6220501 C15.2884978,13.7558138 16.1232909,12.2612522 17.4467298,10.9755306 C18.2665446,10.1790806 19.2684756,9.50282537 20.1722167,9.13595853 C20.4368251,9.0285438 20.5504082,8.95280538 20.5508909,8.8834559 C20.5512719,8.82897117 20.5005882,8.55472012 20.4382667,8.27400854 L20.3249472,7.7636236 L20.4702351,7.59039939 C20.5501388,7.49512571 21.1122103,6.93065097 21.719273,6.33601056 C22.3263293,5.7413703 23.0746193,4.97250594 23.3821266,4.62742315 L23.9412366,4 L25.7983803,5.86256367 L27.6555287,7.72512676 L27.5183566,8.31460591 C27.4429166,8.63881906 27.390365,8.91018169 27.4015824,8.91763275 C27.4127992,8.92508433 27.7626955,9.10087432 28.1791255,9.30827485 C28.5955555,9.51567695 29.1755966,9.85639169 29.4681018,10.065418 C30.1521797,10.5542596 31.1324424,11.5388406 31.6121024,12.2188596 C33.9053108,15.469969 33.9053108,19.7691016 31.6121024,23.0202116 C31.1322287,23.7005331 30.1518713,24.6850973 29.4681018,25.1734147 C28.9631534,25.5340258 27.5753277,26.2846847 27.4135787,26.2846847 C27.3119698,26.2846847 27.318285,26.3566094 27.4990634,27.258151 L27.6547771,28.0346826 L27.2018698,28.3331236 C26.9527687,28.4972652 26.4409108,28.8694536 26.0644071,29.1602073 C25.6879045,29.450961 25.3156408,29.7343431 25.2371556,29.7899447 L25.0944593,29.8910394 L25.0944593,30.9012226 C25.0944593,31.4568231 25.1050819,31.9114047 25.118065,31.9114047 C25.153825,31.9114047 28.2425466,29.701741 28.403465,29.5610373 C28.4805829,29.4936084 28.7582024,29.2687026 29.0203987,29.0612452 C29.8025413,28.4423942 30.6135282,27.6642447 31.532955,26.6504215 C32.010075,26.1243231 32.4299655,25.6685589 32.4660502,25.6376121 C32.5021355,25.6066647 32.7352687,25.3154826 32.9841229,24.9905394 C33.9788718,23.6916552 34.4340955,22.8369547 34.9333407,21.3308226 C35.418626,19.8668132 35.4924344,19.4362911 35.4924344,18.0696732 C35.4924344,17.0840695 35.4739986,16.8302106 35.3657602,16.3253895 C34.8371555,13.8599695 33.4897892,11.870308 31.4350034,10.5208133 C31.1127392,10.3091643 30.8876039,10.1359969 30.9346982,10.1359969 C31.0982529,10.1359969 32.4165102,10.5220306 32.9379034,10.722609 C34.6153113,11.3679022 35.4081439,11.9150201 36.3249123,13.0599138 C39.0765307,16.4962322 39.7586402,21.0962347 38.123256,25.1874747 C37.7887997,26.0241779 37.4025155,26.7378131 36.8288239,27.5788305 C36.0563781,28.7112215 35.7974739,29.0006547 33.2552313,31.573802 C31.9252071,32.9199946 31.137456,33.6842746 30.729175,34.2324273 C30.320895,34.7805794 30.2262234,35.4948146 30.2262234,35.4948146 L28.6558471,34.3469788 C27.7921403,33.7156699 27.0328524,33.1537504 26.9685456,33.0982683 C26.8539866,32.9994362 26.8388608,33.0064904 26.2215908,33.4464862 C25.8750761,33.6934883 25.6122119,33.9150557 25.6374561,33.9388604 C25.662694,33.9626646 26.6171629,34.6454888 27.7584898,35.4562494 C28.8998161,36.2670088 29.9037803,36.9966009 29.9895229,37.0775641 C30.075265,37.1585272 30.220385,37.3752804 30.3120103,37.5592362 C30.5343924,38.0057109 30.5475387,38.5996846 30.344545,39.0292062 C30.1828471,39.3713498 29.8638982,39.6872525 29.5251624,39.8407662 C29.1546829,40.0086625 28.5241092,40.0005651 28.151084,39.8231209 C27.8100482,39.660903 27.4951655,39.340913 27.3421492,39.001073 C27.1853024,38.6527156 27.1846966,37.9999457 27.340905,37.6544978 C27.4322834,37.4524183 27.4400287,37.3921683 27.3817398,37.3367583 C27.2833498,37.243233 25.1636003,35.7938425 25.125205,35.7938425 C25.1082956,35.7938425 25.0944593,36.6905546 25.0944593,37.7865357 L25.0944593,39.7792267 L25.3620287,39.9762856 C26.3000535,40.6671009 26.5109945,42.111683 25.8156824,43.0830403 C25.3023882,43.8001093 24.1884193,44.1720245 23.3015887,43.9224119 L23.3015887,43.9224119 Z M28.1791255,23.9317726 C28.4559887,23.7488605 28.9154924,23.3563295 29.2751866,22.9954679 C30.1796839,22.0880289 30.7304708,21.2016905 31.1242592,20.0199016 C31.3942571,19.2096121 31.4881324,18.5903742 31.4881324,17.6195353 C31.4881324,15.9948258 31.1018592,14.7039627 30.2085171,13.343228 C29.800955,12.7224322 28.7997608,11.717589 28.1791255,11.3064359 C27.6859945,10.9797527 27.0782308,10.6579901 27.037025,10.7017859 C26.9484561,10.7959243 26.6440161,13.487248 26.5477245,15.0273137 C26.4609613,16.4150211 26.5127608,20.4804348 26.6327261,21.6989079 C26.7260961,22.6472253 26.928804,24.2569442 26.981434,24.4680537 L27.012494,24.5926405 L27.3574492,24.4196821 C27.5471734,24.3245547 27.9169292,24.1049947 28.1791255,23.9317726 L28.1791255,23.9317726 Z M20.9959519,24.104331 C21.4797567,20.8790874 21.5759872,16.8488769 21.2495398,13.4838959 C21.1685251,12.648779 20.9695251,11.0700869 20.9143761,10.8250322 L20.8858351,10.6981922 L20.5364319,10.8750817 C18.908974,11.6990043 17.5256372,13.2880017 16.8897235,15.0639474 C16.5870251,15.909309 16.485492,16.5512074 16.485492,17.6195353 C16.485492,18.4458053 16.5065304,18.6985195 16.616273,19.1904474 C17.0516535,21.1420747 18.1418509,22.7810305 19.7383498,23.8840489 C20.0569961,24.1041995 20.8193746,24.5357326 20.8952961,24.538921 C20.9146793,24.5397352 20.9599793,24.3441695 20.9959519,24.104331 L20.9959519,24.104331 Z"/>
</svg>