<svg fill="#91a8d0" width="48" height="48" viewBox="0 0 48 48" xmlns="http://www.w3.org/2000/svg">
    <path d="M44,17.4351145 C44,17.4978546 33.6909154,20.3300762 28.0963855,26.5954198 C30.4630729,16.2786591 24.0261786,4 24.0803213,4 C24.0261786,4 17.5568422,16.340634 19.9036145,26.7480916 C14.3958114,20.353126 4,17.4978546 4,17.4351145 C4,17.4978546 9.0699837,28.5748727 17.6546185,32.3969466 C11.1735901,32.38587 4.63663886,36.2510572 4.64257028,36.2137405 C4.63663886,36.2510572 11.7307294,38.5036763 17.9759036,37.2824427 C15.4453661,39.8086597 14.1422159,43.1232474 14.1204819,43.0839695 C14.1422159,43.1232474 21.179131,40.8011737 23.1164659,36.2137405 C23.1359748,37.3364254 23.0742582,43.8756485 23.1164659,44 L25.0441767,44 C25.0441767,44 25.0375093,39.7042488 25.0441767,36.6717557 C27.2732938,40.9336717 33.9101414,43.1232474 33.8795181,43.0839695 C33.9101414,43.1232474 32.5896458,39.7650025 30.0240964,37.129771 C36.3272491,38.5621403 43.6050719,36.2510572 43.6787149,36.2137405 C43.6050719,36.2510572 36.9033398,32.287565 30.3453815,32.3969466 C38.9301769,28.5745674 44,17.4978546 44,17.4351145 Z"/>
</svg>