<?xml version="1.0" standalone="no"?>
<!DOCTYPE svg PUBLIC "-//W3C//DTD SVG 1.1//EN" "http://www.w3.org/Graphics/SVG/1.1/DTD/svg11.dtd" >
<svg xmlns="http://www.w3.org/2000/svg">
<metadata></metadata>
<defs>
<font id="byington_rgregular" horiz-adv-x="555" >
<font-face units-per-em="1000" ascent="752" descent="-248" />
<missing-glyph horiz-adv-x="290" />
<glyph unicode="&#xfb01;" horiz-adv-x="608" d="M333 418h-123q-17 0 -17 -12v-316q0 -55 77 -55v-35h-246v35q73 0 73 55v316q0 12 -12 12h-65l20 44h40q17 0 17 29q0 108 62 182t130 74q96 0 148 -37.5t52 -101.5q0 -20 -13.5 -36t-36.5 -16q-32 0 -46 21t-16.5 46t-23 46t-64.5 21q-29 0 -49 -14t-29.5 -40t-13.5 -55 t-4 -67v-23q0 -29 17 -29h186q43 0 101 22v-384q0 -65 87 -65v-35h-250v35q69 0 69 68v256q0 59 -70 59z" />
<glyph unicode="&#xfb02;" horiz-adv-x="620" d="M596 35v-35h-259v35q78 0 78 51v535q-22 38 -49.5 53.5t-72.5 15.5q-32 0 -52.5 -14t-30.5 -40.5t-13.5 -54.5t-3.5 -67v-23q0 -29 17 -29h108l-4 -44h-104q-17 0 -17 -12v-316q0 -55 99 -55v-35h-268v35q73 0 73 55v316q0 12 -12 12h-65l20 44h40q17 0 17 29 q0 111 64 183.5t139 72.5q83 0 130 -32l80 32v-664q0 -48 86 -48z" />
<glyph unicode="&#xfb03;" horiz-adv-x="919" d="M331 35q77 0 77 55v316q0 12 -12 12h-186q-17 0 -17 -12v-316q0 -55 79 -55v-35h-248v35q73 0 73 55v316q0 12 -12 12h-65l20 44h40q17 0 17 29q0 111 64 183.5t139 72.5q49 0 73 -12.5t24 -43.5q0 -10 -12.5 -25.5t-23.5 -15.5q-8 0 -35.5 20t-52.5 20q-24 0 -41 -14 t-25 -40t-11 -55t-3 -67v-23q0 -29 17 -29h182q16 0 16 29q0 107 61.5 181.5t129.5 74.5q97 0 148.5 -37.5t51.5 -101.5q0 -20 -13.5 -36t-35.5 -16q-24 0 -38 11t-18 24t-6 36q-4 27 -27.5 45t-61.5 18q-29 0 -48.5 -14t-29.5 -40t-14 -55t-4 -67v-23q0 -29 18 -29h185 q42 0 102 22v-384q0 -65 87 -65v-35h-252v35q71 0 71 68v256q0 59 -70 59h-123q-18 0 -18 -12v-316q0 -55 84 -55v-35h-256v35z" />
<glyph unicode="&#xfb04;" horiz-adv-x="921" d="M615 418h-103q-17 0 -17 -12v-316q0 -55 87 -55v-35h-253v35q70 0 70 55v316q0 12 -12 12h-177q-17 0 -17 -12v-316q0 -55 78 -55v-35h-247v35q73 0 73 55v316q0 12 -12 12h-65l20 44h40q17 0 17 29q0 111 64 183.5t139 72.5q49 0 73 -12.5t24 -43.5q0 -10 -12.5 -25.5 t-23.5 -15.5q-8 0 -35.5 20t-52.5 20q-24 0 -41 -14t-25 -40t-11 -55t-3 -67v-23q0 -29 17 -29h172q17 0 17 29q0 111 64 183.5t139 72.5q83 0 130 -32l80 32v-664q0 -48 85 -48v-35h-258v35q78 0 78 51v535q-22 38 -49 53.5t-73 15.5q-58 0 -79 -43t-21 -156q0 -29 17 -29 h108z" />
<glyph horiz-adv-x="0" />
<glyph horiz-adv-x="0" />
<glyph horiz-adv-x="333" />
<glyph unicode="&#xd;" horiz-adv-x="290" />
<glyph horiz-adv-x="329" />
<glyph unicode=" "  horiz-adv-x="290" />
<glyph unicode="&#x09;" horiz-adv-x="290" />
<glyph unicode="&#xa0;" horiz-adv-x="290" />
<glyph unicode="!" horiz-adv-x="188" d="M94 693q39 0 61 -29v-62q-21 -95 -31 -219.5t-10 -210.5h-42q0 72 -11.5 200.5t-28.5 229.5v62q21 29 62 29zM94 101q55 0 55 -56t-55 -56q-61 0 -61 56t61 56z" />
<glyph unicode="&#x22;" horiz-adv-x="352" d="M96 696q43 0 43 -34q0 -54 -36 -224h-23q-32 174 -32 224q0 34 48 34zM259 696q43 0 43 -34q0 -57 -34 -224h-24q-31 161 -31 224q0 34 46 34z" />
<glyph unicode="#" horiz-adv-x="558" d="M393 270h103l-9 -55h-106l-46 -215h-59l47 215h-126l-42 -215h-62l47 215h-115l8 55h118l22 129h-112q3 12 5 23t4 20.5t2 11.5h114l47 215h59l-43 -215h121l47 215h58l-42 -215h98l-9 -55h-105zM335 270l23 129h-121l-28 -129h126z" />
<glyph unicode="$" horiz-adv-x="371" d="M216 710v-69q35 -1 116 -17l-3 -92h-27q-13 45 -32.5 60t-53.5 18v-198q73 -49 99.5 -86.5t26.5 -90.5q0 -47 -31.5 -89t-94.5 -59v-107h-36v101q-9 -1 -32 -1q-56 0 -124 26l13 106l28 -1v-13q0 -50 26.5 -68.5t73.5 -18.5q8 0 15 1v208q-17 14 -45 36.5t-37.5 31 t-24.5 24.5t-20 27.5t-9 29t-4 39.5q0 54 37.5 89t102.5 42v71h36zM113 536q0 -30 11.5 -48t55.5 -51v173q-67 -8 -67 -74zM268 201q0 26 -12 45.5t-40 44.5v-172q52 22 52 82z" />
<glyph unicode="%" horiz-adv-x="690" d="M166 701q55 0 85.5 -49t30.5 -122q0 -84 -32 -133.5t-93 -49.5q-58 0 -86 46.5t-28 121.5q0 89 31 137.5t92 48.5zM150 678q-53 0 -53 -142q0 -83 15 -125t53 -42q21 0 34.5 10.5t19 33.5t7 43t1.5 54q0 168 -77 168zM551 681h63l-482 -681h-60zM531 336q55 0 85.5 -49 t30.5 -122q0 -84 -32 -133.5t-93 -49.5q-58 0 -86 46.5t-28 121.5q0 89 31 137.5t92 48.5zM515 313q-53 0 -53 -142q0 -83 15 -125t53 -42q21 0 34.5 10.5t19 33.5t7 43t1.5 54q0 168 -77 168z" />
<glyph unicode="&#x26;" horiz-adv-x="844" d="M501 347v31l144 -15q-9 -142 -80 -225q57 -49 110 -74t122 -33l2 -31h-86q-101 0 -206 73q-124 -85 -235 -85q-225 0 -225 199q0 60 36.5 117t111.5 95q-46 60 -46 134q0 155 198 155q73 0 132 -22l-9 -130l-25 -4q-25 126 -117 126q-99 0 -99 -95q0 -36 22.5 -82 t48 -81.5t77 -89.5t76.5 -77.5t78 -73.5q48 74 48 114q0 74 -78 74zM212 366q-76 -34 -76 -132q0 -183 176 -183q39 0 69 9.5t85 42.5q-85 70 -143 129t-111 134z" />
<glyph unicode="'" horiz-adv-x="165" d="M83 696q44 0 44 -34q0 -52 -35 -224h-24q-32 174 -32 224q0 34 47 34z" />
<glyph unicode="(" horiz-adv-x="275" d="M233 712l7 -24q-148 -148 -148 -418q0 -217 148 -407l-7 -24q-109 114 -160.5 218t-51.5 213q0 261 212 442z" />
<glyph unicode=")" horiz-adv-x="274" d="M42 -163l-9 22q150 150 150 419q0 222 -150 407l9 24q210 -217 210 -431q0 -261 -210 -441z" />
<glyph unicode="*" horiz-adv-x="449" d="M225 709q12 0 23 -11.5t11 -28.5q0 -18 -11.5 -55.5t-11.5 -59.5q0 -13 8 -13q11 0 30 26t41.5 52t39.5 26q14 0 24 -10t10 -23q0 -19 -31.5 -38.5t-63 -34.5t-31.5 -23q1 -8 39 -8h20q11 1 34 1q65 0 65 -40q0 -13 -9.5 -22.5t-25.5 -9.5q-20 0 -65.5 25t-60.5 25 q-7 0 -7 -9q0 -12 38 -58t38 -63q0 -15 -9.5 -24.5t-22.5 -9.5q-20 0 -32.5 22.5t-17 50t-10.5 50t-13 22.5q-10 0 -17.5 -36t-20 -72.5t-35.5 -36.5q-14 0 -23.5 9.5t-9.5 25.5q0 21 38.5 68t38.5 52q0 9 -9 9q-13 0 -58.5 -25t-65.5 -25q-16 0 -25.5 10t-9.5 25 q0 37 70 37h68q21 0 21 8q0 9 -19.5 20.5t-43.5 21t-43.5 24.5t-19.5 29t10 23.5t24 9.5q18 0 41 -26t41.5 -52t27.5 -26q7 0 7 14q0 20 -10 58t-10 56t9.5 29t24.5 11z" />
<glyph unicode="+" horiz-adv-x="493" d="M16 293h195v199h71v-199h195v-66h-195v-191h-71v191h-195v66z" />
<glyph unicode="," horiz-adv-x="163" d="M105 119q34 -32 34 -63q0 -37 -81 -144l-17 10q28 56 28 79q0 26 -36 60q16 49 72 58z" />
<glyph unicode="-" horiz-adv-x="355" d="M298 293v-62h-243v62h243z" />
<glyph unicode="." horiz-adv-x="223" d="M113 101q57 0 57 -56t-57 -56q-60 0 -60 56t60 56z" />
<glyph unicode="/" horiz-adv-x="362" d="M13 -55l289 751h47l-289 -751h-47z" />
<glyph unicode="0" d="M284 693q110 0 171.5 -98t61.5 -244q0 -168 -64.5 -267t-185.5 -99q-78 0 -130.5 46t-75.5 119.5t-23 170.5q0 178 62 275t184 97zM252 647q-105 0 -105 -284q0 -81 6.5 -140t21.5 -104t42 -67.5t66 -22.5q25 0 44.5 8.5t32.5 21t22 35.5t13.5 43.5t7 53.5t3 56.5 t0.5 62.5q0 48 -2 84.5t-10.5 87.5t-24 84t-45.5 57t-72 24z" />
<glyph unicode="1" d="M329 705l22 -9q-7 -36 -7 -65v-569q0 -30 98 -30v-32h-300v32q111 0 111 30v486q0 36 -20 36q-8 0 -16 -5l-84 -42l-21 25z" />
<glyph unicode="2" d="M286 692q94 0 139.5 -44t45.5 -136q0 -67 -24 -129t-70.5 -117t-90.5 -94.5t-106 -87.5h170q58 0 82 14.5t43 69.5l27 -5l-38 -163h-336q-46 0 -74 -4l-4 27q21 21 63.5 61.5t66 64.5t59.5 62t56.5 68t41.5 67t30.5 74.5t9.5 75.5q0 74 -33 107.5t-97 33.5 q-62 0 -90.5 -22.5t-36.5 -88.5l-26 -4l-6 132q54 23 95 30.5t103 7.5z" />
<glyph unicode="3" d="M261 693q190 0 190 -138q0 -95 -119 -157v-8q154 -37 154 -178q0 -226 -252 -226q-161 0 -165 26l9 152l25 -2q18 -132 103 -132q177 0 177 153q0 135 -164 171v36q144 0 144 147q0 107 -119 107q-107 0 -111 -107l-24 3l-8 112q65 41 160 41z" />
<glyph unicode="4" d="M338 47v138q0 10 -11 10h-290l-13 31l368 470l31 -3v-420q0 -11 7 -11h57q23 0 43 8l-15 -75h-85q-7 0 -7 -10v-138q0 -15 80 -15v-32h-250v32q85 0 85 15zM338 273v286l-233 -297h222q11 0 11 11z" />
<glyph unicode="5" d="M151 681h226q35 0 91 7l-11 -138l-27 -5q-4 58 -19.5 73.5t-56.5 15.5h-158l-13 -143q132 -24 210.5 -89t78.5 -162q0 -110 -71 -182.5t-212 -72.5q-67 0 -108 19l7 154h22q4 -67 34 -101t80 -34q65 0 110.5 45t45.5 127q0 89 -68.5 146t-176.5 76l-8 8z" />
<glyph unicode="6" d="M313 399q81 0 135.5 -51t54.5 -132q0 -110 -56.5 -170.5t-159.5 -60.5q-237 0 -237 264q0 86 35.5 168.5t89.5 140t114.5 96t112.5 48.5l7 -37q-31 -11 -71.5 -42.5t-85 -82t-74.5 -128t-30 -162.5q0 -98 36.5 -160.5t102.5 -62.5q56 0 91.5 45.5t35.5 114.5 q0 81 -40.5 123t-103.5 42q-38 0 -64 -15l-9 30q37 32 116 32z" />
<glyph unicode="7" d="M184 681h301l10 -32q-72 -107 -140.5 -286.5t-96.5 -331.5l-88 -54l-27 15q31 149 103 310.5t162 296.5h-255q-41 0 -71 -94l-23 11l23 169q29 -4 102 -4z" />
<glyph unicode="8" d="M286 693q75 0 125 -34.5t50 -105.5q0 -62 -32.5 -104.5t-82.5 -65.5q68 -29 109.5 -78t41.5 -116q0 -98 -62 -151t-161 -53q-93 0 -155 47.5t-62 135.5q0 73 42.5 122.5t100.5 71.5q-30 21 -45 33t-34.5 33.5t-27.5 47t-8 58.5q0 63 54.5 111t146.5 48zM283 16 q47 0 84 46.5t37 100.5q0 22 -7.5 41t-17.5 32.5t-28 28.5t-31 23.5t-36 22t-33 20.5q-47 -11 -84.5 -62.5t-37.5 -105.5q0 -62 45 -104.5t109 -42.5zM279 651q-111 0 -111 -95q0 -48 40 -89.5t93 -62.5q91 49 91 128q0 55 -29.5 87t-83.5 32z" />
<glyph unicode="9" d="M238 297q-70 0 -127.5 52.5t-57.5 138.5q0 101 64 153.5t158 52.5q122 0 174 -66t52 -199q0 -87 -34 -169t-85.5 -139.5t-110 -95.5t-111.5 -48l-7 35q23 8 53 29t65.5 58.5t64 84t48 111.5t19.5 134q0 100 -32 161t-96 61q-60 0 -96 -33.5t-36 -99.5q0 -80 40.5 -127 t91.5 -47q40 0 80 26l13 -24q-57 -49 -130 -49z" />
<glyph unicode=":" horiz-adv-x="207" d="M103 137q56 0 56 -55q0 -57 -56 -57q-59 0 -59 57q0 55 59 55zM103 431q56 0 56 -56t-56 -56q-59 0 -59 56t59 56z" />
<glyph unicode=";" horiz-adv-x="181" d="M107 119q34 -34 34 -63q0 -37 -81 -144l-17 10q28 56 28 79q0 26 -36 60q16 49 72 58zM92 431q55 0 55 -56t-55 -56q-60 0 -60 56t60 56z" />
<glyph unicode="&#x3c;" horiz-adv-x="423" d="M34 240v34l353 166v-58l-270 -124l270 -124v-60z" />
<glyph unicode="=" horiz-adv-x="509" d="M472 371v-62h-426v62h426zM472 215v-63h-426v63h426z" />
<glyph unicode="&#x3e;" horiz-adv-x="436" d="M400 274v-34l-352 -166v59l270 124l-270 124v59z" />
<glyph unicode="?" horiz-adv-x="397" d="M196 688q72 0 124 -37.5t52 -101.5q0 -44 -20 -82t-49 -66t-57.5 -54.5t-48.5 -57t-20 -62.5q0 -34 32 -66l-29 -24q-24 8 -47.5 36.5t-23.5 60.5q0 35 18 67t44 57.5l52 51t44 60t18 73.5q0 49 -27 75.5t-66 26.5q-61 0 -89.5 -24t-31.5 -91l-31 -6l-7 129q51 35 163 35 zM172 101q55 0 55 -56t-55 -56q-61 0 -61 56t61 56z" />
<glyph unicode="@" horiz-adv-x="760" d="M408 681q144 0 227 -78t83 -212q0 -114 -58.5 -175.5t-149.5 -61.5q-65 0 -65 58q0 5 2 25q-49 -79 -118 -79q-52 0 -86.5 32t-34.5 104q0 105 54.5 161.5t129.5 56.5q82 0 94 -70l20 59h63l-74 -249q3 -71 35 -71q51 0 96 58.5t45 147.5q0 114 -66.5 179t-192.5 65 q-133 0 -224 -78t-91 -220q0 -143 87.5 -220t223.5 -77q63 0 127.5 23t107.5 62l24 -27q-39 -49 -112.5 -77.5t-157.5 -28.5q-159 0 -256.5 89t-97.5 256q0 161 99.5 254.5t265.5 93.5zM392 481q-48 0 -77 -49t-29 -137q0 -53 17 -79.5t43 -26.5q42 0 90 98l31 120 q0 74 -75 74z" />
<glyph unicode="A" horiz-adv-x="724" d="M350 696l27 -4l247 -618q13 -34 82 -42v-32h-209v32q18 0 18 27q0 3 -9 30l-46 126q-10 27 -63 27h-152q-39 0 -48 -27l-35 -105q-4 -11 -4 -27q0 -47 54 -47v-36h-194v36q56 3 86 74zM421 333l-87 219l-89 -215q-12 -21 -12 -35q0 -16 39 -16h129q31 0 31 11q0 8 -11 36 z" />
<glyph unicode="B" horiz-adv-x="539" d="M189 628v-223q0 -14 11 -14q87 0 113.5 21.5t26.5 90.5q0 70 -28.5 104t-77.5 34q-45 0 -45 -13zM21 681h229q83 0 129.5 -37.5t46.5 -107.5q0 -87 -94 -153v-3q72 -11 120.5 -62.5t48.5 -121.5q0 -84 -59.5 -142t-156.5 -58q-101 0 -202 4h-58v32q62 0 62 14v577 q0 26 -66 26v32zM226 352h-26q-11 0 -11 -14v-260q0 -42 66 -42h26q63 0 89.5 27t26.5 92q0 85 -43 141t-128 56z" />
<glyph unicode="C" horiz-adv-x="724" d="M432 693q83 0 237 -29l-12 -167h-26q-15 86 -59.5 121t-157.5 35q-260 0 -260 -291q0 -149 70.5 -239.5t200.5 -90.5q92 0 141 35.5t76 100.5l31 -11l-31 -145q-102 -27 -221 -27q-173 0 -276.5 104.5t-103.5 256.5q0 163 94.5 250.5t296.5 96.5z" />
<glyph unicode="D" horiz-adv-x="762" d="M357 685q174 0 268.5 -91t94.5 -254q0 -157 -99 -248.5t-266 -91.5h-321v32q62 0 62 48v517q0 52 -65 52v32q23 -4 53 -4q42 0 134.5 4t138.5 4zM347 641h-85q-41 0 -53 -10.5t-12 -51.5v-462q0 -52 18.5 -65t73.5 -13h75q123 0 181 73t58 228q0 151 -65.5 226t-190.5 75 z" />
<glyph unicode="E" horiz-adv-x="486" d="M34 649v32h313q33 0 62 9l8 -10l-17 -123h-28q-6 80 -80 80h-69q-22 0 -22 -24v-200q0 -31 23 -31h100q35 0 58 32h24l-20 -141h-26q-10 65 -60 65h-76q-23 0 -23 -22v-250q0 -23 23 -23h43q56 0 92.5 24t50.5 61l28 -8l-17 -120h-379v32q57 0 57 21v556q0 40 -65 40z " />
<glyph unicode="F" horiz-adv-x="461" d="M270 0h-225v32q53 0 53 36v541q0 40 -65 40v32h332q33 0 61 9l8 -10l-16 -123h-28q-8 80 -81 80h-87q-22 0 -22 -24v-200q0 -31 23 -31h106q41 0 56 32h23l-14 -141h-26q-13 65 -63 65h-82q-23 0 -23 -22v-248q0 -36 70 -36v-32z" />
<glyph unicode="G" horiz-adv-x="757" d="M433 693q83 0 237 -29l-12 -167h-26q-15 86 -59.5 121t-157.5 35q-139 0 -201 -71.5t-62 -205.5q0 -145 92 -245.5t225 -100.5q94 0 111 30v222q0 24 -68 24v31h221v-31q-55 0 -55 -24v-237q-93 -60 -256 -60q-173 0 -276.5 104.5t-103.5 256.5q0 163 94.5 250.5 t296.5 96.5z" />
<glyph unicode="H" horiz-adv-x="755" d="M256 32v-32h-228v32q69 0 69 24v549q0 44 -69 44v32h228v-32q-57 0 -57 -44v-196q0 -12 17 -12h340q16 0 16 12v196q0 44 -66 44v32h225v-32q-58 0 -58 -44v-549q0 -24 58 -24v-32h-225v32q66 0 66 24v283q0 16 -16 16h-340q-17 0 -17 -16v-283q0 -24 57 -24z" />
<glyph unicode="I" horiz-adv-x="279" d="M256 32v-32h-224v32q62 0 62 24v549q0 44 -66 44v32h224v-32q-57 0 -57 -44v-549q0 -24 61 -24z" />
<glyph unicode="J" horiz-adv-x="281" d="M258 681v-32q-59 0 -59 -44v-511q0 -74 -12 -125.5t-40.5 -89t-59 -61t-85.5 -55.5l-16 37q111 69 111 274v526q0 49 -69 49v32h230z" />
<glyph unicode="K" horiz-adv-x="732" d="M268 32v-32h-233v32q57 0 57 24v564q0 29 -64 29v32h228v-32q-63 0 -63 -29v-251l199 207q47 49 47 62q0 10 -15 11v32h195v-32q-49 -10 -80.5 -26t-74.5 -57l-188 -184l260 -265q83 -85 176 -85v-32q-130 0 -188 16t-116 82l-215 245v-287q0 -24 75 -24z" />
<glyph unicode="L" horiz-adv-x="487" d="M27 649v32h225v-32q-57 0 -57 -33v-554q0 -19 67 -19h28q72 0 100.5 19t48.5 70l28 -5l-20 -127h-408v32q55 0 55 30v554q0 33 -67 33z" />
<glyph unicode="M" horiz-adv-x="949" d="M228 32v-32h-208v32q83 0 89 53l57 596h30l274 -547l266 547h35l63 -613q0 -36 93 -36v-32h-243v32q25 0 34.5 8.5t9.5 27.5l-33 408l-230 -476h-32l-237 467l-33 -382q0 -28 15 -40.5t50 -12.5z" />
<glyph unicode="N" horiz-adv-x="780" d="M234 32v-32h-211v32q69 0 69 38v611h39l504 -540v464q0 44 -93 44v32h215v-32q-75 0 -75 -44v-609l-24 -9l-512 540v-457q0 -38 88 -38z" />
<glyph unicode="O" horiz-adv-x="831" d="M402 658q-118 0 -180 -82t-62 -213q0 -142 72 -241t201 -99q63 0 110.5 24t75 66t40.5 95.5t13 117.5q0 151 -74.5 241.5t-195.5 90.5zM411 693q170 0 273.5 -91t103.5 -248q0 -155 -103 -262t-274 -107q-92 0 -164 29.5t-115.5 80t-66 113.5t-22.5 134q0 68 23 130 t67 112t116 79.5t162 29.5z" />
<glyph unicode="P" horiz-adv-x="527" d="M266 32v-32h-234v32q66 0 66 29v550q0 38 -70 38v32h145q49 0 81.5 2t50.5 2q79 0 133.5 -48.5t54.5 -124.5q0 -103 -73 -159.5t-173 -56.5q-12 0 -19 1v39h11q74 0 113.5 34t39.5 119q0 73 -44 116.5t-82 43.5h-23q-43 0 -43 -31v-554q0 -32 66 -32z" />
<glyph unicode="Q" horiz-adv-x="824" d="M404 693q169 0 273 -91.5t104 -247.5q0 -95 -41 -175.5t-114 -130.5q164 -91 288.5 -137t250.5 -46q99 0 201 32l17 -38q-141 -49 -284 -49q-272 0 -551 199q-64 -24 -144 -24q-92 0 -164.5 29.5t-116 80t-66 113.5t-22.5 134q0 68 23 130t67 112t116.5 79.5t162.5 29.5z M395 658q-118 0 -180 -82t-62 -213q0 -141 72 -240.5t200 -99.5q63 0 110.5 24t75 66t40.5 95.5t13 117.5q0 151 -74 241.5t-195 90.5z" />
<glyph unicode="R" horiz-adv-x="746" d="M31 649v32h84q44 0 103 2.5t108 2.5q80 0 133 -48t53 -121q0 -117 -115 -205v-4q16 -15 59.5 -68.5t81 -97t90.5 -80.5t98 -37v-25h-77q-73 0 -119 16t-85 71q-111 155 -123 174q-9 13 -15 17.5t-18 4.5h-79q-21 0 -21 -12v-209q0 -30 94 -30v-32h-244v32q44 0 44 30v557 q0 30 -52 30zM189 619v-275q0 -11 27 -18.5t66 -7.5q53 0 86 42.5t33 107.5q0 80 -35.5 126.5t-88.5 46.5h-50q-38 0 -38 -22z" />
<glyph unicode="S" horiz-adv-x="452" d="M262 696q49 0 142 -21l-5 -117h-30q-19 66 -44.5 83t-79.5 17q-98 0 -98 -96q0 -43 20.5 -70t107.5 -92q82 -62 111 -106.5t29 -112.5q0 -33 -12 -66t-37.5 -63t-71.5 -48.5t-106 -18.5q-68 0 -145 32l14 136l34 -3q-1 -6 -1 -15q0 -64 31 -88t85 -24q63 0 92.5 34.5 t29.5 80.5q0 43 -26.5 77t-96.5 92q-61 50 -87 76t-41.5 61t-15.5 84q0 77 55.5 122.5t145.5 45.5z" />
<glyph unicode="T" horiz-adv-x="633" d="M45 567l-32 7l28 114q54 -7 86 -7h395q33 0 89 7v-121l-27 -5q-10 72 -86 72h-106q-22 0 -22 -18v-545q0 -39 72 -39v-32h-239v32q65 0 65 39v545q0 21 -24 21h-123q-40 0 -76 -70z" />
<glyph unicode="U" horiz-adv-x="731" d="M24 681h227v-32q-56 0 -56 -29v-326q0 -44 4 -78.5t16 -70.5t32.5 -59.5t56 -38.5t83.5 -15q203 0 203 281v292q0 44 -87 44v32h205v-32q-71 0 -71 -44v-268q0 -178 -61.5 -265t-203.5 -87q-278 0 -278 302v333q0 29 -70 29v32z" />
<glyph unicode="V" horiz-adv-x="757" d="M16 649v32h238v-32h-13q-23 0 -23 -25q0 -20 8 -40l175 -463l175 462q6 20 6 30q0 36 -45 36v32h202v-32h-43q-30 0 -43 -33l-267 -631l-36 7l-244 607q-20 50 -90 50z" />
<glyph unicode="W" horiz-adv-x="1069" d="M844 649v32h207v-32q-74 0 -92 -52l-198 -597h-30l-191 497l-205 -497h-35l-191 613q-13 36 -91 36v32h243v-32q-48 0 -48 -25l1 -2q0 -1 0.5 -4t0.5 -5l135 -429l187 497h32l199 -497l137 413q2 12 2 17q0 35 -63 35z" />
<glyph unicode="X" horiz-adv-x="679" d="M227 32v-32h-196v32q73 0 117 74l145 243l-160 260q-25 40 -95 40v32h235v-32q-26 0 -26 -21q0 -15 9 -33l95 -184l121 194q9 13 9 23q0 21 -41 21v32h191v-32q-57 -2 -84 -38l-161 -239l199 -310q18 -30 69 -30v-32h-215v32q18 0 18 12q0 16 -18 50l-113 204l-119 -200 q-10 -17 -10 -37q0 -29 30 -29z" />
<glyph unicode="Y" horiz-adv-x="675" d="M18 681h199v-32q-17 0 -17 -17q0 -13 16 -42l137 -252l133 237q23 41 23 50q0 24 -39 24v32h187v-32q-37 0 -56 -8.5t-32 -29.5l-152 -256q-26 -45 -26 -135v-147q0 -41 64 -41v-32h-234v32q64 0 64 45v140q0 78 -30 128l-133 218q-29 48 -53 66.5t-51 19.5v32z" />
<glyph unicode="Z" horiz-adv-x="577" d="M56 534l-26 3l25 151q49 -7 79 -7h391l9 -22l-397 -620h216q46 0 77 7.5t48.5 24t26.5 32t17 42.5l28 -8l-28 -137h-502l-3 23l396 614h-177q-75 0 -120 -21t-60 -82z" />
<glyph unicode="[" horiz-adv-x="196" d="M114 695v-759h69v-22h-128v798h128v-17h-69z" />
<glyph unicode="\" horiz-adv-x="426" d="M357 -55l-344 755h62l337 -755h-55z" />
<glyph unicode="]" horiz-adv-x="199" d="M81 -64v759h-68v17h129v-798h-129v22h68z" />
<glyph unicode="^" horiz-adv-x="421" d="M193 681h35l165 -352h-58l-124 270l-124 -270h-60z" />
<glyph unicode="_" horiz-adv-x="476" d="M470 -59v-54h-463v54h463z" />
<glyph unicode="`" horiz-adv-x="236" d="M55 644q18 0 45 -27q51 -50 114 -90l-10 -17q-27 14 -135 58q-47 19 -47 44q0 12 7.5 22t25.5 10z" />
<glyph unicode="a" horiz-adv-x="483" d="M249 475q63 0 102 -37.5t39 -114.5v-220q0 -42 38 -42q21 0 34 9l11 -33l-87 -49q-65 0 -86 66q-62 -66 -135 -66q-61 0 -92 29t-31 80q0 65 59 101.5t195 63.5v57q0 105 -78 105q-31 0 -50.5 -17.5t-26 -38.5t-15.5 -38.5t-21 -17.5q-46 0 -46 50q0 31 66 70t124 43z M210 55q53 0 88 35v140q-91 -27 -126 -51t-35 -67q0 -57 73 -57z" />
<glyph unicode="b" horiz-adv-x="562" d="M321 475q89 0 145 -63t56 -162q0 -118 -65.5 -190t-202.5 -72q-85 0 -161 34v570q0 91 -70 91v29l165 35v-315q55 43 133 43zM291 418q-66 0 -108 -38v-275q8 -30 36 -51t73 -21q64 0 99.5 52t35.5 141q0 41 -12 82.5t-44.5 75.5t-79.5 34z" />
<glyph unicode="c" horiz-adv-x="473" d="M291 473q59 0 98.5 -15t39.5 -44q0 -20 -12 -34t-25 -14q-17 0 -33.5 14.5t-38.5 29t-54 14.5q-61 0 -91.5 -50.5t-30.5 -122.5q0 -91 39.5 -141t116.5 -50q40 0 67.5 13.5t49.5 47.5l30 -17q-22 -57 -78 -86.5t-117 -29.5q-99 0 -155 61.5t-56 162.5q0 107 73 184 t177 77z" />
<glyph unicode="d" horiz-adv-x="580" d="M235 -12q-90 0 -142 55t-52 172q0 113 84 186.5t192 73.5q26 0 64 -17v186q0 39 -86 39v34l185 30v-610q0 -77 75 -77v-35q-49 0 -168 -37v68q-53 -68 -152 -68zM281 55q68 0 104 42v272q-27 61 -112 61q-61 0 -96.5 -52t-35.5 -123q0 -89 33 -144.5t107 -55.5z" />
<glyph unicode="e" horiz-adv-x="485" d="M261 475q29 0 57.5 -8.5t57 -27t46 -56.5t17.5 -89q0 -13 -1 -20h-298q0 -104 44.5 -161.5t115.5 -57.5q38 0 71 18.5t51 42.5l26 -17q-37 -56 -76 -83.5t-102 -27.5q-109 0 -169 68t-60 169q0 105 61 177.5t159 72.5zM256 436q-46 0 -81 -38.5t-35 -88.5h172q34 0 34 39 q0 33 -29.5 60.5t-60.5 27.5z" />
<glyph unicode="f" horiz-adv-x="322" d="M314 418h-104q-17 0 -17 -12v-316q0 -55 99 -55v-35h-268v35q73 0 73 55v316q0 12 -12 12h-65l20 44h40q17 0 17 29q0 111 64 183.5t139 72.5q48 0 78.5 -17.5t30.5 -48.5q0 -11 -13 -26t-24 -15q-8 0 -41 25t-58 25q-24 0 -41 -14t-25 -40t-11 -55t-3 -67v-23 q0 -29 17 -29h108z" />
<glyph unicode="g" horiz-adv-x="500" d="M186 64h137q71 0 114.5 -35t43.5 -114q0 -75 -81.5 -128t-181.5 -53q-87 0 -139 38.5t-52 90.5q0 54 30 85t97 49q-44 7 -69.5 35t-25.5 47q0 20 27 45.5t55 38.5q-91 49 -91 152q0 71 51 115t144 44q64 0 123 -41l114 30l13 -15l-33 -55l-60 -5q32 -36 32 -88 q0 -70 -53 -114t-162 -44q-26 0 -42 6q-33 -14 -33 -42q0 -17 12 -29.5t30 -12.5zM240 438q-96 0 -96 -120q0 -58 25.5 -97.5t70.5 -39.5q97 0 97 118q0 60 -25 99.5t-72 39.5zM267 -9q-77 0 -111.5 -34t-34.5 -72q0 -42 36 -69t100 -27q74 0 111 29t37 77q0 47 -27 71.5 t-111 24.5z" />
<glyph unicode="h" horiz-adv-x="589" d="M260 35v-35h-238v35q74 0 74 55v523q0 70 -71 70v29l164 35v-340q71 68 148 68q78 0 116 -43t38 -135v-214q0 -48 78 -48v-35h-242v35q73 0 73 48v196q0 131 -96 131q-80 0 -115 -52v-268q0 -55 71 -55z" />
<glyph unicode="i" horiz-adv-x="316" d="M292 35v-35h-259v35q78 0 78 68v256q0 59 -70 59v30l164 36v-384q0 -65 87 -65zM153 696q61 0 61 -64q0 -69 -66 -69q-59 0 -59 69q0 64 64 64z" />
<glyph unicode="j" horiz-adv-x="266" d="M45 448l180 39v-392q0 -74 -22 -144.5t-52.5 -115.5t-58.5 -72.5t-43 -27.5q-20 0 -31.5 11t-14 20t-2.5 16q0 30 30 30q7 0 17 3t25 13.5t27.5 27t21.5 48.5t9 74v397q0 43 -86 43v30zM173 696q62 0 62 -64q0 -69 -65 -69q-60 0 -60 69q0 64 63 64z" />
<glyph unicode="k" horiz-adv-x="571" d="M31 717l173 30v-491q43 14 94 74.5t51 80.5t-53 20v31h235v-31q-63 0 -108 -30q-24 -16 -46.5 -39t-45 -50.5t-27.5 -32.5l170 -193q45 -51 92 -51h15v-35h-154q-12 6 -32 24t-25 27l-133 166q-9 10 -21 10l-4 -1h-8v-140q0 -51 82 -51v-35h-251v35q74 0 74 55v537 q0 56 -78 56v34z" />
<glyph unicode="l" horiz-adv-x="318" d="M295 35v-35h-260v35q78 0 78 51v541q0 56 -86 56v29l181 35v-664q0 -48 87 -48z" />
<glyph unicode="m" horiz-adv-x="882" d="M33 444l156 40q4 -4 4 -22v-61q91 74 151 74q43 0 73 -18t56 -61q93 79 159 79q69 0 109.5 -44t40.5 -120v-221q0 -55 74 -55v-35h-233v35q69 0 69 55v198q0 125 -85 125q-56 0 -112 -52v-280q0 -46 65 -46v-35h-221v35q60 0 60 51v181q0 146 -77 146q-69 0 -125 -47 v-271q0 -60 71 -60v-35h-235v35q69 0 69 55v290q0 33 -69 33v31z" />
<glyph unicode="n" horiz-adv-x="594" d="M33 444l156 40q4 -4 4 -22v-61q91 74 151 74q63 0 105 -36.5t42 -119.5v-211q0 -73 73 -73v-35h-234v35q66 0 66 77v155q0 146 -74 146q-69 0 -125 -47v-271q0 -60 71 -60v-35h-235v35q69 0 69 55v290q0 33 -69 33v31z" />
<glyph unicode="o" horiz-adv-x="557" d="M283 474q101 0 167 -70t66 -171q0 -116 -69.5 -185.5t-168.5 -69.5q-104 0 -170.5 70t-66.5 172q0 115 69.5 184.5t172.5 69.5zM283 23q33 0 58 12t38 29.5t21 41.5t10 42t2 38q0 44 -5 82t-18 78.5t-41.5 64.5t-69.5 24q-42 0 -71 -18t-41 -47.5t-16.5 -53.5t-4.5 -49 q0 -244 138 -244z" />
<glyph unicode="p" horiz-adv-x="579" d="M347 475q91 0 141 -65t50 -148q0 -123 -66.5 -198.5t-180.5 -75.5q-50 0 -90 20l-4 -5q4 -18 4 -42v-140q0 -38 91 -38v-31h-251v31q60 0 60 34v541q0 53 -68 53v20l159 53q5 -20 5 -36v-38q95 65 150 65zM309 413q-53 0 -112 -50v-279q30 -46 96 -46q63 0 106.5 52.5 t43.5 145.5q0 72 -38 124.5t-96 52.5z" />
<glyph unicode="q" horiz-adv-x="535" d="M286 475q85 0 139 -24l41 21l16 -12q-7 -63 -7 -98v-515q0 -64 70 -64v-31h-250v31q85 0 85 64v180q-62 -41 -130 -41q-95 0 -152 69.5t-57 152.5q0 107 72.5 187t172.5 80zM289 429q-69 0 -111 -43.5t-42 -139.5q0 -87 45.5 -143.5t118.5 -56.5q51 0 80 24v312 q-46 47 -91 47z" />
<glyph unicode="r" horiz-adv-x="421" d="M33 418v30l172 36v-109l5 -4q11 37 51 72t79 35q21 0 36.5 -19t15.5 -39q0 -17 -13.5 -37.5t-28.5 -20.5q-13 0 -31.5 14.5t-37.5 14.5q-43 0 -76 -90v-206q0 -60 87 -60v-35h-255v35q74 0 74 65v237q0 81 -78 81z" />
<glyph unicode="s" horiz-adv-x="401" d="M339 338h-31q-27 101 -108 101q-58 0 -58 -68q0 -26 23 -47.5t55.5 -38t64.5 -35t55 -49.5t23 -71q0 -69 -55 -105.5t-129 -36.5q-37 0 -70 10t-49 22q-14 49 -21 129h33q16 -54 49.5 -90t76.5 -36q32 0 56.5 22t24.5 53t-22 54.5t-53 40t-62 34.5t-53 46.5t-22 67.5 q0 59 41 96t113 37q51 0 93 -18q21 -53 25 -118z" />
<glyph unicode="t" horiz-adv-x="346" d="M91 418h-69l16 44h53v90l60 74l35 -7v-157h72q26 0 52 8v-52h-124v-273q0 -24 0.5 -36t3.5 -27t8.5 -21.5t16.5 -11t27 -4.5q29 0 66 24l14 -34q-16 -17 -53.5 -33.5t-65.5 -16.5q-27 0 -43.5 3.5t-34 15t-26 38.5t-8.5 70v306z" />
<glyph unicode="u" horiz-adv-x="592" d="M33 428v30l168 12v-283q0 -136 81 -136q62 0 115 54v283q0 40 -82 40v30l178 12v-380q0 -40 77 -40v-30l-164 -25q-4 7 -4 31v39q-74 -77 -160 -77q-68 0 -102 38t-34 136v226q0 40 -73 40z" />
<glyph unicode="v" horiz-adv-x="499" d="M505 462v-34q-17 0 -28 -2.5t-19.5 -11t-11.5 -12.5t-11.5 -21l-11.5 -23l-150 -370l-38 -10l-171 419q-14 31 -62 31v34h232v-34q-61 0 -61 -29q0 -15 4 -26l101 -270l90 251q8 24 8 39q0 35 -64 35v34h193z" />
<glyph unicode="w" horiz-adv-x="744" d="M384 312l-128 -329l-30 -5l-145 406q-17 44 -68 44v34h223v-34q-51 0 -51 -35q0 -11 9 -35l72 -241l118 345h32l129 -345l76 263v13q0 35 -70 35v34h197v-34q-54 0 -72 -44l-138 -401l-31 -5z" />
<glyph unicode="x" horiz-adv-x="527" d="M37 428v34h215v-34q-30 0 -30 -25q0 -9 9 -23l51 -89l55 88q10 13 10 27q0 22 -47 22v34h197v-34q-66 0 -98 -40l-92 -126l132 -193q22 -34 85 -34v-35h-234v35q42 0 42 21q0 10 -15 32l-66 102l-58 -94q-3 -4 -7 -9.5t-6 -9t-4 -7.5t-2 -8q0 -27 43 -27v-35h-202v35 q85 0 112 43l98 142l-119 181q-18 27 -69 27z" />
<glyph unicode="y" horiz-adv-x="532" d="M312 428v34h194v-34q-52 0 -75 -51l-145 -326q-5 -12 -36.5 -84.5t-58.5 -133.5t-33 -73q-12 -26 -34 -26q-27 0 -45.5 17.5t-18.5 33.5t7 24t23 17q11 6 25.5 17.5t37 33t41.5 55.5t28 73l-151 379q-18 44 -69 44v34h223v-34h-15q-37 0 -37 -27q0 -22 10 -39l91 -250 l90 233q9 18 9 48q0 35 -61 35z" />
<glyph unicode="z" horiz-adv-x="462" d="M405 154l31 -12l-40 -142h-362v30l264 388h-76q-74 0 -99 -16t-62 -90l-29 9l43 154q58 -13 118 -13h214v-22l-265 -396h111q32 0 54 6t41 25t27.5 31.5t29.5 47.5z" />
<glyph unicode="{" horiz-adv-x="227" d="M133 277v-279q16 -47 69 -62v-22q-67 4 -129 49v295l-53 54l53 53v276q42 58 129 71v-17q-40 -9 -69 -44v-304l-36 -35z" />
<glyph unicode="|" horiz-adv-x="173" d="M109 739v-849q0 -11 -26 -11q-28 0 -28 11v849q0 12 25 12q29 0 29 -12z" />
<glyph unicode="}" horiz-adv-x="228" d="M94 350v278q-17 46 -70 62v22q67 -4 129 -50v-295l53 -53l-53 -53v-276q-38 -54 -129 -71v16q39 11 70 45v304l34 35z" />
<glyph unicode="~" horiz-adv-x="527" d="M53 188l-18 20q14 58 52 95t81 37q37 0 65 -15.5t42 -33.5t35.5 -33.5t47.5 -15.5q56 0 98 95l23 -19q-15 -62 -50.5 -100t-84.5 -38q-40 0 -99 49.5t-93 49.5q-51 0 -99 -91z" />
<glyph unicode="&#xa1;" horiz-adv-x="188" d="M94 -12q-40 0 -62 28v63q40 176 40 430h42q0 -77 11 -205t30 -225v-63q-20 -28 -61 -28zM94 580q-57 0 -57 56t57 56q59 0 59 -56t-59 -56z" />
<glyph unicode="&#xa2;" horiz-adv-x="407" d="M235 739v-196q70 0 112.5 -15.5t42.5 -44.5q0 -17 -10 -27.5t-28 -10.5q-16 0 -28 9.5t-20 21.5t-26 23t-43 13v-367q86 0 126 63l27 -16q-21 -48 -63.5 -75.5t-89.5 -30.5v-196q0 -11 -15 -11q-20 0 -20 11v196q-85 3 -132.5 65.5t-47.5 153.5q0 89 46.5 155t133.5 79 v200q0 12 16 12q19 0 19 -12zM114 340q0 -147 86 -188v357q-41 -16 -63.5 -65t-22.5 -104z" />
<glyph unicode="&#xa3;" horiz-adv-x="620" d="M463 693q60 0 87 -19t27 -59q0 -31 -31 -31q-24 0 -35.5 12t-14 26t-16 26t-39.5 12q-33 0 -54.5 -35.5t-32 -83t-30 -119t-41.5 -120.5h147v-40h-165q-26 -46 -53.5 -76t-72.5 -67q43 20 82 20q61 0 121 -70q43 -52 103 -52q52 0 110 53l21 -16q-56 -69 -193 -69 q-87 0 -133 64q-38 53 -94 53q-18 0 -34.5 -9t-31 -27t-23 -31.5t-20.5 -35.5l-29 28q42 66 92 87q49 67 83 148h-74v40h89q13 33 27 84.5t24 89.5t27.5 81.5t38.5 71t56.5 46t81.5 18.5z" />
<glyph unicode="&#xa4;" horiz-adv-x="680" d="M584 42l-60 60q-79 -55 -184 -55q-108 0 -189 57l-62 -62l-36 37l60 60q-70 76 -70 185q0 110 73 186l-62 62l36 37l64 -64q81 60 186 60t182 -57l61 61l36 -37l-58 -58q73 -78 73 -190q0 -110 -72 -188l58 -57zM575 324q0 105 -69.5 168.5t-165.5 63.5 q-104 0 -171 -66.5t-67 -165.5q0 -105 71 -169t167 -64q111 0 173 70.5t62 162.5z" />
<glyph unicode="&#xa5;" horiz-adv-x="631" d="M540 333v-63h-174v-64h174v-63h-174v-69q0 -42 87 -42v-32h-268v32q89 0 89 46v65h-179v63h179v64h-179v63h152l-120 230q-45 86 -97 86v32h242v-32q-64 0 -64 -35q0 -11 13 -35l125 -242l112 238q8 22 8 43q0 31 -71 31v32h204v-32q-47 0 -70 -38l-137 -278h148z" />
<glyph unicode="&#xa6;" horiz-adv-x="173" d="M109 739v-314q0 -12 -26 -12q-28 0 -28 12v314q0 12 25 12q29 0 29 -12zM109 218v-328q0 -11 -26 -11q-28 0 -28 11v328q0 12 25 12q29 0 29 -12z" />
<glyph unicode="&#xa7;" horiz-adv-x="412" d="M338 559l-30 1q-33 101 -113 101q-52 0 -52 -61q0 -27 23.5 -49t57.5 -38.5t67.5 -36t57 -51.5t23.5 -74q0 -89 -98 -116q39 -27 60 -54.5t21 -69.5q0 -62 -50 -94t-118 -32q-38 0 -74 10.5t-53 24.5q-19 56 -27 125h33q17 -55 53 -90.5t79 -35.5q30 0 52 18t22 47 q0 31 -22.5 55.5t-55 42t-65 37t-55 49.5t-22.5 69q0 46 28.5 76.5t79.5 38.5q-42 24 -66 52t-24 70q0 55 38.5 87t108.5 32q49 0 93 -20q22 -51 28 -114zM180 422q-55 0 -55 -58q0 -32 26 -54.5t78 -48.5q28 5 44.5 23t16.5 45q-2 37 -33 63t-77 30z" />
<glyph unicode="&#xa8;" horiz-adv-x="466" d="M336 632q48 0 48 -47q0 -48 -48 -48q-50 0 -50 48q0 47 50 47zM131 632q48 0 48 -47q0 -48 -48 -48q-50 0 -50 48q0 47 50 47z" />
<glyph unicode="&#xa9;" horiz-adv-x="800" d="M404 19q77 0 136.5 29.5t93 78t50 102t16.5 108.5q0 79 -29 142.5t-74.5 100.5t-95.5 56t-97 19q-125 0 -210.5 -89.5t-85.5 -228.5q0 -68 19 -123t49.5 -90.5t70.5 -60t79 -34.5t78 -10zM401 689q151 0 248.5 -98.5t97.5 -253.5q0 -152 -95.5 -252t-250.5 -100 q-156 0 -251 100t-95 252q0 149 100.5 250.5t245.5 101.5zM416 492q57 0 106 -14l-5 -76h-11q-6 39 -26.5 55.5t-63.5 16.5q-54 0 -81 -36.5t-27 -97.5q0 -67 30.5 -109.5t82.5 -42.5q67 0 90 63l12 -5l-12 -66q-53 -14 -100 -14q-75 0 -120 48.5t-45 118.5q0 75 42 117 t128 42z" />
<glyph unicode="&#xaa;" horiz-adv-x="473" d="M240 607q49 0 78.5 -29.5t29.5 -89.5v-173q0 -33 31 -33q15 0 27 6l9 -26l-69 -39q-49 0 -65 52q-51 -52 -108 -52q-48 0 -72 23t-24 64q0 51 46.5 80t152.5 49v46q0 82 -60 82q-25 0 -40.5 -13.5t-20.5 -30.5t-12 -30.5t-16 -13.5q-36 0 -36 39q0 25 51.5 55t97.5 34z M209 276q41 0 71 28v109q-71 -20 -99.5 -39t-28.5 -53q0 -45 57 -45z" />
<glyph unicode="&#xab;" horiz-adv-x="363" d="M173 140l-19 -24l-126 143l127 142l18 -25l-75 -117h1q65 -104 74 -119zM310 140l-20 -24l-124 143l125 142l18 -25l-73 -117z" />
<glyph unicode="&#xac;" horiz-adv-x="568" d="M507 0h-55v305h-409v57h464v-362z" />
<glyph unicode="&#xad;" horiz-adv-x="355" d="M298 293v-62h-243v62h243z" />
<glyph unicode="&#xae;" horiz-adv-x="776" d="M391 19q77 0 136.5 30t93 78t50 101.5t16.5 108.5q0 79 -29 142.5t-74.5 100.5t-95.5 56t-97 19q-126 0 -211 -89.5t-85 -228.5q0 -68 19 -123t49.5 -90.5t70.5 -60t79 -34.5t78 -10zM388 689q151 0 248.5 -98.5t97.5 -253.5q0 -152 -96 -252t-250 -100 q-157 0 -251.5 100t-94.5 252q0 149 100.5 250.5t245.5 101.5zM224 502v16h54q22 0 53 2t57 2q46 0 76 -25.5t30 -63.5q0 -57 -64 -107q6 -6 30.5 -36.5t44 -52t48 -41t52.5 -19.5v-14h-37q-48 0 -76.5 8t-44.5 31q-77 109 -84 109h-33q-4 0 -4 -7v-109q0 -15 49 -15v-17 h-146v17q22 0 22 15v291q0 16 -27 16zM326 486v-144q0 -13 38 -13q24 0 39 22t15 57q0 41 -15.5 65t-40.5 24h-26q-10 0 -10 -11z" />
<glyph unicode="&#xaf;" horiz-adv-x="384" d="M348 549h-313v72h313v-72z" />
<glyph unicode="&#xb0;" horiz-adv-x="359" d="M181 788q66 0 104.5 -37.5t38.5 -103.5q0 -65 -39 -110t-104 -45q-68 0 -103.5 43.5t-35.5 106.5q0 60 36.5 103t102.5 43zM177 754q-42 0 -64 -29t-22 -76q0 -50 26 -85t73 -35q43 0 64 30t21 77q0 54 -26.5 86t-71.5 32z" />
<glyph unicode="&#xb1;" horiz-adv-x="493" d="M16 293h195v199h71v-199h195v-66h-195v-191h-71v191h-195v66zM407 -7v-62h-321v62h321z" />
<glyph unicode="&#xb2;" horiz-adv-x="307" d="M158 701q92 0 92 -90q0 -63 -39.5 -113.5t-105.5 -100.5h85q29 0 41 7t21 35l14 -3l-19 -81h-168q-17 0 -37 -2l-2 13q6 6 43 42t48 48.5t33.5 41.5t30.5 53.5t8 51.5q0 70 -65 70q-31 0 -45 -11t-18 -44l-13 -2l-3 66q47 19 99 19z" />
<glyph unicode="&#xb3;" horiz-adv-x="307" d="M145 701q95 0 95 -69q0 -48 -59 -78v-4q77 -20 77 -89q0 -113 -126 -113q-80 0 -83 13l5 76l12 -1q9 -66 52 -66q88 0 88 76q0 68 -82 86v18q72 0 72 73q0 54 -59 54q-53 0 -56 -54l-12 2l-4 56q34 20 80 20z" />
<glyph unicode="&#xb4;" horiz-adv-x="236" d="M182 644q32 0 32 -32q0 -26 -47 -44q-106 -43 -134 -58l-11 17q75 51 115 90l5.5 5.5t5.5 5t5 4t5 4t5 3.5t6 3t6.5 1.5t6.5 0.5z" />
<glyph unicode="&#xb6;" horiz-adv-x="531" d="M319 0h-45v618q0 31 -33 31h-18q-30 0 -64 -43.5t-34 -116.5q0 -86 30 -119.5t89 -33.5h8v-39q-5 -1 -14 -1q-78 0 -135 56.5t-57 159.5q0 76 42.5 124.5t103.5 48.5q14 0 40 -2t65 -2h22v-681zM404 0h-42v681h65q26 0 70 7v-121l-21 -5q-7 72 -54 72q-18 0 -18 -18v-616 z" />
<glyph unicode="&#xb7;" horiz-adv-x="355" d="M180 315q56 0 56 -56t-56 -56q-59 0 -59 56t59 56z" />
<glyph unicode="&#xb8;" horiz-adv-x="176" d="M105 -45q34 -32 34 -62q0 -35 -81 -141l-17 10q28 54 28 77q0 26 -36 59q16 48 72 57z" />
<glyph unicode="&#xb9;" horiz-adv-x="307" d="M179 707l11 -4q-3 -19 -3 -33v-284q0 -15 49 -15v-16h-150v16q55 0 55 15v243q0 18 -10 18q-3 0 -8 -3l-42 -21l-10 13z" />
<glyph unicode="&#xba;" horiz-adv-x="531" d="M264 607q97 0 155.5 -50t58.5 -135t-58.5 -143t-155.5 -58q-103 0 -157 56t-54 138q0 79 55 135.5t156 56.5zM258 587q-59 0 -90 -44t-31 -115q0 -78 36.5 -132t101.5 -54q62 0 91 46t29 119q0 83 -37 131.5t-100 48.5z" />
<glyph unicode="&#xbb;" horiz-adv-x="363" d="M72 117l-20 23l75 119h1q-11 17 -23.5 36.5t-28 43.5t-23.5 37l19 25l126 -142zM210 117l-20 23l74 119h1l-74 117l18 25l125 -142z" />
<glyph unicode="&#xbc;" horiz-adv-x="690" d="M151 707l11 -4q-3 -19 -3 -33v-284q0 -15 49 -15v-16h-150v16q55 0 55 15v243q0 18 -10 18q-3 0 -8 -3l-42 -21l-10 13zM544 681h63l-482 -681h-60zM551 13v69q0 5 -6 5h-145l-6 16l184 235l15 -2v-210q0 -5 4 -5h28q11 0 22 4l-8 -38h-42q-4 0 -4 -5v-69q0 -7 40 -7v-16 h-125v16q43 0 43 7zM551 126v143l-117 -148h111q6 0 6 5z" />
<glyph unicode="&#xbd;" horiz-adv-x="676" d="M151 707l11 -4q-3 -19 -3 -33v-284q0 -15 49 -15v-16h-150v16q55 0 55 15v243q0 18 -10 18q-3 0 -8 -3l-42 -21l-10 13zM544 681h63l-482 -681h-60zM525 336q92 0 92 -90q0 -63 -39.5 -113.5t-105.5 -100.5h85q29 0 41 7t21 35l14 -3l-19 -81h-168q-17 0 -37 -2l-2 13 q6 6 43 42t48 48.5t33.5 41.5t30.5 53.5t8 51.5q0 70 -65 70q-31 0 -45 -11t-18 -44l-13 -2l-3 66q47 19 99 19z" />
<glyph unicode="&#xbe;" horiz-adv-x="682" d="M139 701q95 0 95 -69q0 -48 -59 -78v-4q77 -20 77 -89q0 -113 -126 -113q-80 0 -83 13l5 76l12 -1q9 -66 52 -66q88 0 88 76q0 68 -82 86v18q72 0 72 73q0 54 -59 54q-53 0 -56 -54l-12 2l-4 56q34 20 80 20zM536 681h63l-482 -681h-60zM543 13v69q0 5 -6 5h-145l-6 16 l184 235l15 -2v-210q0 -5 4 -5h28q11 0 22 4l-8 -38h-42q-4 0 -4 -5v-69q0 -7 40 -7v-16h-125v16q43 0 43 7zM543 126v143l-117 -148h111q6 0 6 5z" />
<glyph unicode="&#xbf;" horiz-adv-x="397" d="M208 -11q-72 0 -123.5 37.5t-51.5 102.5q0 43 20 81t48.5 66.5t56.5 55t48 57t20 61.5q0 36 -31 67l28 23q24 -7 48.5 -36t24.5 -60q0 -36 -18 -68t-44.5 -57.5t-52.5 -51.5t-44 -60t-18 -73q0 -48 27 -74.5t66 -26.5q61 0 89.5 24t31.5 91l31 5l7 -129q-51 -35 -163 -35 zM233 576q-57 0 -57 56t57 56q60 0 60 -56t-60 -56z" />
<glyph unicode="&#xc0;" horiz-adv-x="724" d="M350 696l27 -4l247 -618q13 -34 82 -42v-32h-209v32q18 0 18 27q0 3 -9 30l-46 126q-10 27 -63 27h-152q-39 0 -48 -27l-35 -105q-4 -11 -4 -27q0 -47 54 -47v-36h-194v36q56 3 86 74zM421 333l-87 219l-89 -215q-12 -21 -12 -35q0 -16 39 -16h129q31 0 31 11q0 8 -11 36 zM269 863q18 0 45 -27q51 -50 114 -90l-10 -17q-27 14 -135 58q-47 19 -47 44q0 12 7.5 22t25.5 10z" />
<glyph unicode="&#xc1;" horiz-adv-x="724" d="M350 696l27 -4l247 -618q13 -34 82 -42v-32h-209v32q18 0 18 27q0 3 -9 30l-46 126q-10 27 -63 27h-152q-39 0 -48 -27l-35 -105q-4 -11 -4 -27q0 -47 54 -47v-36h-194v36q56 3 86 74zM421 333l-87 219l-89 -215q-12 -21 -12 -35q0 -16 39 -16h129q31 0 31 11q0 8 -11 36 zM456 863q32 0 32 -32q0 -26 -47 -44q-106 -43 -134 -58l-11 17q75 51 115 90l5.5 5.5t5.5 5t5 4t5 4t5 3.5t6 3t6.5 1.5t6.5 0.5z" />
<glyph unicode="&#xc2;" horiz-adv-x="724" d="M350 696l27 -4l247 -618q13 -34 82 -42v-32h-209v32q18 0 18 27q0 3 -9 30l-46 126q-10 27 -63 27h-152q-39 0 -48 -27l-35 -105q-4 -11 -4 -27q0 -47 54 -47v-36h-194v36q56 3 86 74zM421 333l-87 219l-89 -215q-12 -21 -12 -35q0 -16 39 -16h129q31 0 31 11q0 8 -11 36 zM260 737l-12 12l114 111l114 -111l-14 -12l-100 56z" />
<glyph unicode="&#xc3;" horiz-adv-x="724" d="M350 696l27 -4l247 -618q13 -34 82 -42v-32h-209v32q18 0 18 27q0 3 -9 30l-46 126q-10 27 -63 27h-152q-39 0 -48 -27l-35 -105q-4 -11 -4 -27q0 -47 54 -47v-36h-194v36q56 3 86 74zM421 333l-87 219l-89 -215q-12 -21 -12 -35q0 -16 39 -16h129q31 0 31 11q0 8 -11 36 zM211 756l-14 14q11 41 39 67t59 26q27 0 48 -11t31.5 -23.5t27 -23.5t35.5 -11q42 0 72 66l17 -13q-10 -43 -36.5 -69.5t-63.5 -26.5q-30 0 -73.5 34t-67.5 34q-37 0 -74 -63z" />
<glyph unicode="&#xc4;" horiz-adv-x="724" d="M350 696l27 -4l247 -618q13 -34 82 -42v-32h-209v32q18 0 18 27q0 3 -9 30l-46 126q-10 27 -63 27h-152q-39 0 -48 -27l-35 -105q-4 -11 -4 -27q0 -47 54 -47v-36h-194v36q56 3 86 74zM421 333l-87 219l-89 -215q-12 -21 -12 -35q0 -16 39 -16h129q31 0 31 11q0 8 -11 36 zM465 851q48 0 48 -47q0 -48 -48 -48q-50 0 -50 48q0 47 50 47zM260 851q48 0 48 -47q0 -48 -48 -48q-50 0 -50 48q0 47 50 47z" />
<glyph unicode="&#xc5;" horiz-adv-x="724" d="M350 696l27 -4l247 -618q13 -34 82 -42v-32h-209v32q18 0 18 27q0 3 -9 30l-46 126q-10 27 -63 27h-152q-39 0 -48 -27l-35 -105q-4 -11 -4 -27q0 -47 54 -47v-36h-194v36q56 3 86 74zM421 333l-87 219l-89 -215q-12 -21 -12 -35q0 -16 39 -16h129q31 0 31 11q0 8 -11 36 zM361 849q-20 0 -32.5 -14t-12.5 -34q0 -24 12 -37.5t33 -13.5q20 0 33.5 14t13.5 37q0 20 -14 34t-33 14zM361 880q32 0 54.5 -23.5t22.5 -55.5q0 -34 -22.5 -58t-54.5 -24q-33 0 -54.5 23.5t-21.5 58.5q0 32 22 55.5t54 23.5z" />
<glyph unicode="&#xc6;" horiz-adv-x="826" d="M247 637v44h440q33 0 61 9l7 -10l-16 -123h-28q-8 80 -81 80h-67q-23 0 -23 -24v-200q0 -31 24 -31h99q35 0 58 32h24l-21 -141h-26q-9 65 -58 65h-76q-24 0 -24 -22v-250q0 -23 24 -23h41q57 0 93.5 24t50.5 61l27 -8l-17 -120h-416v32q94 0 94 66v118q-1 22 -24 22 h-157q-38 0 -46 -27l-36 -101q-3 -14 -3 -27q0 -47 90 -47v-36h-231v36q56 3 86 74l209 496q1 2 1 5q1 1 1 2q0 24 -80 24zM409 637q-26 0 -40 -33l-113 -267q-10 -22 -10 -35q0 -16 38 -16h128q22 0 25 18v309q0 24 -28 24z" />
<glyph unicode="&#xc7;" horiz-adv-x="724" d="M432 693q83 0 237 -29l-12 -167h-26q-15 86 -59.5 121t-157.5 35q-260 0 -260 -291q0 -149 70.5 -239.5t200.5 -90.5q92 0 141 35.5t76 100.5l31 -11l-31 -145q-102 -27 -221 -27q-173 0 -276.5 104.5t-103.5 256.5q0 163 94.5 250.5t296.5 96.5zM411 -45q34 -32 34 -62 q0 -35 -81 -141l-17 10q28 54 28 77q0 26 -36 59q16 48 72 57z" />
<glyph unicode="&#xc8;" horiz-adv-x="486" d="M34 649v32h313q33 0 62 9l8 -10l-17 -123h-28q-6 80 -80 80h-69q-22 0 -22 -24v-200q0 -31 23 -31h100q35 0 58 32h24l-20 -141h-26q-10 65 -60 65h-76q-23 0 -23 -22v-250q0 -23 23 -23h43q56 0 92.5 24t50.5 61l28 -8l-17 -120h-379v32q57 0 57 21v556q0 40 -65 40z M150 863q18 0 45 -27q51 -50 114 -90l-10 -17q-27 14 -135 58q-47 19 -47 44q0 12 7.5 22t25.5 10z" />
<glyph unicode="&#xc9;" horiz-adv-x="486" d="M34 649v32h313q33 0 62 9l8 -10l-17 -123h-28q-6 80 -80 80h-69q-22 0 -22 -24v-200q0 -31 23 -31h100q35 0 58 32h24l-20 -141h-26q-10 65 -60 65h-76q-23 0 -23 -22v-250q0 -23 23 -23h43q56 0 92.5 24t50.5 61l28 -8l-17 -120h-379v32q57 0 57 21v556q0 40 -65 40z M347 863q32 0 32 -32q0 -26 -47 -44q-106 -43 -134 -58l-11 17q75 51 115 90l5.5 5.5t5.5 5t5 4t5 4t5 3.5t6 3t6.5 1.5t6.5 0.5z" />
<glyph unicode="&#xca;" horiz-adv-x="486" d="M34 649v32h313q33 0 62 9l8 -10l-17 -123h-28q-6 80 -80 80h-69q-22 0 -22 -24v-200q0 -31 23 -31h100q35 0 58 32h24l-20 -141h-26q-10 65 -60 65h-76q-23 0 -23 -22v-250q0 -23 23 -23h43q56 0 92.5 24t50.5 61l28 -8l-17 -120h-379v32q57 0 57 21v556q0 40 -65 40z M141 737l-12 12l114 111l114 -111l-14 -12l-100 56z" />
<glyph unicode="&#xcb;" horiz-adv-x="486" d="M34 649v32h313q33 0 62 9l8 -10l-17 -123h-28q-6 80 -80 80h-69q-22 0 -22 -24v-200q0 -31 23 -31h100q35 0 58 32h24l-20 -141h-26q-10 65 -60 65h-76q-23 0 -23 -22v-250q0 -23 23 -23h43q56 0 92.5 24t50.5 61l28 -8l-17 -120h-379v32q57 0 57 21v556q0 40 -65 40z M346 851q48 0 48 -47q0 -48 -48 -48q-50 0 -50 48q0 47 50 47zM141 851q48 0 48 -47q0 -48 -48 -48q-50 0 -50 48q0 47 50 47z" />
<glyph unicode="&#xcc;" horiz-adv-x="279" d="M256 32v-32h-224v32q62 0 62 24v549q0 44 -66 44v32h224v-32q-57 0 -57 -44v-549q0 -24 61 -24zM47 863q18 0 45 -27q51 -50 114 -90l-10 -17q-27 14 -135 58q-47 19 -47 44q0 12 7.5 22t25.5 10z" />
<glyph unicode="&#xcd;" horiz-adv-x="279" d="M256 32v-32h-224v32q62 0 62 24v549q0 44 -66 44v32h224v-32q-57 0 -57 -44v-549q0 -24 61 -24zM233 863q32 0 32 -32q0 -26 -47 -44q-106 -43 -134 -58l-11 17q75 51 115 90l5.5 5.5t5.5 5t5 4t5 4t5 3.5t6 3t6.5 1.5t6.5 0.5z" />
<glyph unicode="&#xce;" horiz-adv-x="279" d="M256 32v-32h-224v32q62 0 62 24v549q0 44 -66 44v32h224v-32q-57 0 -57 -44v-549q0 -24 61 -24zM38 737l-12 12l114 111l114 -111l-14 -12l-100 56z" />
<glyph unicode="&#xcf;" horiz-adv-x="279" d="M256 32v-32h-224v32q62 0 62 24v549q0 44 -66 44v32h224v-32q-57 0 -57 -44v-549q0 -24 61 -24zM243 851q48 0 48 -47q0 -48 -48 -48q-50 0 -50 48q0 47 50 47zM38 851q48 0 48 -47q0 -48 -48 -48q-50 0 -50 48q0 47 50 47z" />
<glyph unicode="&#xd0;" horiz-adv-x="766" d="M361 685q174 0 268 -91t94 -254q0 -340 -418 -340h-258v32q63 0 80.5 15.5t17.5 77.5v170h-70v63h70v194q0 21 -1.5 35t-6 24t-8 15t-14.5 9t-18 5.5t-24.5 4t-28.5 4.5v32q37 -4 89 -4q42 0 112 4t116 4zM318 358v-63h-71v-178q0 -52 17.5 -65t73.5 -13h30q123 0 181 73 t58 228q0 151 -66 226t-191 75h-39q-41 0 -52.5 -10.5t-11.5 -51.5v-221h71z" />
<glyph unicode="&#xd1;" horiz-adv-x="780" d="M234 32v-32h-211v32q69 0 69 38v611h39l504 -540v464q0 44 -93 44v32h215v-32q-75 0 -75 -44v-609l-24 -9l-512 540v-457q0 -38 88 -38zM239 756l-14 14q11 41 39 67t59 26q27 0 48 -11t31.5 -23.5t27 -23.5t35.5 -11q42 0 72 66l17 -13q-10 -43 -36.5 -69.5t-63.5 -26.5 q-30 0 -73.5 34t-67.5 34q-37 0 -74 -63z" />
<glyph unicode="&#xd2;" horiz-adv-x="831" d="M402 658q-118 0 -180 -82t-62 -213q0 -142 72 -241t201 -99q63 0 110.5 24t75 66t40.5 95.5t13 117.5q0 151 -74.5 241.5t-195.5 90.5zM411 693q170 0 273.5 -91t103.5 -248q0 -155 -103 -262t-274 -107q-92 0 -164 29.5t-115.5 80t-66 113.5t-22.5 134q0 68 23 130 t67 112t116 79.5t162 29.5zM322 863q18 0 45 -27q51 -50 114 -90l-10 -17q-27 14 -135 58q-47 19 -47 44q0 12 7.5 22t25.5 10z" />
<glyph unicode="&#xd3;" horiz-adv-x="831" d="M402 658q-118 0 -180 -82t-62 -213q0 -142 72 -241t201 -99q63 0 110.5 24t75 66t40.5 95.5t13 117.5q0 151 -74.5 241.5t-195.5 90.5zM411 693q170 0 273.5 -91t103.5 -248q0 -155 -103 -262t-274 -107q-92 0 -164 29.5t-115.5 80t-66 113.5t-22.5 134q0 68 23 130 t67 112t116 79.5t162 29.5zM509 863q32 0 32 -32q0 -26 -47 -44q-106 -43 -134 -58l-11 17q75 51 115 90l5.5 5.5t5.5 5t5 4t5 4t5 3.5t6 3t6.5 1.5t6.5 0.5z" />
<glyph unicode="&#xd4;" horiz-adv-x="831" d="M402 658q-118 0 -180 -82t-62 -213q0 -142 72 -241t201 -99q63 0 110.5 24t75 66t40.5 95.5t13 117.5q0 151 -74.5 241.5t-195.5 90.5zM411 693q170 0 273.5 -91t103.5 -248q0 -155 -103 -262t-274 -107q-92 0 -164 29.5t-115.5 80t-66 113.5t-22.5 134q0 68 23 130 t67 112t116 79.5t162 29.5zM313 737l-12 12l114 111l114 -111l-14 -12l-100 56z" />
<glyph unicode="&#xd5;" horiz-adv-x="831" d="M402 658q-118 0 -180 -82t-62 -213q0 -142 72 -241t201 -99q63 0 110.5 24t75 66t40.5 95.5t13 117.5q0 151 -74.5 241.5t-195.5 90.5zM411 693q170 0 273.5 -91t103.5 -248q0 -155 -103 -262t-274 -107q-92 0 -164 29.5t-115.5 80t-66 113.5t-22.5 134q0 68 23 130 t67 112t116 79.5t162 29.5zM265 756l-14 14q11 41 39 67t59 26q27 0 48 -11t31.5 -23.5t27 -23.5t35.5 -11q42 0 72 66l17 -13q-10 -43 -36.5 -69.5t-63.5 -26.5q-30 0 -73.5 34t-67.5 34q-37 0 -74 -63z" />
<glyph unicode="&#xd6;" horiz-adv-x="831" d="M402 658q-118 0 -180 -82t-62 -213q0 -142 72 -241t201 -99q63 0 110.5 24t75 66t40.5 95.5t13 117.5q0 151 -74.5 241.5t-195.5 90.5zM411 693q170 0 273.5 -91t103.5 -248q0 -155 -103 -262t-274 -107q-92 0 -164 29.5t-115.5 80t-66 113.5t-22.5 134q0 68 23 130 t67 112t116 79.5t162 29.5zM519 851q48 0 48 -47q0 -48 -48 -48q-50 0 -50 48q0 47 50 47zM314 851q48 0 48 -47q0 -48 -48 -48q-50 0 -50 48q0 47 50 47z" />
<glyph unicode="&#xd7;" horiz-adv-x="493" d="M107 445l139 -137l138 137l50 -49l-138 -138l138 -139l-47 -47l-138 139l-138 -139l-50 50l137 139l-137 138z" />
<glyph unicode="&#xd8;" horiz-adv-x="831" d="M549 674l30 63l55 -25l-30 -58q88 -41 136 -118t48 -182q0 -155 -103 -262t-274 -107q-66 0 -123 15l-26 -65l-58 26l30 59q-95 44 -143 130t-48 192q0 68 23 130t67 112t116 79.5t162 29.5q77 0 138 -19zM402 658q-118 0 -180 -82t-62 -213q0 -85 27 -158t79 -119 l260 540q-56 32 -124 32zM433 23q63 0 110.5 24t75 66t40.5 95.5t13 117.5q0 175 -98 265l-260 -539q52 -29 119 -29z" />
<glyph unicode="&#xd9;" horiz-adv-x="731" d="M24 681h227v-32q-56 0 -56 -29v-326q0 -44 4 -78.5t16 -70.5t32.5 -59.5t56 -38.5t83.5 -15q203 0 203 281v292q0 44 -87 44v32h205v-32q-71 0 -71 -44v-268q0 -178 -61.5 -265t-203.5 -87q-278 0 -278 302v333q0 29 -70 29v32zM272 863q18 0 45 -27q51 -50 114 -90 l-10 -17q-27 14 -135 58q-47 19 -47 44q0 12 7.5 22t25.5 10z" />
<glyph unicode="&#xda;" horiz-adv-x="731" d="M24 681h227v-32q-56 0 -56 -29v-326q0 -44 4 -78.5t16 -70.5t32.5 -59.5t56 -38.5t83.5 -15q203 0 203 281v292q0 44 -87 44v32h205v-32q-71 0 -71 -44v-268q0 -178 -61.5 -265t-203.5 -87q-278 0 -278 302v333q0 29 -70 29v32zM459 863q32 0 32 -32q0 -26 -47 -44 q-106 -43 -134 -58l-11 17q75 51 115 90l5.5 5.5t5.5 5t5 4t5 4t5 3.5t6 3t6.5 1.5t6.5 0.5z" />
<glyph unicode="&#xdb;" horiz-adv-x="731" d="M24 681h227v-32q-56 0 -56 -29v-326q0 -44 4 -78.5t16 -70.5t32.5 -59.5t56 -38.5t83.5 -15q203 0 203 281v292q0 44 -87 44v32h205v-32q-71 0 -71 -44v-268q0 -178 -61.5 -265t-203.5 -87q-278 0 -278 302v333q0 29 -70 29v32zM263 737l-12 12l114 111l114 -111l-14 -12 l-100 56z" />
<glyph unicode="&#xdc;" horiz-adv-x="731" d="M24 681h227v-32q-56 0 -56 -29v-326q0 -44 4 -78.5t16 -70.5t32.5 -59.5t56 -38.5t83.5 -15q203 0 203 281v292q0 44 -87 44v32h205v-32q-71 0 -71 -44v-268q0 -178 -61.5 -265t-203.5 -87q-278 0 -278 302v333q0 29 -70 29v32zM469 851q48 0 48 -47q0 -48 -48 -48 q-50 0 -50 48q0 47 50 47zM264 851q48 0 48 -47q0 -48 -48 -48q-50 0 -50 48q0 47 50 47z" />
<glyph unicode="&#xdd;" horiz-adv-x="675" d="M18 681h199v-32q-17 0 -17 -17q0 -13 16 -42l137 -252l133 237q23 41 23 50q0 24 -39 24v32h187v-32q-37 0 -56 -8.5t-32 -29.5l-152 -256q-26 -45 -26 -135v-147q0 -41 64 -41v-32h-234v32q64 0 64 45v140q0 78 -30 128l-133 218q-29 48 -53 66.5t-51 19.5v32zM439 863 q32 0 32 -32q0 -26 -47 -44q-106 -43 -134 -58l-11 17q75 51 115 90l5.5 5.5t5.5 5t5 4t5 4t5 3.5t6 3t6.5 1.5t6.5 0.5z" />
<glyph unicode="&#xde;" horiz-adv-x="511" d="M262 32v-32h-225v32q61 0 61 24v549q0 44 -65 44v32h225v-32q-58 0 -58 -44v-83q31 0 58.5 2.5t46.5 2.5q79 0 133.5 -49t54.5 -126q0 -102 -73 -158.5t-173 -56.5h-19v40h11q74 0 113.5 34t39.5 119q0 72 -44 116t-82 44h-23q-43 0 -43 -28v-406q0 -24 62 -24z" />
<glyph unicode="&#xdf;" horiz-adv-x="614" d="M525 575q0 -18 -28 -46t-56 -60t-28 -60t16.5 -52.5t40 -44.5t47 -41t40 -52t16.5 -67q0 -63 -66 -114t-126 -51q-47 0 -78 17.5t-31 48.5q0 10 13.5 25t24.5 15q8 0 41 -25t57 -25q25 0 49 23.5t24 48.5q0 33 -16 61t-38.5 49t-44.5 41.5t-38 48t-16 59.5q0 25 18.5 52 t40 46.5t40 47t18.5 54.5q0 58 -33 92t-84 34q-121 0 -121 -138v-562h-168v35q73 0 73 55v328h-78l20 44h58q0 285 216 285q98 0 147.5 -40t49.5 -132z" />
<glyph unicode="&#xe0;" horiz-adv-x="483" d="M249 475q63 0 102 -37.5t39 -114.5v-220q0 -42 38 -42q21 0 34 9l11 -33l-87 -49q-65 0 -86 66q-62 -66 -135 -66q-61 0 -92 29t-31 80q0 65 59 101.5t195 63.5v57q0 105 -78 105q-31 0 -50.5 -17.5t-26 -38.5t-15.5 -38.5t-21 -17.5q-46 0 -46 50q0 31 66 70t124 43z M210 55q53 0 88 35v140q-91 -27 -126 -51t-35 -67q0 -57 73 -57zM148 644q18 0 45 -27q51 -50 114 -90l-10 -17q-27 14 -135 58q-47 19 -47 44q0 12 7.5 22t25.5 10z" />
<glyph unicode="&#xe1;" horiz-adv-x="483" d="M249 475q63 0 102 -37.5t39 -114.5v-220q0 -42 38 -42q21 0 34 9l11 -33l-87 -49q-65 0 -86 66q-62 -66 -135 -66q-61 0 -92 29t-31 80q0 65 59 101.5t195 63.5v57q0 105 -78 105q-31 0 -50.5 -17.5t-26 -38.5t-15.5 -38.5t-21 -17.5q-46 0 -46 50q0 31 66 70t124 43z M210 55q53 0 88 35v140q-91 -27 -126 -51t-35 -67q0 -57 73 -57zM335 644q32 0 32 -32q0 -26 -47 -44q-106 -43 -134 -58l-11 17q75 51 115 90l5.5 5.5t5.5 5t5 4t5 4t5 3.5t6 3t6.5 1.5t6.5 0.5z" />
<glyph unicode="&#xe2;" horiz-adv-x="483" d="M249 475q63 0 102 -37.5t39 -114.5v-220q0 -42 38 -42q21 0 34 9l11 -33l-87 -49q-65 0 -86 66q-62 -66 -135 -66q-61 0 -92 29t-31 80q0 65 59 101.5t195 63.5v57q0 105 -78 105q-31 0 -50.5 -17.5t-26 -38.5t-15.5 -38.5t-21 -17.5q-46 0 -46 50q0 31 66 70t124 43z M210 55q53 0 88 35v140q-91 -27 -126 -51t-35 -67q0 -57 73 -57zM139 518l-12 12l114 111l114 -111l-14 -12l-100 56z" />
<glyph unicode="&#xe3;" horiz-adv-x="483" d="M249 475q63 0 102 -37.5t39 -114.5v-220q0 -42 38 -42q21 0 34 9l11 -33l-87 -49q-65 0 -86 66q-62 -66 -135 -66q-61 0 -92 29t-31 80q0 65 59 101.5t195 63.5v57q0 105 -78 105q-31 0 -50.5 -17.5t-26 -38.5t-15.5 -38.5t-21 -17.5q-46 0 -46 50q0 31 66 70t124 43z M210 55q53 0 88 35v140q-91 -27 -126 -51t-35 -67q0 -57 73 -57zM91 537l-14 14q11 41 39 67t59 26q34 0 57 -17t42 -34.5t43 -17.5q42 0 72 66l17 -13q-10 -43 -36.5 -69.5t-63.5 -26.5q-30 0 -73.5 34t-67.5 34q-37 0 -74 -63z" />
<glyph unicode="&#xe4;" horiz-adv-x="483" d="M249 475q63 0 102 -37.5t39 -114.5v-220q0 -42 38 -42q21 0 34 9l11 -33l-87 -49q-65 0 -86 66q-62 -66 -135 -66q-61 0 -92 29t-31 80q0 65 59 101.5t195 63.5v57q0 105 -78 105q-31 0 -50.5 -17.5t-26 -38.5t-15.5 -38.5t-21 -17.5q-46 0 -46 50q0 31 66 70t124 43z M210 55q53 0 88 35v140q-91 -27 -126 -51t-35 -67q0 -57 73 -57zM345 632q48 0 48 -47q0 -48 -48 -48q-50 0 -50 48q0 47 50 47zM140 632q48 0 48 -47q0 -48 -48 -48q-50 0 -50 48q0 47 50 47z" />
<glyph unicode="&#xe5;" horiz-adv-x="483" d="M249 475q63 0 102 -37.5t39 -114.5v-220q0 -42 38 -42q21 0 34 9l11 -33l-87 -49q-65 0 -86 66q-62 -66 -135 -66q-61 0 -92 29t-31 80q0 65 59 101.5t195 63.5v57q0 105 -78 105q-31 0 -50.5 -17.5t-26 -38.5t-15.5 -38.5t-21 -17.5q-46 0 -46 50q0 31 66 70t124 43z M210 55q53 0 88 35v140q-91 -27 -126 -51t-35 -67q0 -57 73 -57zM241 630q-20 0 -32.5 -14t-12.5 -34q0 -24 12 -37.5t33 -13.5q20 0 33.5 14t13.5 37q0 20 -14 34t-33 14zM241 661q32 0 54.5 -23.5t22.5 -55.5q0 -34 -22.5 -58t-54.5 -24q-33 0 -54.5 23.5t-21.5 58.5 q0 32 22 55.5t54 23.5z" />
<glyph unicode="&#xe6;" horiz-adv-x="750" d="M523 475q30 0 58.5 -8.5t57 -27t46 -56.5t17.5 -89q0 -6 -2 -20h-298q0 -104 45 -161.5t117 -57.5q37 0 70 18.5t51 42.5l26 -17q-37 -55 -76.5 -83t-102.5 -28q-115 0 -181 82q-66 -82 -175 -82q-66 0 -100 29t-34 80q0 65 59 101.5t195 63.5v57q0 105 -78 105 q-31 0 -50.5 -17.5t-26 -38.5t-15.5 -38.5t-21 -17.5q-46 0 -46 50q0 31 66 70t124 43q88 0 123 -65q63 65 151 65zM210 55q53 0 88 49v126q-91 -27 -126 -51t-35 -67q0 -57 73 -57zM519 436q-47 0 -82 -38.5t-35 -88.5h172q34 0 34 39q0 33 -29 60.5t-60 27.5z" />
<glyph unicode="&#xe7;" horiz-adv-x="473" d="M291 473q59 0 98.5 -15t39.5 -44q0 -20 -12 -34t-25 -14q-17 0 -33.5 14.5t-38.5 29t-54 14.5q-61 0 -91.5 -50.5t-30.5 -122.5q0 -91 39.5 -141t116.5 -50q40 0 67.5 13.5t49.5 47.5l30 -17q-22 -57 -78 -86.5t-117 -29.5q-99 0 -155 61.5t-56 162.5q0 107 73 184 t177 77zM275 -45q34 -32 34 -62q0 -35 -81 -141l-17 10q28 54 28 77q0 26 -36 59q16 48 72 57z" />
<glyph unicode="&#xe8;" horiz-adv-x="485" d="M261 475q29 0 57.5 -8.5t57 -27t46 -56.5t17.5 -89q0 -13 -1 -20h-298q0 -104 44.5 -161.5t115.5 -57.5q38 0 71 18.5t51 42.5l26 -17q-37 -56 -76 -83.5t-102 -27.5q-109 0 -169 68t-60 169q0 105 61 177.5t159 72.5zM256 436q-46 0 -81 -38.5t-35 -88.5h172q34 0 34 39 q0 33 -29.5 60.5t-60.5 27.5zM149 644q18 0 45 -27q51 -50 114 -90l-10 -17q-27 14 -135 58q-47 19 -47 44q0 12 7.5 22t25.5 10z" />
<glyph unicode="&#xe9;" horiz-adv-x="485" d="M261 475q29 0 57.5 -8.5t57 -27t46 -56.5t17.5 -89q0 -13 -1 -20h-298q0 -104 44.5 -161.5t115.5 -57.5q38 0 71 18.5t51 42.5l26 -17q-37 -56 -76 -83.5t-102 -27.5q-109 0 -169 68t-60 169q0 105 61 177.5t159 72.5zM256 436q-46 0 -81 -38.5t-35 -88.5h172q34 0 34 39 q0 33 -29.5 60.5t-60.5 27.5zM336 644q32 0 32 -32q0 -26 -47 -44q-106 -43 -134 -58l-11 17q75 51 115 90l5.5 5.5t5.5 5t5 4t5 4t5 3.5t6 3t6.5 1.5t6.5 0.5z" />
<glyph unicode="&#xea;" horiz-adv-x="485" d="M261 475q29 0 57.5 -8.5t57 -27t46 -56.5t17.5 -89q0 -13 -1 -20h-298q0 -104 44.5 -161.5t115.5 -57.5q38 0 71 18.5t51 42.5l26 -17q-37 -56 -76 -83.5t-102 -27.5q-109 0 -169 68t-60 169q0 105 61 177.5t159 72.5zM256 436q-46 0 -81 -38.5t-35 -88.5h172q34 0 34 39 q0 33 -29.5 60.5t-60.5 27.5zM140 518l-12 12l114 111l114 -111l-14 -12l-100 56z" />
<glyph unicode="&#xeb;" horiz-adv-x="485" d="M261 475q29 0 57.5 -8.5t57 -27t46 -56.5t17.5 -89q0 -13 -1 -20h-298q0 -104 44.5 -161.5t115.5 -57.5q38 0 71 18.5t51 42.5l26 -17q-37 -56 -76 -83.5t-102 -27.5q-109 0 -169 68t-60 169q0 105 61 177.5t159 72.5zM256 436q-46 0 -81 -38.5t-35 -88.5h172q34 0 34 39 q0 33 -29.5 60.5t-60.5 27.5zM346 632q48 0 48 -47q0 -48 -48 -48q-50 0 -50 48q0 47 50 47zM141 632q48 0 48 -47q0 -48 -48 -48q-50 0 -50 48q0 47 50 47z" />
<glyph unicode="&#xec;" horiz-adv-x="316" d="M292 35v-35h-259v35q78 0 78 68v256q0 59 -70 59v30l164 36v-384q0 -65 87 -65zM65 644q18 0 45 -27q51 -50 114 -90l-10 -17q-27 14 -135 58q-47 19 -47 44q0 12 7.5 22t25.5 10z" />
<glyph unicode="&#xed;" horiz-adv-x="316" d="M292 35v-35h-259v35q78 0 78 68v256q0 59 -70 59v30l164 36v-384q0 -65 87 -65zM252 644q32 0 32 -32q0 -26 -47 -44q-106 -43 -134 -58l-11 17q75 51 115 90l5.5 5.5t5.5 5t5 4t5 4t5 3.5t6 3t6.5 1.5t6.5 0.5z" />
<glyph unicode="&#xee;" horiz-adv-x="316" d="M292 35v-35h-259v35q78 0 78 68v256q0 59 -70 59v30l164 36v-384q0 -65 87 -65zM56 518l-12 12l114 111l114 -111l-14 -12l-100 56z" />
<glyph unicode="&#xef;" horiz-adv-x="316" d="M292 35v-35h-259v35q78 0 78 68v256q0 59 -70 59v30l164 36v-384q0 -65 87 -65zM262 632q48 0 48 -47q0 -48 -48 -48q-50 0 -50 48q0 47 50 47zM57 632q48 0 48 -47q0 -48 -48 -48q-50 0 -50 48q0 47 50 47z" />
<glyph unicode="&#xf0;" horiz-adv-x="521" d="M246 672l63 59l39 -44l-57 -53q86 -79 141 -179.5t55 -205.5q0 -130 -56.5 -197t-179.5 -67q-104 0 -158.5 62t-54.5 181q0 110 75.5 178t171.5 68q22 0 47 -5q-30 57 -91 119l-70 -65l-40 43l68 64q-85 75 -119 85l8 37q68 -16 158 -80zM279 435q-61 0 -100.5 -59.5 t-39.5 -158.5q0 -72 33.5 -132t87.5 -60q64 0 97 62.5t33 162.5q0 44 -8.5 83t-35 70.5t-67.5 31.5z" />
<glyph unicode="&#xf1;" horiz-adv-x="594" d="M33 444l156 40q4 -4 4 -22v-61q91 74 151 74q63 0 105 -36.5t42 -119.5v-211q0 -73 73 -73v-35h-234v35q66 0 66 77v155q0 146 -74 146q-69 0 -125 -47v-271q0 -60 71 -60v-35h-235v35q69 0 69 55v290q0 33 -69 33v31zM156 537l-14 14q11 41 39 67t59 26q34 0 57 -17 t42 -34.5t43 -17.5q42 0 72 66l17 -13q-10 -43 -36.5 -69.5t-63.5 -26.5q-30 0 -73.5 34t-67.5 34q-37 0 -74 -63z" />
<glyph unicode="&#xf2;" horiz-adv-x="557" d="M283 474q101 0 167 -70t66 -171q0 -116 -69.5 -185.5t-168.5 -69.5q-104 0 -170.5 70t-66.5 172q0 115 69.5 184.5t172.5 69.5zM283 23q33 0 58 12t38 29.5t21 41.5t10 42t2 38q0 44 -5 82t-18 78.5t-41.5 64.5t-69.5 24q-42 0 -71 -18t-41 -47.5t-16.5 -53.5t-4.5 -49 q0 -244 138 -244zM185 644q18 0 45 -27q51 -50 114 -90l-10 -17q-27 14 -135 58q-47 19 -47 44q0 12 7.5 22t25.5 10z" />
<glyph unicode="&#xf3;" horiz-adv-x="557" d="M283 474q101 0 167 -70t66 -171q0 -116 -69.5 -185.5t-168.5 -69.5q-104 0 -170.5 70t-66.5 172q0 115 69.5 184.5t172.5 69.5zM283 23q33 0 58 12t38 29.5t21 41.5t10 42t2 38q0 44 -5 82t-18 78.5t-41.5 64.5t-69.5 24q-42 0 -71 -18t-41 -47.5t-16.5 -53.5t-4.5 -49 q0 -244 138 -244zM372 644q32 0 32 -32q0 -26 -47 -44q-106 -43 -134 -58l-11 17q75 51 115 90l5.5 5.5t5.5 5t5 4t5 4t5 3.5t6 3t6.5 1.5t6.5 0.5z" />
<glyph unicode="&#xf4;" horiz-adv-x="557" d="M283 474q101 0 167 -70t66 -171q0 -116 -69.5 -185.5t-168.5 -69.5q-104 0 -170.5 70t-66.5 172q0 115 69.5 184.5t172.5 69.5zM283 23q33 0 58 12t38 29.5t21 41.5t10 42t2 38q0 44 -5 82t-18 78.5t-41.5 64.5t-69.5 24q-42 0 -71 -18t-41 -47.5t-16.5 -53.5t-4.5 -49 q0 -244 138 -244zM176 518l-12 12l114 111l114 -111l-14 -12l-100 56z" />
<glyph unicode="&#xf5;" horiz-adv-x="557" d="M283 474q101 0 167 -70t66 -171q0 -116 -69.5 -185.5t-168.5 -69.5q-104 0 -170.5 70t-66.5 172q0 115 69.5 184.5t172.5 69.5zM283 23q33 0 58 12t38 29.5t21 41.5t10 42t2 38q0 44 -5 82t-18 78.5t-41.5 64.5t-69.5 24q-42 0 -71 -18t-41 -47.5t-16.5 -53.5t-4.5 -49 q0 -244 138 -244zM128 537l-14 14q11 41 39 67t59 26q34 0 57 -17t42 -34.5t43 -17.5q42 0 72 66l17 -13q-10 -43 -36.5 -69.5t-63.5 -26.5q-30 0 -73.5 34t-67.5 34q-37 0 -74 -63z" />
<glyph unicode="&#xf6;" horiz-adv-x="557" d="M283 474q101 0 167 -70t66 -171q0 -116 -69.5 -185.5t-168.5 -69.5q-104 0 -170.5 70t-66.5 172q0 115 69.5 184.5t172.5 69.5zM283 23q33 0 58 12t38 29.5t21 41.5t10 42t2 38q0 44 -5 82t-18 78.5t-41.5 64.5t-69.5 24q-42 0 -71 -18t-41 -47.5t-16.5 -53.5t-4.5 -49 q0 -244 138 -244zM382 632q48 0 48 -47q0 -48 -48 -48q-50 0 -50 48q0 47 50 47zM177 632q48 0 48 -47q0 -48 -48 -48q-50 0 -50 48q0 47 50 47z" />
<glyph unicode="&#xf7;" horiz-adv-x="498" d="M442 293v-62h-387v62h387zM253 171q57 0 57 -56t-57 -56q-59 0 -59 56t59 56zM253 464q57 0 57 -55q0 -57 -57 -57q-59 0 -59 57q0 55 59 55z" />
<glyph unicode="&#xf8;" horiz-adv-x="552" d="M280 474q42 0 81 -14l30 60l51 -19l-33 -66q49 -33 76.5 -85.5t27.5 -116.5q0 -116 -69.5 -185.5t-168.5 -69.5q-42 0 -81 14l-24 -51l-51 19l26 54q-51 32 -79 86.5t-28 119.5q0 115 69.5 184.5t172.5 69.5zM275 435q-42 0 -70.5 -18t-40.5 -47.5t-16.5 -53.5t-4.5 -49 q0 -127 34 -185l162 331q-25 22 -64 22zM280 23q41 0 69 17t40 45.5t16 51.5t4 49q0 115 -33 180l-158 -327q27 -16 62 -16z" />
<glyph unicode="&#xf9;" horiz-adv-x="592" d="M33 428v30l168 12v-283q0 -136 81 -136q62 0 115 54v283q0 40 -82 40v30l178 12v-380q0 -40 77 -40v-30l-164 -25q-4 7 -4 31v39q-74 -77 -160 -77q-68 0 -102 38t-34 136v226q0 40 -73 40zM203 644q18 0 45 -27q51 -50 114 -90l-10 -17q-27 14 -135 58q-47 19 -47 44 q0 12 7.5 22t25.5 10z" />
<glyph unicode="&#xfa;" horiz-adv-x="592" d="M33 428v30l168 12v-283q0 -136 81 -136q62 0 115 54v283q0 40 -82 40v30l178 12v-380q0 -40 77 -40v-30l-164 -25q-4 7 -4 31v39q-74 -77 -160 -77q-68 0 -102 38t-34 136v226q0 40 -73 40zM390 644q32 0 32 -32q0 -26 -47 -44q-106 -43 -134 -58l-11 17q75 51 115 90 l5.5 5.5t5.5 5t5 4t5 4t5 3.5t6 3t6.5 1.5t6.5 0.5z" />
<glyph unicode="&#xfb;" horiz-adv-x="592" d="M33 428v30l168 12v-283q0 -136 81 -136q62 0 115 54v283q0 40 -82 40v30l178 12v-380q0 -40 77 -40v-30l-164 -25q-4 7 -4 31v39q-74 -77 -160 -77q-68 0 -102 38t-34 136v226q0 40 -73 40zM194 518l-12 12l114 111l114 -111l-14 -12l-100 56z" />
<glyph unicode="&#xfc;" horiz-adv-x="592" d="M33 428v30l168 12v-283q0 -136 81 -136q62 0 115 54v283q0 40 -82 40v30l178 12v-380q0 -40 77 -40v-30l-164 -25q-4 7 -4 31v39q-74 -77 -160 -77q-68 0 -102 38t-34 136v226q0 40 -73 40zM399 632q48 0 48 -47q0 -48 -48 -48q-50 0 -50 48q0 47 50 47zM194 632 q48 0 48 -47q0 -48 -48 -48q-50 0 -50 48q0 47 50 47z" />
<glyph unicode="&#xfd;" horiz-adv-x="532" d="M312 428v34h194v-34q-52 0 -75 -51l-145 -326q-5 -12 -36.5 -84.5t-58.5 -133.5t-33 -73q-12 -26 -34 -26q-27 0 -45.5 17.5t-18.5 33.5t7 24t23 17q11 6 25.5 17.5t37 33t41.5 55.5t28 73l-151 379q-18 44 -69 44v34h223v-34h-15q-37 0 -37 -27q0 -22 10 -39l91 -250 l90 233q9 18 9 48q0 35 -61 35zM363 644q32 0 32 -32q0 -26 -47 -44q-106 -43 -134 -58l-11 17q75 51 115 90l5.5 5.5t5.5 5t5 4t5 4t5 3.5t6 3t6.5 1.5t6.5 0.5z" />
<glyph unicode="&#xfe;" horiz-adv-x="558" d="M343 475q90 0 140 -62.5t50 -135.5q0 -113 -68.5 -201t-178.5 -88q-50 0 -89 20l-5 -5q5 -15 5 -42v-140q0 -38 90 -38v-31h-251v31q61 0 61 34v810q0 56 -86 56v29l181 35v-337q98 65 151 65zM304 413q-52 0 -112 -50v-279q30 -46 96 -46q61 0 106 57t45 141 q0 72 -38.5 124.5t-96.5 52.5z" />
<glyph unicode="&#xff;" horiz-adv-x="532" d="M312 428v34h194v-34q-52 0 -75 -51l-145 -326q-5 -12 -36.5 -84.5t-58.5 -133.5t-33 -73q-12 -26 -34 -26q-27 0 -45.5 17.5t-18.5 33.5t7 24t23 17q11 6 25.5 17.5t37 33t41.5 55.5t28 73l-151 379q-18 44 -69 44v34h223v-34h-15q-37 0 -37 -27q0 -22 10 -39l91 -250 l90 233q9 18 9 48q0 35 -61 35zM372 632q48 0 48 -47q0 -48 -48 -48q-50 0 -50 48q0 47 50 47zM167 632q48 0 48 -47q0 -48 -48 -48q-50 0 -50 48q0 47 50 47z" />
<glyph unicode="&#x152;" horiz-adv-x="1061" d="M411 693q172 0 264 -97v85h248q35 0 62 9l8 -10l-17 -123h-28q-6 80 -80 80h-69q-22 0 -22 -24v-200q0 -31 23 -31h100q35 0 58 32h24l-20 -141h-26q-10 65 -60 65h-76q-23 0 -23 -22v-250q0 -23 23 -23h43q56 0 92.5 24t50.5 61l28 -8l-17 -120h-322v96 q-92 -111 -264 -111q-92 0 -164 29.5t-115.5 80t-66 113.5t-22.5 134q0 68 23 130t67 112t116 79.5t162 29.5zM402 658q-118 0 -180 -82t-62 -213q0 -142 72 -241t201 -99q63 0 110.5 24t75 66t40.5 95.5t13 117.5q0 151 -74.5 241.5t-195.5 90.5z" />
<glyph unicode="&#x153;" horiz-adv-x="867" d="M635 475q29 0 57.5 -8.5t57 -27t46 -56.5t17.5 -89q0 -13 -1 -20h-298q0 -104 44.5 -161.5t115.5 -57.5q38 0 71 18.5t52 42.5l25 -17q-37 -56 -76 -83.5t-102 -27.5q-119 0 -181 82q-67 -92 -188 -92q-104 0 -170.5 70t-66.5 172q0 115 69.5 184.5t172.5 69.5 q114 0 183 -89q63 90 172 90zM280 23q41 0 69 17t40 45.5t16 51.5t4 49q0 249 -134 249q-42 0 -70.5 -18t-40.5 -47.5t-16.5 -53.5t-4.5 -49q0 -244 137 -244zM630 436q-46 0 -81 -38.5t-35 -88.5h172q34 0 34 39q0 33 -29.5 60.5t-60.5 27.5z" />
<glyph unicode="&#x178;" horiz-adv-x="675" d="M18 681h199v-32q-17 0 -17 -17q0 -13 16 -42l137 -252l133 237q23 41 23 50q0 24 -39 24v32h187v-32q-37 0 -56 -8.5t-32 -29.5l-152 -256q-26 -45 -26 -135v-147q0 -41 64 -41v-32h-234v32q64 0 64 45v140q0 78 -30 128l-133 218q-29 48 -53 66.5t-51 19.5v32zM446 851 q48 0 48 -47q0 -48 -48 -48q-50 0 -50 48q0 47 50 47zM241 851q48 0 48 -47q0 -48 -48 -48q-50 0 -50 48q0 47 50 47z" />
<glyph unicode="&#x2c6;" horiz-adv-x="293" d="M45 518l-12 12l114 111l114 -111l-14 -12l-100 56z" />
<glyph unicode="&#x2dc;" horiz-adv-x="433" d="M65 537l-14 14q11 41 39 67t59 26q34 0 57 -17t42 -34.5t43 -17.5q42 0 72 66l17 -13q-10 -43 -36.5 -69.5t-63.5 -26.5q-30 0 -73.5 34t-67.5 34q-37 0 -74 -63z" />
<glyph unicode="&#x2000;" horiz-adv-x="440" />
<glyph unicode="&#x2001;" horiz-adv-x="880" />
<glyph unicode="&#x2002;" horiz-adv-x="440" />
<glyph unicode="&#x2003;" horiz-adv-x="880" />
<glyph unicode="&#x2004;" horiz-adv-x="293" />
<glyph unicode="&#x2005;" horiz-adv-x="220" />
<glyph unicode="&#x2006;" horiz-adv-x="146" />
<glyph unicode="&#x2007;" horiz-adv-x="146" />
<glyph unicode="&#x2008;" horiz-adv-x="110" />
<glyph unicode="&#x2009;" horiz-adv-x="176" />
<glyph unicode="&#x200a;" horiz-adv-x="48" />
<glyph unicode="&#x2010;" horiz-adv-x="355" d="M298 293v-62h-243v62h243z" />
<glyph unicode="&#x2011;" horiz-adv-x="355" d="M298 293v-62h-243v62h243z" />
<glyph unicode="&#x2012;" horiz-adv-x="355" d="M298 293v-62h-243v62h243z" />
<glyph unicode="&#x2013;" horiz-adv-x="498" d="M442 293v-62h-387v62h387z" />
<glyph unicode="&#x2014;" horiz-adv-x="810" d="M755 293v-62h-700v62h700z" />
<glyph unicode="&#x2018;" horiz-adv-x="145" d="M50 515q-32 35 -32 64q0 38 79 145l18 -12q-28 -53 -28 -78q0 -28 35 -60q-14 -48 -72 -59z" />
<glyph unicode="&#x2019;" horiz-adv-x="145" d="M89 741q33 -31 33 -63q0 -39 -80 -144l-18 10q28 53 28 79q0 28 -34 60q14 50 71 58z" />
<glyph unicode="&#x201a;" horiz-adv-x="163" d="M105 119q34 -32 34 -63q0 -37 -81 -144l-17 10q28 56 28 79q0 26 -36 60q16 49 72 58z" />
<glyph unicode="&#x201c;" horiz-adv-x="269" d="M50 515q-32 35 -32 64q0 38 79 145l18 -12q-28 -53 -28 -78q0 -28 35 -60q-14 -48 -72 -59zM177 515q-33 36 -33 64q0 38 80 145l18 -12q-28 -50 -28 -78t35 -60q-14 -48 -72 -59z" />
<glyph unicode="&#x201d;" horiz-adv-x="269" d="M216 741q33 -33 33 -63q0 -39 -80 -144l-18 10q28 53 28 79q0 28 -35 60q15 51 72 58zM89 741q33 -31 33 -63q0 -39 -80 -144l-18 10q28 53 28 79q0 28 -34 60q14 50 71 58z" />
<glyph unicode="&#x201e;" horiz-adv-x="269" d="M216 119q33 -33 33 -63q0 -39 -80 -144l-18 10q28 53 28 79q0 27 -35 60q15 49 72 58zM89 119q33 -31 33 -63q0 -39 -80 -144l-18 10q28 53 28 79t-34 60q13 49 71 58z" />
<glyph unicode="&#x2022;" horiz-adv-x="321" d="M163 433q111 0 111 -112q0 -110 -111 -110q-118 0 -118 110q0 112 118 112z" />
<glyph unicode="&#x2026;" horiz-adv-x="1115" d="M113 101q57 0 57 -56t-57 -56q-60 0 -60 56t60 56zM559 101q57 0 57 -56t-57 -56q-60 0 -60 56t60 56zM1005 101q57 0 57 -56t-57 -56q-60 0 -60 56t60 56z" />
<glyph unicode="&#x202f;" horiz-adv-x="176" />
<glyph unicode="&#x2039;" horiz-adv-x="209" d="M159 140l-19 -24l-126 143l127 142l17 -25l-74 -117h1q65 -104 74 -119z" />
<glyph unicode="&#x203a;" horiz-adv-x="208" d="M69 117l-20 23l74 119h1l-75 117l19 25l127 -142z" />
<glyph unicode="&#x205f;" horiz-adv-x="220" />
<glyph unicode="&#x20ac;" horiz-adv-x="695" d="M426 693q97 0 159 -29t62 -79q0 -17 -10 -29t-27 -12q-25 0 -36.5 17t-16.5 40t-10 29q-20 23 -102 23q-105 0 -160.5 -67t-64.5 -179h281l-15 -47h-266q0 -48 3 -71h239l-15 -47h-216q47 -210 219 -210q106 0 160 66l32 -28q-73 -85 -216 -85q-125 0 -206.5 69 t-105.5 188h-86l22 47h56v71h-78l22 47h60q24 125 113 205.5t203 80.5z" />
<glyph unicode="&#x2122;" horiz-adv-x="800" d="M43 620l-12 8l13 59q25 -6 31 -6h221q3 0 33 6v-64l-13 -4q-3 38 -32 38h-66q-2 0 -2 -9v-254q0 -19 33 -19v-14h-129v14q29 0 29 19v254q0 11 -2 11h-75q-10 0 -29 -39zM418 375v-14h-103v14q39 0 42 24l27 282h31l121 -243l118 243h33l30 -289q0 -17 44 -17v-14h-133 v14q13 0 17 4t4 13l-20 179l-100 -210h-18l-109 210l-15 -172q2 -24 31 -24z" />
<glyph unicode="&#x25fc;" horiz-adv-x="460" d="M0 460h460v-460h-460v460z" />
</font>
</defs>
</svg>
