<?xml version="1.0" standalone="no"?>
<!DOCTYPE svg PUBLIC "-//W3C//DTD SVG 1.1//EN" "http://www.w3.org/Graphics/SVG/1.1/DTD/svg11.dtd" >
<svg xmlns="http://www.w3.org/2000/svg">
<metadata></metadata>
<defs>
<font id="byington_rgitalic" horiz-adv-x="518" >
<font-face units-per-em="1000" ascent="752" descent="-248" />
<missing-glyph horiz-adv-x="283" />
<glyph unicode="&#xfb01;" horiz-adv-x="501" d="M349 -11q-27 0 -27 35q0 6 5 23l98 371h-151q-14 0 -17 -12l-88 -405q-23 -103 -84 -182t-149 -79q-39 0 -62 14t-23 39q0 54 44 54q15 0 23 -12.5t19.5 -25t34.5 -12.5q42 0 65 49t46 155l89 409q0 8 -10 8h-59l28 44h37q15 0 21 29q26 125 101.5 190.5t153.5 65.5 q50 0 85 -33.5t35 -66.5q0 -21 -12.5 -36.5t-31.5 -15.5q-22 0 -33.5 15t-15 32.5t-19.5 32.5t-45 15q-49 0 -92 -71.5t-43 -134.5q0 -22 12 -22h243l-91 -325q-12 -27 -12 -49q0 -16 10 -16q13 0 61 45l11 -24q-29 -37 -78 -70.5t-79 -33.5z" />
<glyph unicode="&#xfb02;" horiz-adv-x="550" d="M388 -11q-28 0 -28 39q0 7 3 19l138 575q-36 68 -112 68q-42 0 -65 -42.5t-49 -150.5q-3 -18 -3 -20q0 -15 12 -15h97l-13 -44h-94q-15 0 -17 -12l-88 -405q-14 -65 -42.5 -121t-79 -98t-111.5 -42q-39 0 -62 14t-23 39q0 54 44 54q15 0 23 -12.5t19.5 -25t34.5 -12.5 q41 0 64.5 50t46.5 154l89 409q0 8 -10 8h-59l28 44h37q15 0 21 29q23 111 95 183.5t141 72.5q60 0 88 -40l103 40l-146 -610q-2 -8 -5 -18t-4 -15.5t-1 -9.5q0 -22 10 -22q14 0 62 45l13 -24q-29 -36 -78.5 -70t-78.5 -34z" />
<glyph unicode="&#xfb03;" horiz-adv-x="785" d="M418 747q33 0 50 -15t17 -39q0 -22 -11.5 -37.5t-32.5 -15.5q-16 0 -28 25t-33 25q-35 0 -62 -44.5t-38.5 -91.5t-11.5 -77q0 -15 12 -15h160q14 0 20 29q29 125 103 190.5t152 65.5q49 0 84 -33.5t35 -66.5q0 -21 -11.5 -36.5t-31.5 -15.5q-22 0 -34 15t-15.5 32.5 t-19 32.5t-45.5 15q-48 0 -90.5 -71.5t-42.5 -134.5q0 -22 11 -22h242l-91 -325q-10 -27 -10 -49q0 -16 8 -16q14 0 62 45l11 -24q-28 -36 -77.5 -70t-78.5 -34q-27 0 -27 35q0 8 3 23l100 371h-151q-15 0 -18 -12l-89 -405q-11 -48 -28.5 -91.5t-44 -83t-65.5 -63 t-85 -23.5q-39 0 -62 14t-23 39q0 54 43 54q12 0 19 -8t10.5 -17t14 -17t28.5 -8q22 0 38 13.5t29 45t21 62t20 83.5l88 409q0 8 -9 8h-163q-15 0 -18 -12l-88 -405q-23 -103 -84 -182t-149 -79q-39 0 -61.5 14t-22.5 39q0 54 44 54q11 0 19 -8t12.5 -17t16 -17t29.5 -8 q41 0 64.5 50.5t46.5 153.5l89 405q0 12 -10 12h-60l29 44h36q16 0 22 29q24 113 93 184.5t140 71.5z" />
<glyph unicode="&#xfb04;" horiz-adv-x="793" d="M272 477q0 -15 12 -15h138q16 0 22 29q23 112 95 184t141 72q59 0 87 -40l104 40l-148 -610q-8 -43 -8 -49q0 -16 8 -16q15 0 63 45l12 -24q-27 -36 -76.5 -70t-79.5 -34q-28 0 -28 39q0 8 4 19l138 575q-36 68 -113 68q-42 0 -64.5 -42.5t-48.5 -150.5q-3 -18 -3 -20 q0 -15 12 -15h97l-14 -44h-93q-15 0 -17 -12l-89 -405q-11 -48 -28.5 -91.5t-44.5 -83t-66 -63t-85 -23.5q-39 0 -61.5 14t-22.5 39q0 54 43 54q12 0 19 -8t10 -17t13.5 -17t28.5 -8q38 0 63 52.5t46 151.5l87 409q0 8 -8 8h-143q-14 0 -17 -12l-88 -405 q-22 -100 -90 -180.5t-156 -80.5q-39 0 -64.5 14t-25.5 39q0 23 11 38.5t33 15.5q15 0 24 -12.5t21.5 -25t35.5 -12.5q80 0 125 204l89 405q0 12 -10 12h-59l28 44h37q15 0 21 29q23 112 95.5 184t141.5 72q33 0 50.5 -15t17.5 -39q0 -21 -12 -37t-32 -16q-16 0 -28.5 25 t-32.5 25q-35 0 -63.5 -44.5t-41 -92t-12.5 -76.5z" />
<glyph horiz-adv-x="0" />
<glyph horiz-adv-x="0" />
<glyph horiz-adv-x="333" />
<glyph unicode="&#xd;" horiz-adv-x="283" />
<glyph horiz-adv-x="296" />
<glyph unicode=" "  horiz-adv-x="283" />
<glyph unicode="&#x09;" horiz-adv-x="283" />
<glyph unicode="&#xa0;" horiz-adv-x="283" />
<glyph unicode="!" horiz-adv-x="209" d="M249 693q39 0 53 -29l-13 -62q-79 -188 -131 -430h-38q15 69 31 198.5t21 231.5l14 62q26 29 63 29zM118 101q54 0 54 -53q0 -59 -58 -59t-58 51q0 61 62 61z" />
<glyph unicode="&#x22;" horiz-adv-x="336" d="M248 696q33 0 33 -25q0 -34 -81 -233h-21q9 171 12 189q8 58 39 67q8 2 18 2zM396 696q32 0 32 -25q0 -34 -81 -233h-20q9 173 11 185q8 60 36 70q10 3 22 3z" />
<glyph unicode="#" horiz-adv-x="504" d="M410 270h92l-17 -55h-96l-87 -215h-52l87 215h-114l-82 -215h-57l88 215h-102l17 55h106l47 129h-101l21 55h103l87 215h54l-84 -215h108l89 215h52l-83 -215h87l-19 -55h-95zM358 270l48 129h-109l-52 -129h113z" />
<glyph unicode="$" horiz-adv-x="342" d="M346 710l-15 -69q31 -1 101 -17l-23 -92h-23q-2 45 -16.5 60t-45.5 18l-42 -198q46 -45 63 -70.5t17 -60.5q0 -57 -34.5 -115t-113.5 -79l-23 -107h-32l21 101q-8 -1 -28 -1q-52 0 -106 26l33 106l26 -1l-3 -13q-1 -2 -4 -26q0 -35 19.5 -48t55.5 -13q7 0 15 1l43 208 q-11 13 -31 35t-27 30.5t-17 23t-13 26.5t-3 27q0 74 42.5 121.5t115.5 55.5l16 71h32zM255 437l38 173q-34 -4 -57.5 -30t-23.5 -69q0 -31 43 -74zM257 291l-36 -172q33 13 50 42t17 59q0 34 -31 71z" />
<glyph unicode="%" horiz-adv-x="693" d="M310 701q41 0 60 -36.5t19 -86.5q0 -86 -48 -158.5t-113 -72.5q-42 0 -60 33.5t-18 80.5q0 91 47.5 165.5t112.5 74.5zM292 678q-45 0 -70.5 -69t-25.5 -141q0 -99 44 -99q35 0 59.5 40t33 84.5t8.5 81.5q0 47 -12.5 75t-36.5 28zM686 681h61l-602 -681h-57zM608 336 q41 0 60 -36.5t19 -86.5q0 -86 -48 -158.5t-113 -72.5q-42 0 -60 33.5t-18 80.5q0 91 47.5 165.5t112.5 74.5zM590 313q-45 0 -70.5 -69t-25.5 -141q0 -99 44 -99q35 0 59.5 40t33 84.5t8.5 81.5q0 47 -12.5 75t-36.5 28z" />
<glyph unicode="&#x26;" horiz-adv-x="701" d="M531 347l7 31l126 -15q-35 -139 -118 -225q39 -48 81.5 -73.5t103.5 -33.5l-3 -31h-79q-92 0 -170 73q-128 -85 -229 -85q-169 0 -169 133q0 80 44 154t142 124q-19 37 -19 90q0 98 57.5 148.5t158.5 50.5q65 0 115 -22l-37 -130l-22 -4v14q0 112 -79 112 q-51 0 -82 -33.5t-31 -96.5q0 -128 191 -369q69 90 69 135q0 53 -57 53zM274 366q-47 -22 -74.5 -74t-27.5 -124q0 -117 126 -117q35 0 63 9.5t86 42.5q-116 133 -173 263z" />
<glyph unicode="'" horiz-adv-x="163" d="M232 696q33 0 33 -25q0 -36 -80 -233h-22q9 171 12 189q8 58 39 67q8 2 18 2z" />
<glyph unicode="(" horiz-adv-x="278" d="M386 712l1 -24q-109 -103 -174 -254t-65 -303q0 -140 65 -268l-11 -24q-56 85 -84 161t-28 162q0 158 80.5 299t215.5 251z" />
<glyph unicode=")" horiz-adv-x="277" d="M178 685l14 24q108 -172 108 -325q0 -158 -79 -297t-213 -250l-3 22q110 104 173.5 254t63.5 305q0 145 -64 267z" />
<glyph unicode="*" horiz-adv-x="452" d="M338 709q11 0 21.5 -10.5t10.5 -27.5q0 -19 -14 -58t-14 -62q0 -10 7 -10q12 0 53 52t63 52q13 0 22.5 -9.5t9.5 -22.5q0 -19 -32.5 -39t-64.5 -35t-32 -23t40 -8h19q11 1 33 1q63 0 63 -38q0 -14 -9.5 -24t-25.5 -10q-20 0 -64.5 25t-59.5 25q-7 0 -7 -9q0 -12 35 -57 t35 -63q0 -15 -9.5 -25t-23.5 -10q-19 0 -31 22.5t-15.5 50t-8.5 50t-12 22.5q-11 0 -19.5 -36t-22 -72.5t-36.5 -36.5q-14 0 -23 9.5t-9 25.5q0 21 40.5 68t40.5 52q0 9 -8 9q-12 0 -59.5 -25t-67.5 -25q-15 0 -23.5 9t-8.5 22q0 41 70 41h68q22 0 22 8q0 12 -30.5 26.5 t-61.5 32.5t-31 36q0 14 10.5 23.5t24.5 9.5q19 0 41 -26t39.5 -52t26.5 -26q7 0 7 20q0 19 -8 53t-8 49q0 22 10.5 34t26.5 12z" />
<glyph unicode="+" horiz-adv-x="504" d="M76 293h196v199h71v-199h193v-66h-193v-191h-71v191h-196v66z" />
<glyph unicode="," horiz-adv-x="152" d="M121 119q18 -28 18 -52q0 -35 -105 -155l-13 10q43 64 43 90q0 20 -19 49q24 50 76 58z" />
<glyph unicode="-" horiz-adv-x="323" d="M330 293l-11 -62h-219l12 62h218z" />
<glyph unicode="." horiz-adv-x="203" d="M113 101q55 0 55 -53q0 -59 -58 -59q-59 0 -59 51q0 61 62 61z" />
<glyph unicode="/" horiz-adv-x="327" d="M2 -55l418 751h42l-419 -751h-41z" />
<glyph unicode="0" d="M410 693q77 0 118.5 -62t41.5 -150q0 -114 -43 -228.5t-119.5 -191t-162.5 -76.5q-78 0 -117.5 55t-39.5 137q0 124 42 243t117.5 196t162.5 77zM372 647q-49 0 -87.5 -52t-59 -128.5t-30.5 -147.5t-10 -124q0 -87 19.5 -126.5t65.5 -39.5q52 0 93 50.5t63 124t33 140.5 t11 115q0 90 -22 139t-76 49z" />
<glyph unicode="1" d="M454 705l18 -9q-14 -26 -21 -65l-121 -573q0 -26 83 -26l-5 -32h-270l5 32q101 0 108 30l102 486q0 2 1.5 7.5t1.5 7.5q0 21 -14 21q-4 0 -16 -5l-83 -42l-15 25z" />
<glyph unicode="2" d="M413 692q134 0 134 -118q0 -61 -23 -122t-57 -109.5t-85 -99t-95 -85.5t-99 -74h154q52 0 76.5 14.5t53.5 69.5l25 -5l-70 -163h-301q-45 0 -69 -4l3 27q24 21 74.5 65t80 71t73 69t69.5 76t52.5 75.5t38.5 84t12 85.5q0 88 -94 88q-56 0 -86 -22.5t-53 -88.5l-23 -4 l21 132q54 23 92 30.5t96 7.5z" />
<glyph unicode="3" d="M391 693q145 0 145 -100q0 -120 -144 -195v-8q104 -32 104 -128q0 -128 -80 -202t-200 -74q-143 0 -143 26l40 152l24 -2q-3 -11 -3 -35q0 -97 68 -97q88 0 141.5 48.5t53.5 140.5q0 105 -115 135l6 36q70 0 118 48t48 129q0 77 -89 77q-97 0 -122 -107l-22 3l17 112 q67 41 153 41z" />
<glyph unicode="4" d="M537 693l-90 -420q0 -11 7 -11h49q20 0 40 8l-31 -75h-75q-6 0 -7 -10l-30 -138q0 -15 69 -15l-5 -32h-226l6 32q74 0 79 15l29 138q0 10 -8 10h-261l-3 31l429 470zM431 559l-272 -297h201q10 0 10 11z" />
<glyph unicode="5" d="M288 681h204q32 0 81 7l-38 -138l-25 -5q4 19 4 43q0 27 -11.5 36.5t-41.5 9.5h-143l-41 -143q97 -20 154 -72.5t57 -130.5q0 -120 -88 -211.5t-226 -91.5q-54 0 -92 19l39 154h19q0 -2 -1.5 -16.5t-1.5 -23.5q0 -95 79 -95q65 0 122.5 57.5t57.5 158.5q0 70 -49 115.5 t-129 62.5l-5 8z" />
<glyph unicode="6" d="M375 399q61 0 100 -38t39 -100q0 -123 -75.5 -199.5t-173.5 -76.5q-88 0 -128.5 41t-40.5 122q0 103 45.5 204.5t112 172.5t137.5 118.5t127 58.5v-37q-24 -9 -61 -33.5t-85 -70.5t-89 -102t-69 -135.5t-28 -162.5q0 -134 87 -134q61 0 107 63.5t46 150.5q0 55 -26.5 83 t-72.5 28q-35 0 -59 -15l-3 30q37 32 110 32z" />
<glyph unicode="7" d="M319 681h271l3 -32q-88 -106 -187 -285.5t-157 -332.5l-91 -54l-21 15q60 150 158.5 311.5t207.5 295.5h-229q-35 0 -84 -94l-18 11l56 169q24 -4 91 -4z" />
<glyph unicode="8" d="M412 693q59 0 95.5 -26t36.5 -79q0 -72 -43 -126t-101 -79q101 -57 101 -152q0 -113 -77 -179.5t-173 -66.5q-71 0 -115.5 35.5t-44.5 101.5q0 91 54.5 153.5t119.5 86.5q-26 23 -38 36t-23 37.5t-11 53.5q0 33 14 68t40 66t69 50.5t96 19.5zM266 16q50 0 97 57.5 t47 114.5q0 21 -5.5 38t-20.5 34t-22.5 24.5t-31 25.5t-27.5 21q-52 -14 -99.5 -76t-47.5 -120q0 -53 29.5 -86t80.5 -33zM397 651q-57 0 -90 -30.5t-33 -88.5q0 -41 27 -77t64 -51q112 60 112 158q0 89 -80 89z" />
<glyph unicode="9" d="M287 297q-54 0 -92 39.5t-38 105.5q0 119 77.5 185.5t168.5 66.5q84 0 122.5 -39.5t38.5 -117.5q0 -105 -43.5 -207t-108.5 -174t-135.5 -120t-127.5 -59v35q25 9 62 34.5t84 73.5t86.5 106t66.5 140t27 168q0 117 -80 117q-65 0 -109 -49t-44 -142q0 -55 25 -85.5 t62 -30.5q35 0 78 26l7 -24q-20 -18 -55 -33.5t-72 -15.5z" />
<glyph unicode=":" horiz-adv-x="211" d="M122 101q54 0 54 -53q0 -59 -57 -59q-58 0 -58 51q0 61 61 61zM182 429q54 0 54 -51q0 -61 -58 -61q-57 0 -57 51q0 61 61 61z" />
<glyph unicode=";" horiz-adv-x="184" d="M130 119q18 -24 18 -54q0 -36 -104 -153l-13 10q42 61 42 89q0 22 -19 50q26 50 76 58zM181 429q55 0 55 -51q0 -61 -59 -61q-57 0 -57 51q0 61 61 61z" />
<glyph unicode="&#x3c;" horiz-adv-x="363" d="M64 240l6 34l352 166l-13 -58l-268 -124l216 -124l-12 -60z" />
<glyph unicode="=" horiz-adv-x="514" d="M508 371l-3 -62h-383l2 62h384zM502 215l-2 -63h-384l3 63h383z" />
<glyph unicode="&#x3e;" horiz-adv-x="386" d="M409 274l-6 -34l-354 -166l15 59l269 124l-218 124l13 59z" />
<glyph unicode="?" horiz-adv-x="380" d="M324 688q56 0 94 -28.5t38 -78.5q0 -47 -23 -90.5t-50 -69.5t-68 -61t-57 -53q-50 -54 -50 -96q0 -28 17 -50l-30 -24q-17 7 -32 29.5t-15 49.5q0 42 25 78t76 80.5t64 58.5q64 70 64 136q0 37 -17.5 56.5t-46.5 19.5q-56 0 -87 -24t-48 -91l-29 -6l23 129q51 35 152 35z M178 101q55 0 55 -53q0 -59 -59 -59q-57 0 -57 51q0 61 61 61z" />
<glyph unicode="@" horiz-adv-x="746" d="M547 681q108 0 166.5 -55.5t58.5 -153.5q0 -149 -75.5 -233.5t-169.5 -84.5q-49 0 -49 43q0 15 9 40q-60 -79 -123 -79q-85 0 -85 94q4 63 26.5 114.5t54.5 82.5t67.5 47t69.5 16q37 0 52.5 -17t15.5 -53l31 59h57l-120 -249l-4 -31q0 -40 20 -40q55 0 117 81.5t62 196.5 q0 81 -47.5 126.5t-141.5 45.5q-62 0 -123.5 -24.5t-114 -70.5t-85.5 -120.5t-33 -165.5q0 -105 61.5 -159.5t165.5 -54.5q58 0 119.5 22.5t110.5 62.5l15 -27q-47 -49 -117.5 -77.5t-146.5 -28.5q-119 0 -189 62.5t-70 180.5q0 101 34 186.5t91 142.5t132.5 89t157.5 32z M489 481q-48 0 -94.5 -75t-46.5 -162q0 -27 10.5 -41t27.5 -14q37 0 102 98l53 120q3 9 3 21q0 53 -55 53z" />
<glyph unicode="A" horiz-adv-x="667" d="M470 696l23 -4l90 -618q1 -5 2.5 -9.5t4.5 -8t5 -6t7 -5l7 -3.5t9 -3t9 -2.5t10.5 -2.5t10.5 -2l-5 -32h-189l6 32q23 0 23 41q0 11 -1 16l-15 126q-3 27 -52 27h-138q-36 0 -47 -27l-56 -105q-9 -20 -9 -40q0 -34 40 -34l-7 -36h-176l8 36q53 3 93 74zM423 552 l-125 -215q-16 -23 -19 -35q0 -16 32 -16h116q20 0 25 3.5t5 15.5q0 4 -2 28z" />
<glyph unicode="B" horiz-adv-x="498" d="M373 641q-41 0 -44 -13l-46 -223q-2 -2 -2 -6q0 -8 8 -8q89 0 122.5 30t33.5 129q0 44 -19 67.5t-53 23.5zM189 681h207q62 0 96.5 -31.5t34.5 -84.5q0 -66 -32 -114t-88 -68v-3q52 -11 84 -49.5t32 -93.5q0 -96 -72 -168.5t-168 -72.5q-89 0 -180 4h-53l6 32q54 0 59 14 l121 581q0 22 -53 22zM305 352h-24q-10 0 -13 -14l-55 -260q-1 -1 -1 -8q0 -34 53 -34h22q136 0 136 181q0 61 -28 98t-90 37z" />
<glyph unicode="C" horiz-adv-x="667" d="M549 693q72 0 207 -29l-45 -167h-23v22q0 74 -34 104t-130 30q-98 0 -168.5 -55.5t-104.5 -146t-34 -203.5q0 -101 46.5 -158.5t139.5 -57.5q83 0 134.5 35t90.5 101l25 -11l-59 -145q-98 -27 -205 -27q-132 0 -203.5 77t-71.5 199q0 188 117.5 307.5t317.5 124.5z" />
<glyph unicode="D" horiz-adv-x="717" d="M483 685q127 0 196.5 -71.5t69.5 -190.5q0 -196 -118.5 -309.5t-291.5 -113.5h-290l6 32q55 0 67 48l109 517q2 12 2 14q0 38 -50 38l6 32q20 -4 47 -4q38 0 122 4t125 4zM466 641h-77q-36 0 -49 -10.5t-22 -51.5l-97 -462q-5 -25 -5 -36q0 -28 14.5 -35t55.5 -7h68 q130 0 210.5 108t80.5 273q0 107 -46 164t-133 57z" />
<glyph unicode="E" horiz-adv-x="511" d="M183 649l7 32h336q34 0 57 9l5 -10l-23 -123h-25q2 12 2 14q0 31 -21.5 48.5t-54.5 17.5h-116q-21 0 -25 -24l-42 -200l-1 -10q0 -21 16 -21h148q25 0 55 32h21l-29 -141h-23q0 65 -50 65h-131q-22 0 -26 -22l-55 -254q0 -19 18 -19h93q101 0 147 85l22 -8l-39 -120h-396 l6 32q53 0 57 21l119 562q0 34 -52 34z" />
<glyph unicode="F" horiz-adv-x="483" d="M260 0h-203l6 32q49 0 56 36l117 553q0 16 -12.5 22t-40.5 6l7 32h353q33 0 56 9l5 -10l-40 -123h-26q3 12 3 22q0 58 -59 58h-132q-21 0 -25 -24l-42 -200q-1 -2 -1 -13q0 -18 16 -18h149q37 0 58 32h21l-43 -141h-24q0 65 -42 65h-128q-22 0 -26 -22l-53 -248v-10 q0 -26 56 -26z" />
<glyph unicode="G" horiz-adv-x="714" d="M551 693q73 0 208 -29l-45 -167h-24v30q0 68 -35 97t-128 29q-137 0 -221 -99.5t-84 -247.5q0 -119 62 -197.5t161 -78.5q84 0 106 30l47 225q0 21 -66 21l7 31h208l-7 -31q-52 0 -53 -24l-51 -237q-95 -60 -244 -60q-131 0 -202 86.5t-71 232.5q0 78 28 147.5t81 123.5 t136.5 86t186.5 32z" />
<glyph unicode="H" horiz-adv-x="724" d="M257 32l-5 -32h-205l4 32q64 0 70 24l115 559q0 34 -53 34l6 32h206l-6 -32q-53 0 -62 -44l-40 -198q0 -9 11 -9h307q14 0 17 13l42 204q0 34 -51 34l8 32h201l-7 -32q-49 0 -61 -44l-114 -549q0 -13 9 -18.5t36 -5.5l-6 -32h-202l6 32q61 0 64 24l60 288q0 16 -10 16 h-306q-14 0 -19 -16l-61 -292q0 -20 46 -20z" />
<glyph unicode="I" horiz-adv-x="297" d="M257 32l-5 -32h-202l5 32q57 0 63 24l116 559q0 34 -51 34l6 32h203l-7 -32q-53 0 -62 -44l-116 -552q0 -21 50 -21z" />
<glyph unicode="J" horiz-adv-x="299" d="M398 681l-6 -32q-54 0 -63 -44l-107 -511q-16 -74 -38 -125.5t-55.5 -89t-65.5 -61t-87 -55.5l-5 37q111 71 154 274l113 541q0 34 -53 34l6 32h207z" />
<glyph unicode="K" horiz-adv-x="671" d="M268 32l-5 -32h-210l6 32q51 0 57 24l119 564q0 29 -52 29l6 32h206l-6 -32q-58 0 -64 -29l-53 -251l217 207q56 52 57 64q0 8 -12 9l8 32h179l-6 -32q-46 -10 -78.5 -26t-79.5 -57l-209 -184l180 -265q58 -85 140 -85l-6 -32q-113 0 -157 15.5t-85 82.5l-153 249 l-61 -294q0 -21 62 -21z" />
<glyph unicode="L" horiz-adv-x="462" d="M393 681l-7 -32q-54 0 -60 -33l-116 -556q0 -17 57 -17h25q63 0 93 18.5t60 70.5l24 -5l-44 -127h-367l5 32q47 0 56 30l117 560q0 27 -53 27l6 32h204z" />
<glyph unicode="M" horiz-adv-x="889" d="M229 32l-5 -32h-187l5 32q75 0 91 53l178 596h27l123 -547l363 547h31l-73 -619q0 -30 77 -30l-5 -32h-219l5 32q41 0 47 36l58 408l-307 -476h-30l-114 467l-116 -400q0 -35 51 -35z" />
<glyph unicode="N" horiz-adv-x="750" d="M241 32l-5 -32h-189l4 32q62 0 71 38l128 611h36l340 -540l97 471q0 37 -75 37l8 32h193l-5 -32q-69 0 -78 -44l-128 -609l-24 -9l-346 540l-98 -463q0 -32 71 -32z" />
<glyph unicode="O" horiz-adv-x="776" d="M524 658q-131 0 -215.5 -116.5t-84.5 -284.5q0 -103 42.5 -168.5t130.5 -65.5q133 0 217 116.5t84 280.5q0 107 -45.5 172.5t-128.5 65.5zM531 693q125 0 200 -79.5t75 -201.5q0 -179 -123.5 -303t-302.5 -124q-132 0 -198.5 80.5t-66.5 199.5q0 78 28.5 153.5t79.5 137 t131.5 99.5t176.5 38z" />
<glyph unicode="P" horiz-adv-x="511" d="M266 32l-5 -32h-211l5 32q62 0 68 29l116 556q0 32 -56 32l6 32h131q44 0 73 2t46 2q64 0 100 -45t36 -125q0 -55 -26 -98.5t-67.5 -69t-87 -38.5t-89.5 -13q-9 0 -16 1l8 39q30 0 52.5 2.5t49 13.5t43.5 30t28.5 54.5t11.5 84.5q0 128 -85 128h-21q-39 0 -45 -31 l-118 -560q0 -26 53 -26z" />
<glyph unicode="Q" horiz-adv-x="776" d="M532 693q127 0 201.5 -71t74.5 -190q0 -117 -58 -220t-154 -165q129 -91 230.5 -136.5t214.5 -45.5q88 0 188 32l6 -38q-132 -49 -263 -49q-242 0 -455 198q-66 -23 -136 -23q-132 0 -199 80t-67 198q0 78 28 153.5t79 137.5t132 100.5t178 38.5zM516 658 q-127 0 -209.5 -110t-82.5 -275q0 -107 47.5 -178.5t138.5 -71.5q130 0 209.5 120.5t79.5 286.5q0 104 -49 166t-134 62z" />
<glyph unicode="R" horiz-adv-x="669" d="M403 641h-45q-35 0 -39 -22l-59 -275q0 -11 21.5 -18.5t57.5 -7.5q60 0 102.5 61.5t42.5 142.5q0 58 -22 88.5t-59 30.5zM183 649l6 32h77q40 0 92.5 2.5t96.5 2.5q64 0 100 -39t36 -113q0 -133 -158 -225q20 -19 48 -70t51.5 -96t62 -81.5t81.5 -36.5l-4 -26h-61 q-65 0 -104 17t-62 71q-5 12 -42 89t-40 85q-5 13 -10 17.5t-16 4.5h-70q-19 0 -21 -12l-44 -209q0 -17 16.5 -23.5t60.5 -6.5l-5 -32h-220l5 32q39 0 48 30l117 563q0 24 -41 24z" />
<glyph unicode="S" horiz-adv-x="441" d="M391 696q41 0 123 -21l-12 -117h-28q-8 58 -34.5 79t-72.5 21q-49 0 -81.5 -33t-32.5 -95q0 -25 19.5 -55.5t46.5 -61t54.5 -63t47 -70.5t19.5 -75q0 -31 -14.5 -66t-43.5 -71t-84 -59.5t-125 -23.5q-60 0 -124 32l24 136l29 -3v-30q0 -97 97 -97q64 0 100 44.5t36 95.5 q0 37 -18 74.5t-43.5 68t-50.5 61t-43 65t-18 67.5q0 96 64.5 146.5t164.5 50.5z" />
<glyph unicode="T" horiz-adv-x="610" d="M186 555l-28 7l50 126q49 -7 76 -7h357q32 0 81 7l-26 -133l-24 -4v6q0 35 -15.5 56t-47.5 21h-95q-21 0 -25 -18l-114 -545q-1 -1 -1 -6v-3q0 -30 57 -30l-6 -32h-214l5 32q58 0 67 39l115 551q0 15 -18 15h-111q-27 0 -83 -82z" />
<glyph unicode="U" horiz-adv-x="684" d="M189 681h204l-7 -32q-52 0 -57 -29l-69 -326q-16 -72 -16 -117q0 -67 28.5 -106t103.5 -39q185 0 243 281l62 300q0 36 -68 36l7 32h183l-6 -32q-66 0 -75 -44l-54 -268q-38 -179 -111.5 -265.5t-203.5 -86.5q-197 0 -197 198q0 57 12 104l69 333q0 29 -56 29z" />
<glyph unicode="V" horiz-adv-x="698" d="M168 649l5 32h216l-8 -32h-11q-28 0 -30 -42q0 -14 2 -24l51 -462l263 462q15 27 15 38q0 28 -35 28l7 32h181l-6 -32h-39q-27 0 -46 -33l-374 -631l-30 7l-92 607q-7 50 -69 50z" />
<glyph unicode="W" horiz-adv-x="1001" d="M920 649l6 32h188l-7 -32q-66 0 -93 -52l-305 -597h-26l-74 497l-283 -497h-30l-46 613q-3 36 -74 36l7 32h219l-6 -32q-45 0 -49 -25l25 -440l278 497h29l69 -497l217 413q6 15 6 24q0 28 -51 28z" />
<glyph unicode="X" horiz-adv-x="595" d="M200 32l-4 -32h-177l4 32q67 0 122 74l181 243l-89 260q-14 40 -76 40l7 32h211l-6 -32q-30 0 -30 -35q0 -10 3 -19l47 -184l150 194q12 19 13 27q-2 17 -33 17l7 32h172l-7 -32q-49 0 -83 -38l-196 -239l113 -310q11 -30 55 -30l-5 -32h-192l5 32q19 0 19 21q0 9 -5 41 l-60 204l-150 -200q-18 -23 -18 -45q0 -21 22 -21z" />
<glyph unicode="Y" horiz-adv-x="621" d="M172 681h179l-6 -32q-20 0 -20 -21q2 -24 6 -38l71 -252l170 237q30 38 30 56t-30 18l7 32h169l-6 -32q-34 0 -53.5 -8.5t-34.5 -29.5l-192 -256q-27 -36 -52 -135l-31 -142q-2 -14 -2 -16q0 -30 51 -30l-5 -32h-210l5 32q59 0 68 45l29 140q9 43 9 72q0 26 -10 56 l-72 218q-16 49 -33.5 67.5t-43.5 18.5z" />
<glyph unicode="Z" horiz-adv-x="544" d="M186 534l-23 3l54 151q46 -7 70 -7h352l3 -22l-484 -620h190q54 0 90 15.5t52.5 35.5t32.5 55l24 -8l-53 -137h-452l1 23l480 614h-154q-67 0 -112 -21t-71 -82z" />
<glyph unicode="[" horiz-adv-x="205" d="M246 695l-162 -759h62l-4 -22h-116l170 798h115l-4 -17h-61z" />
<glyph unicode="\" horiz-adv-x="386" d="M311 -55l-150 755h56l144 -755h-50z" />
<glyph unicode="]" horiz-adv-x="206" d="M92 -64l160 759h-61l3 17h116l-169 -798h-116l6 22h61z" />
<glyph unicode="^" horiz-adv-x="419" d="M282 681h35l153 -352h-59l-114 270l-134 -270h-60z" />
<glyph unicode="_" horiz-adv-x="476" d="M470 -59l-2 -54h-463l2 54h463z" />
<glyph unicode="`" horiz-adv-x="223" d="M153 638q13 0 34.5 -20.5t52.5 -53t53 -49.5l-12 -16q-20 12 -65 34t-70 38.5t-25 33.5q0 33 32 33z" />
<glyph unicode="a" horiz-adv-x="535" d="M209 55q27 0 89 66.5t96 129.5l32 158q-21 21 -59 21q-53 0 -99 -58.5t-68.5 -130.5t-22.5 -128q0 -27 4 -40t9.5 -15.5t18.5 -2.5zM151 -12q-15 0 -25.5 3.5t-22 13.5t-17.5 32.5t-6 57.5q0 72 30.5 143t77.5 122t106.5 83t115.5 32q31 0 59.5 -12t49.5 -12l-65 -314 q-7 -24 -7 -50q0 -15 7 -15q12 0 60 45l12 -24q-26 -36 -73.5 -70t-77.5 -34q-28 0 -28 35q0 14 2 23l23 110q-44 -62 -107 -115.5t-114 -53.5z" />
<glyph unicode="b" horiz-adv-x="528" d="M396 475q66 0 103.5 -43.5t37.5 -115.5q0 -135 -84 -231.5t-219 -96.5q-75 0 -139 34l121 570q5 23 5 36q0 55 -48 55l6 29l154 35l-66 -315q61 43 129 43zM357 418q-58 0 -105 -38l-58 -275q0 -30 21 -51t60 -21q66 0 118.5 69.5t52.5 174.5q0 141 -89 141z" />
<glyph unicode="c" horiz-adv-x="455" d="M376 473q104 0 104 -53q0 -22 -17 -38t-29 -16q-13 0 -21 9t-13 20t-19 20t-37 9q-48 0 -85 -42.5t-53.5 -97t-16.5 -106.5q0 -118 109 -118q37 0 63.5 13.5t54.5 47.5l23 -17q-32 -58 -87.5 -87t-111.5 -29q-73 0 -111.5 40.5t-38.5 113.5q0 126 88.5 228.5t197.5 102.5 z" />
<glyph unicode="d" horiz-adv-x="553" d="M152 -12q-15 0 -25.5 3.5t-22.5 13.5t-18 32.5t-6 57.5q0 147 99 263.5t216 116.5q22 0 54 -17l40 191q0 34 -69 34l5 34l174 30l-128 -610q-10 -39 -11 -51q0 -15 8 -15q11 0 63 46l13 -24q-30 -37 -76.5 -70.5t-75.5 -33.5q-28 0 -28 38q0 4 1.5 10.5t1.5 9.5l21 106 q-43 -55 -113.5 -110t-122.5 -55zM210 55q29 0 98.5 68t99.5 125l26 121q-17 61 -88 61q-41 0 -74.5 -35t-53.5 -86.5t-30.5 -103.5t-10.5 -93q0 -38 7 -47.5t26 -9.5z" />
<glyph unicode="e" horiz-adv-x="448" d="M350 475q122 0 122 -90q0 -13 -2 -23t-17.5 -31t-42.5 -40t-84 -45t-137 -51q0 -69 28.5 -104.5t80.5 -35.5q33 0 67 18.5t56 42.5l19 -17q-45 -56 -86.5 -83.5t-96.5 -27.5q-82 0 -123.5 47t-41.5 124q0 121 79 218.5t179 97.5zM339 436q-59 0 -101 -63.5t-46 -140.5 q41 15 70 27.5t62 31t50 39.5t17 44q0 62 -52 62z" />
<glyph unicode="f" horiz-adv-x="291" d="M425 747q34 0 51 -15t17 -39q0 -21 -12 -37t-32 -16q-16 0 -28 25t-32 25q-35 0 -63.5 -44.5t-41 -92t-12.5 -76.5q0 -15 12 -15h97l-13 -44h-94q-14 0 -17 -12l-88 -405q-23 -103 -84 -182t-149 -79q-39 0 -62 14t-23 39q0 54 44 54q15 0 23 -12.5t19.5 -25t34.5 -12.5 q42 0 65 49.5t46 154.5l89 405q0 12 -10 12h-59l28 44h37q15 0 21 29q23 112 95 184t141 72z" />
<glyph unicode="g" horiz-adv-x="458" d="M344 474q50 0 93 -41l110 30l8 -15l-40 -55l-56 -5q8 -16 8 -51q0 -50 -25.5 -96.5t-83 -82t-135.5 -41.5q-22 -16 -22 -30q0 -18 23.5 -34t135.5 -79q66 -38 66 -83q0 -63 -79 -110t-185 -47q-73 0 -123.5 30t-50.5 73q0 73 173 160q-44 27 -44 57q0 32 59 79 q-58 39 -58 112q0 88 65 158.5t161 70.5zM331 438q-49 0 -89 -56.5t-40 -128.5q0 -91 66 -91q43 0 81 58.5t38 138.5q0 79 -56 79zM191 -21q-52 -18 -84.5 -55t-32.5 -60q0 -35 39 -59t95 -24q38 0 65.5 8t40.5 20t18.5 22.5t5.5 20.5q0 26 -47 65t-100 62z" />
<glyph unicode="h" horiz-adv-x="528" d="M472 475q17 0 29 -16.5t12 -46.5q0 -25 -23 -115l-42 -160q-9 -32 -9 -51q0 -14 8 -14q12 0 60 45l12 -24q-28 -36 -77.5 -70t-79.5 -34q-26 0 -26 31q0 18 4 27l63 232q23 84 23 105q0 26 -19 26q-51 0 -209 -183l-60 -218l-85 -27l163 631q4 11 4 25q0 45 -47 45l7 29 l157 35l-130 -468q166 196 265 196z" />
<glyph unicode="i" horiz-adv-x="293" d="M127 -11q-26 0 -26 31q0 14 4 27l85 325q2 8 2 9q0 7 -6 7q-13 0 -61 -45l-12 24q29 36 78.5 70.5t78.5 34.5q27 0 27 -35q0 -11 -4 -24l-79 -276q-11 -37 -11 -50q0 -15 9 -15q14 0 60 45l12 -24q-29 -37 -78 -70.5t-79 -33.5zM292 682q47 0 47 -50q0 -57 -52 -57 q-50 0 -50 51q0 56 55 56z" />
<glyph unicode="j" horiz-adv-x="240" d="M-27 -189q78 0 120 167l102 401q0 9 -6 9q-14 0 -62 -45l-12 24q32 38 80 71.5t77 33.5q26 0 26 -35q0 -16 -2 -24l-74 -276q-52 -193 -128.5 -297.5t-130.5 -104.5q-34 0 -34 37q0 39 44 39zM282 682q47 0 47 -50q0 -57 -52 -57q-50 0 -50 51q0 56 55 56z" />
<glyph unicode="k" horiz-adv-x="503" d="M337 747l-129 -475q96 105 160 153t117 48q41 0 41 -43q0 -21 -11 -33.5t-30 -12.5q-12 0 -24.5 7t-26.5 7q-42 0 -72 -20.5t-71 -65.5q28 -88 70 -172.5t65 -84.5q10 0 30 19t37 41l14 -27q-37 -47 -73.5 -75t-52.5 -28q-77 0 -142 267l-50 -54l-51 -189l-85 -27 l163 631q4 11 4 25q0 45 -47 45l7 29z" />
<glyph unicode="l" horiz-adv-x="252" d="M100 -11q-28 0 -28 39q0 6 3 21l137 564q4 13 4 25q0 45 -48 45l5 29l156 35l-147 -610q-9 -36 -9 -47q0 -18 9 -18q15 0 63 45l12 -24q-29 -37 -78 -70.5t-79 -33.5z" />
<glyph unicode="m" horiz-adv-x="802" d="M748 475q15 0 27 -16.5t12 -46.5q0 -31 -21 -115l-41 -160q-8 -32 -8 -49q0 -16 6 -16q11 0 59 45l11 -24q-26 -36 -75.5 -70t-77.5 -34q-25 0 -25 31q0 16 4 27l60 232q23 90 23 105q0 26 -19 26q-48 0 -199 -213l-45 -183l-93 -26l83 291q23 83 23 105q0 26 -19 26 q-49 0 -206 -204l-54 -197l-82 -27l94 361q4 11 4 29q0 16 -7 16q-14 0 -57 -45l-12 24q30 38 74 71.5t73 33.5q22 0 22 -30q0 -43 -40 -169q160 202 257 202q14 0 24 -16.5t10 -45.5q0 -39 -26 -126q152 188 241 188z" />
<glyph unicode="n" horiz-adv-x="568" d="M512 475q16 0 28 -16.5t12 -46.5q0 -29 -22 -115l-42 -160q-9 -35 -9 -50t7 -15q14 0 61 45l12 -24q-29 -37 -78.5 -70.5t-78.5 -33.5q-26 0 -26 31q0 16 3 27l64 232q23 84 24 105q0 26 -20 26q-50 0 -216 -204l-57 -197l-83 -27l98 361q6 20 6 31q0 14 -8 14 q-13 0 -61 -45l-13 24q33 39 77.5 72t74.5 33q13 0 17.5 -6.5t4.5 -23.5q0 -35 -41 -169q168 202 266 202z" />
<glyph unicode="o" horiz-adv-x="522" d="M373 474q72 0 112 -47t40 -122q0 -73 -26.5 -136.5t-67.5 -104t-89 -63.5t-93 -23q-74 0 -115.5 47t-41.5 122q0 71 26.5 134.5t68 104.5t90.5 64.5t96 23.5zM265 23q41 0 73.5 23t50.5 57t29.5 77t15 77t3.5 64q0 114 -76 114q-44 0 -78 -24.5t-52 -59t-29.5 -79 t-14.5 -77.5t-3 -62q0 -110 81 -110z" />
<glyph unicode="p" horiz-adv-x="536" d="M400 474q72 0 109.5 -33.5t37.5 -112.5q0 -135 -91 -238t-224 -103q-27 0 -42 11l-44 -182q0 -33 75 -33l-9 -31h-223l9 31q50 0 59 34l144 578q-31 -9 -94 -45l-8 33q63 35 103 51l18 54l106 59l-29 -87q44 14 103 14zM348 423q-26 0 -61 -6l-82 -356q3 -2 9 -10 t15.5 -13t25.5 -5q52 0 99 44t73.5 109.5t26.5 131.5q0 105 -106 105z" />
<glyph unicode="q" horiz-adv-x="502" d="M425 475q77 0 113 -31l-139 -597q-2 -8 -2 -31q0 -33 50 -33l-7 -31h-224l6 31q75 0 92 64l78 314q-141 -173 -240 -173q-75 0 -75 87q0 76 22.5 142.5t59.5 112.5t83 79.5t93 49.5t90 16zM366 427q-65 0 -131 -88t-66 -211q0 -32 5 -48t11 -18.5t19 -2.5q46 0 108 63 t92 115l41 168q-27 22 -79 22z" />
<glyph unicode="r" horiz-adv-x="400" d="M254 472q14 0 19 -6.5t5 -24.5q0 -50 -26 -129q39 67 86.5 116.5t84.5 49.5q44 0 44 -49q0 -29 -14.5 -47t-35.5 -18q-16 0 -27 11.5t-27 11.5q-17 0 -46.5 -37t-80.5 -120l-54 -221l-84 -27l91 361q5 18 5 31q0 14 -9 14q-19 0 -66 -45l-12 24q35 41 76 73t71 32z" />
<glyph unicode="s" horiz-adv-x="371" d="M322 473q44 0 59.5 -20.5t15.5 -42.5q0 -16 -11.5 -30.5t-24.5 -14.5q-17 0 -26.5 9t-14 20.5t-16.5 20.5t-33 9q-24 0 -44.5 -14.5t-20.5 -49.5q0 -22 15.5 -42.5t38 -37.5t45 -35t38 -42t15.5 -52q0 -65 -65 -114t-131 -49q-53 0 -81 25.5t-28 49.5q0 23 17 37t27 14 q15 0 23.5 -12t12.5 -26.5t22 -26.5t49 -12q35 0 56 18.5t21 56.5q0 24 -15.5 43.5t-37.5 34.5t-44 31t-37.5 39.5t-15.5 51.5q0 67 58 114t133 47z" />
<glyph unicode="t" horiz-adv-x="330" d="M136 -11q-16 0 -26.5 11.5t-10.5 31.5q0 6 3 15l93 371h-74l23 44h61l29 98l73 62l26 -13l-41 -147h69q23 0 47 8l-36 -47l-92 -4l-72 -282q-9 -39 -9 -47q0 -23 14 -23t38 14t44 36l12 -24q-29 -37 -82 -70.5t-89 -33.5z" />
<glyph unicode="u" horiz-adv-x="557" d="M158 -18q-16 0 -27.5 15.5t-11.5 43.5q0 31 22 119l41 159q10 29 10 43q0 22 -7 22q-12 0 -61 -46l-12 25q28 37 77.5 70.5t79.5 33.5q26 0 26 -30q0 -17 -3 -27l-65 -232q-22 -88 -22 -106q0 -25 19 -25q26 0 71.5 47t133.5 157l57 196l84 28l-99 -362q-4 -16 -4 -30 q0 -15 6 -15q11 0 61 45l13 -25q-31 -38 -76 -70.5t-75 -32.5q-13 0 -18 6t-5 23q0 34 42 170q-87 -104 -148 -153t-109 -49z" />
<glyph unicode="v" horiz-adv-x="473" d="M223 472q18 0 30 -14.5t13 -44.5l6 -318q168 208 168 287q0 12 -6.5 23.5t-6.5 20.5q0 20 16 32t34 12q44 0 44 -48q0 -41 -36 -98.5t-169 -228.5l-83 -107l-39 -10l-17 392q-1 19 -9 19q-20 0 -50 -43l-17 21q18 37 55.5 71t66.5 34z" />
<glyph unicode="w" horiz-adv-x="721" d="M229 472q17 0 29 -14.5t13 -44.5l5 -281l196 330h29l18 -368l1 1q168 209 168 283q0 14 -6.5 26t-6.5 20q0 21 15.5 33.5t34.5 12.5q44 0 44 -48q0 -40 -38 -101.5t-167 -225.5l-88 -112l-29 -5l-17 334l-208 -329l-24 -5l-14 392q-3 19 -11 19q-18 0 -49 -43l-17 21 q17 37 55 71t67 34z" />
<glyph unicode="x" horiz-adv-x="511" d="M389 -11q-42 0 -61 58l-45 134q-71 -110 -110.5 -150.5t-91.5 -40.5q-11 0 -25.5 13t-14.5 30q0 20 10.5 35t22.5 15q13 0 24.5 -11.5t22.5 -11.5q25 0 51.5 28.5t91.5 117.5q5 7 8 11l-45 157q-6 18 -22 18q-13 0 -31 -16.5t-26 -32.5l-26 24q23 40 61.5 72.5t66.5 32.5 q33 0 49 -59l32 -115q61 93 102 133.5t85 40.5q11 0 26.5 -13t15.5 -30q0 -21 -10.5 -35t-24.5 -14q-13 0 -24 11t-22 11q-20 0 -58 -39t-79 -100l39 -126q21 -68 50 -68q23 0 59 48l26 -24q-19 -31 -59.5 -67.5t-67.5 -36.5z" />
<glyph unicode="y" horiz-adv-x="472" d="M232 472q15 0 27.5 -15t13.5 -44l11 -317q61 76 108 158t47 128q0 12 -6.5 23.5t-6.5 20.5q0 20 16 32t34 12q44 0 44 -48q0 -43 -36 -106t-159 -228q-129 -172 -189 -246t-80.5 -91t-41.5 -17q-41 0 -41 33q0 38 47 56q29 11 88 59.5t97 109.5l-19 378q-1 19 -11 19 q-19 0 -49 -43l-17 21q20 38 56.5 71.5t66.5 33.5z" />
<glyph unicode="z" horiz-adv-x="457" d="M449 154l24 -12q-38 -77 -75 -121t-81 -44q-40 0 -71 16.5t-58 32.5t-57 16q-41 0 -66 -51l-16 19q14 48 53 85l309 303q-33 -10 -67 -10q-22 0 -54.5 6t-41.5 6q-31 0 -57 -19.5t-52 -71.5l-28 14q9 32 23 61t42 55.5t61 26.5q43 0 98.5 -10.5t72.5 -10.5q59 0 87 41 l32 -26l-362 -363q9 4 22 4q27 0 72 -25t62 -25q36 0 65 25t63 78z" />
<glyph unicode="{" horiz-adv-x="207" d="M179 277l-59 -279q4 -48 49 -62l-5 -22q-61 4 -104 49l61 295l-36 54l58 53l59 276q49 58 131 71l-4 -17q-37 -9 -72 -44l-63 -304l-38 -35z" />
<glyph unicode="|" horiz-adv-x="235" d="M208 739v-849q0 -11 -25 -11q-28 0 -28 11v849q0 12 24 12q29 0 29 -12z" />
<glyph unicode="}" horiz-adv-x="207" d="M159 350l59 278q-4 45 -48 62l3 22q61 -4 107 -50l-63 -295l36 -53l-58 -53l-59 -276q-46 -55 -130 -71l4 16q36 11 70 45l64 304l39 35z" />
<glyph unicode="~" horiz-adv-x="511" d="M103 188l-17 20q16 58 55.5 95t80.5 37q37 0 64 -15.5t40.5 -33.5t34.5 -33.5t47 -15.5q57 0 104 95l21 -19q-16 -62 -53.5 -100t-87.5 -38q-25 0 -51.5 15.5t-45.5 34t-43.5 34t-46.5 15.5q-52 0 -102 -91z" />
<glyph unicode="&#xa1;" horiz-adv-x="207" d="M102 -12q-38 0 -54 28l14 63q39 97 76 222.5t54 207.5h39q-15 -68 -31 -197.5t-22 -232.5l-13 -63q-25 -28 -63 -28zM234 580q-55 0 -55 52q0 60 58 60q59 0 59 -56t-62 -56z" />
<glyph unicode="&#xa2;" horiz-adv-x="407" d="M397 739l-42 -196q134 0 134 -52q0 -20 -12.5 -33t-30.5 -13q-15 0 -25 9.5t-14.5 21.5t-19.5 23t-39 13l-77 -367q82 0 132 63l22 -16q-28 -48 -75 -75.5t-92 -30.5l-41 -196q-3 -11 -19 -11q-15 0 -15 9l41 198q-62 1 -96.5 45t-34.5 110q0 104 64 193.5t164 104.5 l42 200q3 12 18 12q16 0 16 -12zM238 152l76 357q-59 -23 -92 -98.5t-33 -148.5q0 -85 49 -110z" />
<glyph unicode="&#xa3;" horiz-adv-x="591" d="M587 693q94 0 94 -56q0 -53 -39 -53q-22 0 -30.5 12t-8 26t-9.5 26t-35 12q-31 0 -59.5 -35.5t-48.5 -83t-53.5 -119t-65.5 -120.5h140l-7 -40h-158q-33 -46 -64.5 -75t-84.5 -68q43 20 80 20q61 0 102 -70q31 -52 86 -52q49 0 117 53l16 -16q-67 -69 -198 -69 q-84 0 -113 64q-25 53 -77 53q-23 0 -49.5 -19.5t-39 -34.5t-38.5 -49l-21 28q54 66 104 87q53 55 112 148h-70l7 40h86q22 37 51.5 101t51.5 108t54 89.5t74 69t94 23.5z" />
<glyph unicode="&#xa4;" horiz-adv-x="680" d="M591 42l-49 60q-89 -55 -194 -55q-107 0 -179 57l-73 -62l-29 37l71 60q-42 55 -42 143q0 131 110 228l-51 62l42 37l53 -64q92 60 197 60q104 0 172 -57l71 61l30 -37l-68 -58q44 -58 44 -147q0 -131 -110 -231l48 -57zM636 361q0 89 -57 142t-141 53 q-118 0 -200.5 -78.5t-82.5 -189.5q0 -90 58.5 -143.5t142.5 -53.5t150 42t98 103t32 125z" />
<glyph unicode="&#xa5;" horiz-adv-x="598" d="M583 333l-13 -63h-166l-13 -64h165l-13 -63h-167l-15 -76q0 -35 76 -35l-6 -32h-256l6 32q85 0 95 46l14 65h-171l13 63h171l14 64h-171l13 63h145l-64 230q-24 86 -74 86l6 32h230l-6 -32q-66 0 -70 -40q0 -12 5 -30l67 -242l158 238q17 22 17 48t-60 26l6 32h194 l-7 -32q-50 0 -75 -38l-189 -278h141z" />
<glyph unicode="&#xa6;" horiz-adv-x="235" d="M210 739v-314q0 -12 -25 -12q-28 0 -28 12v314q0 12 24 12q29 0 29 -12zM210 218v-328q0 -11 -25 -11q-28 0 -28 11v328q0 12 24 12q29 0 29 -12z" />
<glyph unicode="&#xa7;" horiz-adv-x="407" d="M360 693q47 0 83 -20q6 -29 6 -62q0 -7 -1 -27t-1 -24h-28q-11 101 -88 101q-26 0 -44.5 -19t-18.5 -53q0 -23 17.5 -41.5t42.5 -33t50 -31t42.5 -43t17.5 -59.5q0 -57 -35 -94.5t-86 -51.5q54 -45 54 -96q0 -75 -59 -114.5t-132 -39.5q-76 0 -113 35q-3 26 -3 56 q0 38 5 69h31q4 -55 31 -90.5t68 -35.5q33 0 59 23t26 57q0 30 -25 56t-54.5 42.5t-54.5 46t-25 67.5q0 55 36.5 93.5t93.5 47.5q-63 44 -63 97q0 65 47 104.5t121 39.5zM268 422q-29 0 -48 -17.5t-19 -52.5q0 -29 19.5 -48.5t59.5 -42.5q28 6 50.5 26.5t22.5 49.5 q0 35 -23 58t-62 27z" />
<glyph unicode="&#xa8;" horiz-adv-x="399" d="M423 632q47 0 47 -47q0 -23 -13.5 -35.5t-35.5 -12.5q-50 0 -50 44q0 51 52 51zM228 632q47 0 47 -47q0 -23 -13.5 -35.5t-36.5 -12.5q-50 0 -50 44q0 51 53 51z" />
<glyph unicode="&#xa9;" horiz-adv-x="831" d="M477 19q80 0 142 32t96.5 82.5t52 106t17.5 111.5q0 76 -27.5 136.5t-71 95.5t-91.5 53.5t-95 18.5q-130 0 -218.5 -94t-88.5 -241q0 -79 27 -139.5t71 -94.5t91 -50.5t95 -16.5zM498 689q147 0 240.5 -94t93.5 -243q0 -156 -100.5 -261.5t-259.5 -105.5 q-150 0 -240.5 95t-90.5 239q0 156 103.5 263t253.5 107zM506 492q56 0 105 -14l-7 -76h-10q-5 39 -25 55.5t-64 16.5q-55 0 -84 -39.5t-29 -101.5q0 -65 29 -105t79 -40q66 0 93 63l12 -5l-15 -66q-53 -14 -100 -14q-74 0 -117 46t-43 112q0 80 43.5 124t132.5 44z" />
<glyph unicode="&#xaa;" horiz-adv-x="402" d="M331 607q83 0 83 -81q0 -15 -5 -38l-37 -173v-11q0 -22 24 -22q16 0 26 6l2 -26l-74 -39q-47 0 -51 52q-58 -52 -111 -52q-78 0 -78 64q0 60 53 95t167 57l10 46q4 15 4 35q0 47 -44 47q-23 0 -41 -13.5t-26.5 -30.5t-17.5 -30.5t-18 -13.5q-27 0 -27 25q0 27 52 62.5 t109 40.5zM232 276q39 0 73 28l24 109q-77 -21 -109.5 -42t-32.5 -59q0 -36 45 -36z" />
<glyph unicode="&#xab;" horiz-adv-x="341" d="M193 140l-23 -24l-90 143l151 142l12 -25l-96 -117zM322 140l-24 -24l-88 143l150 142l12 -25l-95 -117z" />
<glyph unicode="&#xac;" horiz-adv-x="568" d="M507 0h-55l54 305h-409l10 57h464z" />
<glyph unicode="&#xad;" horiz-adv-x="323" d="M330 293l-11 -62h-219l12 62h218z" />
<glyph unicode="&#xae;" horiz-adv-x="831" d="M477 19q80 0 142 32t96.5 82.5t52 106t17.5 111.5q0 76 -27.5 136.5t-71 95.5t-91.5 53.5t-95 18.5q-129 0 -218 -94.5t-89 -240.5q0 -79 27 -139.5t71 -94.5t91 -50.5t95 -16.5zM498 689q147 0 240.5 -94t93.5 -243q0 -156 -100.5 -261.5t-259.5 -105.5 q-150 0 -240.5 95t-90.5 239q0 156 103.5 263t253.5 107zM329 502v16h54q23 0 54 2t56 2q45 0 73.5 -24t28.5 -62q0 -59 -67 -110q3 -3 38 -49.5t67.5 -73t63.5 -26.5v-14h-37q-50 0 -77.5 8t-45.5 36q-69 104 -77 104h-33q-4 0 -4 -7l-4 -109q0 -15 49 -15v-17h-146v17 q23 0 23 15l10 291q0 16 -26 16zM429 486l-5 -144q0 -13 38 -13q26 0 41 24.5t15 62.5q0 39 -14 60t-37 21h-27q-11 0 -11 -11z" />
<glyph unicode="&#xaf;" horiz-adv-x="379" d="M440 558h-317l11 63h317z" />
<glyph unicode="&#xb0;" horiz-adv-x="382" d="M329 788q64 0 101.5 -36t37.5 -99q0 -67 -41.5 -114t-107.5 -47q-67 0 -101 41.5t-34 101.5q0 61 38.5 107t106.5 46zM324 754q-44 0 -67 -31t-23 -81q0 -48 25 -80.5t70 -32.5t67.5 32.5t22.5 81.5q0 51 -26 81t-69 30z" />
<glyph unicode="&#xb1;" horiz-adv-x="504" d="M76 293h196v199h71v-199h193v-66h-193v-191h-71v191h-196v66zM438 -7l-13 -62h-307l13 62h307z" />
<glyph unicode="&#xb2;" horiz-adv-x="289" d="M295 701q68 0 68 -67q0 -48 -31 -96t-64.5 -77t-83.5 -64h77q26 0 38 7t27 35l12 -3l-35 -81h-150q-16 0 -36 -2l2 13q13 11 43.5 37.5t47 41t40.5 40t36.5 44.5t22.5 44.5t10 49.5q0 50 -47 50q-28 0 -42.5 -11t-26.5 -44l-12 -2l10 66q45 19 94 19z" />
<glyph unicode="&#xb3;" horiz-adv-x="289" d="M284 701q73 0 73 -54q0 -55 -72 -93v-4q52 -17 52 -72q0 -60 -39.5 -95t-100.5 -35q-71 0 -71 13l20 76l12 -1l-2 -9q-1 -9 -1 -10q0 -22 10.5 -34.5t24.5 -12.5q44 0 71.5 23t27.5 66q0 56 -59 73l3 18q35 0 59 22.5t24 60.5q0 44 -44 44q-49 0 -61 -54l-11 2l8 56 q34 20 76 20z" />
<glyph unicode="&#xb4;" horiz-adv-x="230" d="M308 644q23 0 23 -23q0 -24 -28.5 -41.5t-85 -37.5t-80.5 -32l-7 17q26 16 65 47.5t67 50.5t46 19z" />
<glyph unicode="&#xb6;" horiz-adv-x="508" d="M300 0h-42l132 628q0 21 -27 21h-16q-36 0 -86 -63t-50 -164q0 -47 22 -66.5t65 -19.5h10l-9 -39q-5 -1 -14 -1q-61 0 -102 40.5t-41 114.5q0 99 56 166.5t126 67.5q14 0 41 -2t57 -2h22zM381 0h-38l143 681h61q26 0 68 7l-25 -121l-20 -5v22q0 50 -39 50q-16 0 -20 -18z " />
<glyph unicode="&#xb7;" horiz-adv-x="203" d="M159 317q55 0 55 -56q0 -27 -15.5 -41.5t-42.5 -14.5q-59 0 -59 52q0 60 62 60z" />
<glyph unicode="&#xb8;" horiz-adv-x="181" d="M123 -45q22 -27 22 -52q0 -37 -112 -151l-14 10q44 64 44 87q0 22 -24 49q26 48 84 57z" />
<glyph unicode="&#xb9;" horiz-adv-x="289" d="M317 707l9 -4q-8 -19 -11 -33l-61 -286q0 -13 42 -13l-2 -16h-135l2 16q50 0 53 15l53 250q0 11 -7 11q-2 0 -8 -3l-41 -21l-7 13z" />
<glyph unicode="&#xba;" horiz-adv-x="510" d="M380 607q80 0 124.5 -37t44.5 -104q0 -97 -73.5 -171t-177.5 -74q-82 0 -122.5 41t-40.5 106q0 91 66.5 165t178.5 74zM371 587q-68 0 -111.5 -64.5t-43.5 -156.5q0 -55 24.5 -89.5t73.5 -34.5q70 0 113 68.5t43 158.5q0 55 -26.5 86.5t-72.5 31.5z" />
<glyph unicode="&#xbb;" horiz-adv-x="341" d="M92 117l-15 23l96 119l-45 117l23 25l90 -142zM222 117l-15 23l96 119l-44 117l23 25l88 -142z" />
<glyph unicode="&#xbc;" horiz-adv-x="668" d="M296 707l9 -4q-8 -19 -11 -33l-61 -286q0 -13 42 -13l-2 -16h-135l2 16q50 0 53 15l53 250q0 11 -7 11q-2 0 -8 -3l-41 -21l-7 13zM675 681h61l-602 -681h-57zM644 336l-44 -210q0 -5 4 -5h24q9 0 20 4l-16 -38h-38q-2 0 -3 -5l-14 -69q0 -7 34 -7l-2 -16h-113l2 16 q39 0 40 7l14 69q0 5 -4 5h-131l-1 16l215 235zM592 269l-136 -148h101q4 0 4 5z" />
<glyph unicode="&#xbd;" horiz-adv-x="657" d="M296 707l9 -4q-8 -19 -11 -33l-61 -286q0 -13 42 -13l-2 -16h-135l2 16q50 0 53 15l53 250q0 11 -7 11q-2 0 -8 -3l-41 -21l-7 13zM649 681h61l-602 -681h-57zM582 336q68 0 68 -67q0 -48 -31 -96t-64.5 -77t-83.5 -64h77q26 0 38 7t27 35l12 -3l-35 -81h-150 q-16 0 -36 -2l2 13q13 11 43.5 37.5t47 41t40.5 40t36.5 44.5t22.5 44.5t10 49.5q0 50 -47 50q-28 0 -42.5 -11t-26.5 -44l-12 -2l10 66q45 19 94 19z" />
<glyph unicode="&#xbe;" horiz-adv-x="647" d="M282 701q73 0 73 -54q0 -55 -72 -93v-4q52 -17 52 -72q0 -60 -39.5 -95t-100.5 -35q-71 0 -71 13l20 76l12 -1l-2 -9q-1 -9 -1 -10q0 -22 10.5 -34.5t24.5 -12.5q44 0 71.5 23t27.5 66q0 56 -59 73l3 18q35 0 59 22.5t24 60.5q0 44 -44 44q-49 0 -61 -54l-11 2l8 56 q34 20 76 20zM658 681h61l-602 -681h-57zM623 336l-44 -210q0 -5 4 -5h24q9 0 20 4l-16 -38h-38q-2 0 -3 -5l-14 -69q0 -7 34 -7l-2 -16h-113l2 16q39 0 40 7l14 69q0 5 -4 5h-131l-1 16l215 235zM571 269l-136 -148h101q4 0 4 5z" />
<glyph unicode="&#xbf;" horiz-adv-x="381" d="M197 -11q-56 0 -94 28.5t-38 79.5q0 44 18.5 84t46 67.5t60 56.5t60 51.5t46 51.5t18.5 58q0 25 -17 51l30 23q16 -5 31 -28t15 -50q0 -43 -24.5 -79t-76 -81t-63.5 -58q-65 -71 -65 -135q0 -37 17.5 -56.5t47.5 -19.5q56 0 85.5 23.5t49.5 91.5l28 5l-22 -129 q-51 -35 -153 -35zM344 576q-55 0 -55 54q0 58 58 58t58 -51q0 -61 -61 -61z" />
<glyph unicode="&#xc0;" horiz-adv-x="667" d="M470 696l23 -4l90 -618q1 -5 2.5 -9.5t4.5 -8t5 -6t7 -5l7 -3.5t9 -3t9 -2.5t10.5 -2.5t10.5 -2l-5 -32h-189l6 32q23 0 23 41q0 11 -1 16l-15 126q-3 27 -52 27h-138q-36 0 -47 -27l-56 -105q-9 -20 -9 -40q0 -34 40 -34l-7 -36h-176l8 36q53 3 93 74zM423 552 l-125 -215q-16 -23 -19 -35q0 -16 32 -16h116q20 0 25 3.5t5 15.5q0 4 -2 28zM392 857q13 0 34.5 -20.5t52.5 -53t53 -49.5l-12 -16q-20 12 -65 34t-70 38.5t-25 33.5q0 33 32 33z" />
<glyph unicode="&#xc1;" horiz-adv-x="667" d="M470 696l23 -4l90 -618q1 -5 2.5 -9.5t4.5 -8t5 -6t7 -5l7 -3.5t9 -3t9 -2.5t10.5 -2.5t10.5 -2l-5 -32h-189l6 32q23 0 23 41q0 11 -1 16l-15 126q-3 27 -52 27h-138q-36 0 -47 -27l-56 -105q-9 -20 -9 -40q0 -34 40 -34l-7 -36h-176l8 36q53 3 93 74zM423 552 l-125 -215q-16 -23 -19 -35q0 -16 32 -16h116q20 0 25 3.5t5 15.5q0 4 -2 28zM598 863q23 0 23 -23q0 -24 -28.5 -41.5t-85 -37.5t-80.5 -32l-7 17q26 16 65 47.5t67 50.5t46 19z" />
<glyph unicode="&#xc2;" horiz-adv-x="667" d="M470 696l23 -4l90 -618q1 -5 2.5 -9.5t4.5 -8t5 -6t7 -5l7 -3.5t9 -3t9 -2.5t10.5 -2.5t10.5 -2l-5 -32h-189l6 32q23 0 23 41q0 11 -1 16l-15 126q-3 27 -52 27h-138q-36 0 -47 -27l-56 -105q-9 -20 -9 -40q0 -34 40 -34l-7 -36h-176l8 36q53 3 93 74zM423 552 l-125 -215q-16 -23 -19 -35q0 -16 32 -16h116q20 0 25 3.5t5 15.5q0 4 -2 28zM391 737l-7 12l131 111l85 -111l-15 -12l-85 56z" />
<glyph unicode="&#xc3;" horiz-adv-x="667" d="M470 696l23 -4l90 -618q1 -5 2.5 -9.5t4.5 -8t5 -6t7 -5l7 -3.5t9 -3t9 -2.5t10.5 -2.5t10.5 -2l-5 -32h-189l6 32q23 0 23 41q0 11 -1 16l-15 126q-3 27 -52 27h-138q-36 0 -47 -27l-56 -105q-9 -20 -9 -40q0 -34 40 -34l-7 -36h-176l8 36q53 3 93 74zM423 552 l-125 -215q-16 -23 -19 -35q0 -16 32 -16h116q20 0 25 3.5t5 15.5q0 4 -2 28zM351 756l-10 14q17 41 50 67t62 26q26 0 43 -11t24.5 -23.5t20.5 -23.5t31 -11q41 0 83 66l14 -13q-19 -43 -50 -69.5t-66 -26.5q-29 0 -63 34t-57 34q-35 0 -82 -63z" />
<glyph unicode="&#xc4;" horiz-adv-x="667" d="M470 696l23 -4l90 -618q1 -5 2.5 -9.5t4.5 -8t5 -6t7 -5l7 -3.5t9 -3t9 -2.5t10.5 -2.5t10.5 -2l-5 -32h-189l6 32q23 0 23 41q0 11 -1 16l-15 126q-3 27 -52 27h-138q-36 0 -47 -27l-56 -105q-9 -20 -9 -40q0 -34 40 -34l-7 -36h-176l8 36q53 3 93 74zM423 552 l-125 -215q-16 -23 -19 -35q0 -16 32 -16h116q20 0 25 3.5t5 15.5q0 4 -2 28zM592 851q47 0 47 -47q0 -23 -13.5 -35.5t-35.5 -12.5q-50 0 -50 44q0 51 52 51zM397 851q47 0 47 -47q0 -23 -13.5 -35.5t-36.5 -12.5q-50 0 -50 44q0 51 53 51z" />
<glyph unicode="&#xc5;" horiz-adv-x="667" d="M470 696l23 -4l90 -618q1 -5 2.5 -9.5t4.5 -8t5 -6t7 -5l7 -3.5t9 -3t9 -2.5t10.5 -2.5t10.5 -2l-5 -32h-189l6 32q23 0 23 41q0 11 -1 16l-15 126q-3 27 -52 27h-138q-36 0 -47 -27l-56 -105q-9 -20 -9 -40q0 -34 40 -34l-7 -36h-176l8 36q53 3 93 74zM423 552 l-125 -215q-16 -23 -19 -35q0 -16 32 -16h116q20 0 25 3.5t5 15.5q0 4 -2 28zM481 849q-21 0 -34 -14t-13 -34q0 -51 43 -51q20 0 34.5 14t14.5 37q0 20 -12.5 34t-32.5 14zM482 880q31 0 52.5 -22.5t21.5 -53.5q0 -36 -23.5 -60.5t-56.5 -24.5q-31 0 -51.5 22.5t-20.5 55.5 t22 58t56 25z" />
<glyph unicode="&#xc6;" horiz-adv-x="781" d="M364 637l9 44h418q33 0 59 9l6 -10l-42 -123h-27v10q0 35 -13 52.5t-46 17.5h-65q-22 0 -26 -24l-44 -211q0 -20 17 -20h94q31 0 63 32h22l-48 -141h-25v9q0 56 -44 56h-72q-22 0 -26 -22l-54 -254q0 -19 18 -19h40q54 0 94 24t60 61l25 -8l-40 -120h-396l5 32 q90 0 102 66l26 122q0 18 -17 18h-150q-34 0 -49 -27l-55 -101q-11 -20 -11 -34q0 -40 77 -40l-6 -36h-220l7 36q53 3 97 74l308 502q0 25 -71 25zM518 637q-26 -1 -46 -33l-163 -267q-18 -29 -18 -37q0 -14 33 -14h122q22 0 26 18l66 313q0 12 -4 16t-16 4z" />
<glyph unicode="&#xc7;" horiz-adv-x="667" d="M549 693q72 0 207 -29l-45 -167h-23v22q0 74 -34 104t-130 30q-98 0 -168.5 -55.5t-104.5 -146t-34 -203.5q0 -101 46.5 -158.5t139.5 -57.5q83 0 134.5 35t90.5 101l25 -11l-59 -145q-98 -27 -205 -27q-132 0 -203.5 77t-71.5 199q0 188 117.5 307.5t317.5 124.5z M393 -45q22 -27 22 -52q0 -37 -112 -151l-14 10q44 64 44 87q0 22 -24 49q26 48 84 57z" />
<glyph unicode="&#xc8;" horiz-adv-x="511" d="M183 649l7 32h336q34 0 57 9l5 -10l-23 -123h-25q2 12 2 14q0 31 -21.5 48.5t-54.5 17.5h-116q-21 0 -25 -24l-42 -200l-1 -10q0 -21 16 -21h148q25 0 55 32h21l-29 -141h-23q0 65 -50 65h-131q-22 0 -26 -22l-55 -254q0 -19 18 -19h93q101 0 147 85l22 -8l-39 -120h-396 l6 32q53 0 57 21l119 562q0 34 -52 34zM314 857q13 0 34.5 -20.5t52.5 -53t53 -49.5l-12 -16q-20 12 -65 34t-70 38.5t-25 33.5q0 33 32 33z" />
<glyph unicode="&#xc9;" horiz-adv-x="511" d="M183 649l7 32h336q34 0 57 9l5 -10l-23 -123h-25q2 12 2 14q0 31 -21.5 48.5t-54.5 17.5h-116q-21 0 -25 -24l-42 -200l-1 -10q0 -21 16 -21h148q25 0 55 32h21l-29 -141h-23q0 65 -50 65h-131q-22 0 -26 -22l-55 -254q0 -19 18 -19h93q101 0 147 85l22 -8l-39 -120h-396 l6 32q53 0 57 21l119 562q0 34 -52 34zM512 863q23 0 23 -23q0 -24 -28.5 -41.5t-85 -37.5t-80.5 -32l-7 17q26 16 65 47.5t67 50.5t46 19z" />
<glyph unicode="&#xca;" horiz-adv-x="511" d="M183 649l7 32h336q34 0 57 9l5 -10l-23 -123h-25q2 12 2 14q0 31 -21.5 48.5t-54.5 17.5h-116q-21 0 -25 -24l-42 -200l-1 -10q0 -21 16 -21h148q25 0 55 32h21l-29 -141h-23q0 65 -50 65h-131q-22 0 -26 -22l-55 -254q0 -19 18 -19h93q101 0 147 85l22 -8l-39 -120h-396 l6 32q53 0 57 21l119 562q0 34 -52 34zM318 737l-7 12l131 111l85 -111l-15 -12l-85 56z" />
<glyph unicode="&#xcb;" horiz-adv-x="511" d="M183 649l7 32h336q34 0 57 9l5 -10l-23 -123h-25q2 12 2 14q0 31 -21.5 48.5t-54.5 17.5h-116q-21 0 -25 -24l-42 -200l-1 -10q0 -21 16 -21h148q25 0 55 32h21l-29 -141h-23q0 65 -50 65h-131q-22 0 -26 -22l-55 -254q0 -19 18 -19h93q101 0 147 85l22 -8l-39 -120h-396 l6 32q53 0 57 21l119 562q0 34 -52 34zM526 851q47 0 47 -47q0 -23 -13.5 -35.5t-35.5 -12.5q-50 0 -50 44q0 51 52 51zM331 851q47 0 47 -47q0 -23 -13.5 -35.5t-36.5 -12.5q-50 0 -50 44q0 51 53 51z" />
<glyph unicode="&#xcc;" horiz-adv-x="297" d="M257 32l-5 -32h-202l5 32q57 0 63 24l116 559q0 34 -51 34l6 32h203l-7 -32q-53 0 -62 -44l-116 -552q0 -21 50 -21zM207 857q13 0 34.5 -20.5t52.5 -53t53 -49.5l-12 -16q-20 12 -65 34t-70 38.5t-25 33.5q0 33 32 33z" />
<glyph unicode="&#xcd;" horiz-adv-x="297" d="M257 32l-5 -32h-202l5 32q57 0 63 24l116 559q0 34 -51 34l6 32h203l-7 -32q-53 0 -62 -44l-116 -552q0 -21 50 -21zM413 863q23 0 23 -23q0 -24 -28.5 -41.5t-85 -37.5t-80.5 -32l-7 17q26 16 65 47.5t67 50.5t46 19z" />
<glyph unicode="&#xce;" horiz-adv-x="297" d="M257 32l-5 -32h-202l5 32q57 0 63 24l116 559q0 34 -51 34l6 32h203l-7 -32q-53 0 -62 -44l-116 -552q0 -21 50 -21zM206 737l-7 12l131 111l85 -111l-15 -12l-85 56z" />
<glyph unicode="&#xcf;" horiz-adv-x="297" d="M257 32l-5 -32h-202l5 32q57 0 63 24l116 559q0 34 -51 34l6 32h203l-7 -32q-53 0 -62 -44l-116 -552q0 -21 50 -21zM421 851q47 0 47 -47q0 -23 -13.5 -35.5t-35.5 -12.5q-50 0 -50 44q0 51 52 51zM226 851q47 0 47 -47q0 -23 -13.5 -35.5t-36.5 -12.5q-50 0 -50 44 q0 51 53 51z" />
<glyph unicode="&#xd0;" horiz-adv-x="721" d="M486 685q127 0 196.5 -71.5t69.5 -190.5q0 -196 -118 -309.5t-291 -113.5h-290l6 32q55 0 66 48l47 224h-62l13 62h63l49 231q1 6 1 14q0 38 -49 38l6 32q19 -4 47 -4q38 0 122 4t124 4zM470 641h-78q-36 0 -48.5 -10.5t-21.5 -51.5l-45 -213h77l-13 -62h-77l-41 -189 q-3 -23 -3 -39q0 -25 15 -31t55 -6h68q130 0 210 108t80 273q0 107 -45.5 164t-132.5 57z" />
<glyph unicode="&#xd1;" horiz-adv-x="750" d="M241 32l-5 -32h-189l4 32q62 0 71 38l128 611h36l340 -540l97 471q0 37 -75 37l8 32h193l-5 -32q-69 0 -78 -44l-128 -609l-24 -9l-346 540l-98 -463q0 -32 71 -32zM385 756l-10 14q17 41 50 67t62 26q26 0 43 -11t24.5 -23.5t20.5 -23.5t31 -11q41 0 83 66l14 -13 q-19 -43 -50 -69.5t-66 -26.5q-29 0 -63 34t-57 34q-35 0 -82 -63z" />
<glyph unicode="&#xd2;" horiz-adv-x="776" d="M524 658q-131 0 -215.5 -116.5t-84.5 -284.5q0 -103 42.5 -168.5t130.5 -65.5q133 0 217 116.5t84 280.5q0 107 -45.5 172.5t-128.5 65.5zM531 693q125 0 200 -79.5t75 -201.5q0 -179 -123.5 -303t-302.5 -124q-132 0 -198.5 80.5t-66.5 199.5q0 78 28.5 153.5t79.5 137 t131.5 99.5t176.5 38zM446 857q13 0 34.5 -20.5t52.5 -53t53 -49.5l-12 -16q-20 12 -65 34t-70 38.5t-25 33.5q0 33 32 33z" />
<glyph unicode="&#xd3;" horiz-adv-x="776" d="M524 658q-131 0 -215.5 -116.5t-84.5 -284.5q0 -103 42.5 -168.5t130.5 -65.5q133 0 217 116.5t84 280.5q0 107 -45.5 172.5t-128.5 65.5zM531 693q125 0 200 -79.5t75 -201.5q0 -179 -123.5 -303t-302.5 -124q-132 0 -198.5 80.5t-66.5 199.5q0 78 28.5 153.5t79.5 137 t131.5 99.5t176.5 38zM652 863q23 0 23 -23q0 -24 -28.5 -41.5t-85 -37.5t-80.5 -32l-7 17q26 16 65 47.5t67 50.5t46 19z" />
<glyph unicode="&#xd4;" horiz-adv-x="776" d="M524 658q-131 0 -215.5 -116.5t-84.5 -284.5q0 -103 42.5 -168.5t130.5 -65.5q133 0 217 116.5t84 280.5q0 107 -45.5 172.5t-128.5 65.5zM531 693q125 0 200 -79.5t75 -201.5q0 -179 -123.5 -303t-302.5 -124q-132 0 -198.5 80.5t-66.5 199.5q0 78 28.5 153.5t79.5 137 t131.5 99.5t176.5 38zM446 737l-7 12l131 111l85 -111l-15 -12l-85 56z" />
<glyph unicode="&#xd5;" horiz-adv-x="776" d="M524 658q-131 0 -215.5 -116.5t-84.5 -284.5q0 -103 42.5 -168.5t130.5 -65.5q133 0 217 116.5t84 280.5q0 107 -45.5 172.5t-128.5 65.5zM531 693q125 0 200 -79.5t75 -201.5q0 -179 -123.5 -303t-302.5 -124q-132 0 -198.5 80.5t-66.5 199.5q0 78 28.5 153.5t79.5 137 t131.5 99.5t176.5 38zM406 756l-10 14q17 41 50 67t62 26q26 0 43 -11t24.5 -23.5t20.5 -23.5t31 -11q41 0 83 66l14 -13q-19 -43 -50 -69.5t-66 -26.5q-29 0 -63 34t-57 34q-35 0 -82 -63z" />
<glyph unicode="&#xd6;" horiz-adv-x="776" d="M524 658q-131 0 -215.5 -116.5t-84.5 -284.5q0 -103 42.5 -168.5t130.5 -65.5q133 0 217 116.5t84 280.5q0 107 -45.5 172.5t-128.5 65.5zM531 693q125 0 200 -79.5t75 -201.5q0 -179 -123.5 -303t-302.5 -124q-132 0 -198.5 80.5t-66.5 199.5q0 78 28.5 153.5t79.5 137 t131.5 99.5t176.5 38zM638 851q47 0 47 -47q0 -23 -13.5 -35.5t-35.5 -12.5q-50 0 -50 44q0 51 52 51zM443 851q47 0 47 -47q0 -23 -13.5 -35.5t-36.5 -12.5q-50 0 -50 44q0 51 53 51z" />
<glyph unicode="&#xd7;" horiz-adv-x="498" d="M170 445l133 -137l144 137l47 -49l-144 -138l135 -139l-49 -47l-134 139l-143 -139l-48 50l143 139l-132 138z" />
<glyph unicode="&#xd8;" horiz-adv-x="776" d="M531 693q47 0 97 -15l14 24h42l-22 -40q69 -34 106.5 -99.5t37.5 -150.5q0 -179 -123.5 -303t-302.5 -124q-48 0 -90 12l-25 -46h-42l33 58q-70 33 -105.5 102.5t-35.5 155.5q0 77 28.5 152.5t79.5 136.5t131.5 99t176.5 38zM698 402q0 146 -63 212l-320 -572 q38 -19 82 -19q130 0 213 110t88 269zM524 658q-130 0 -215 -116.5t-85 -282.5q0 -133 63 -195l319 573q-40 21 -82 21z" />
<glyph unicode="&#xd9;" horiz-adv-x="684" d="M189 681h204l-7 -32q-52 0 -57 -29l-69 -326q-16 -72 -16 -117q0 -67 28.5 -106t103.5 -39q185 0 243 281l62 300q0 36 -68 36l7 32h183l-6 -32q-66 0 -75 -44l-54 -268q-38 -179 -111.5 -265.5t-203.5 -86.5q-197 0 -197 198q0 57 12 104l69 333q0 29 -56 29zM400 857 q13 0 34.5 -20.5t52.5 -53t53 -49.5l-12 -16q-20 12 -65 34t-70 38.5t-25 33.5q0 33 32 33z" />
<glyph unicode="&#xda;" horiz-adv-x="684" d="M189 681h204l-7 -32q-52 0 -57 -29l-69 -326q-16 -72 -16 -117q0 -67 28.5 -106t103.5 -39q185 0 243 281l62 300q0 36 -68 36l7 32h183l-6 -32q-66 0 -75 -44l-54 -268q-38 -179 -111.5 -265.5t-203.5 -86.5q-197 0 -197 198q0 57 12 104l69 333q0 29 -56 29zM606 863 q23 0 23 -23q0 -24 -28.5 -41.5t-85 -37.5t-80.5 -32l-7 17q26 16 65 47.5t67 50.5t46 19z" />
<glyph unicode="&#xdb;" horiz-adv-x="684" d="M189 681h204l-7 -32q-52 0 -57 -29l-69 -326q-16 -72 -16 -117q0 -67 28.5 -106t103.5 -39q185 0 243 281l62 300q0 36 -68 36l7 32h183l-6 -32q-66 0 -75 -44l-54 -268q-38 -179 -111.5 -265.5t-203.5 -86.5q-197 0 -197 198q0 57 12 104l69 333q0 29 -56 29zM400 737 l-7 12l131 111l85 -111l-15 -12l-85 56z" />
<glyph unicode="&#xdc;" horiz-adv-x="684" d="M189 681h204l-7 -32q-52 0 -57 -29l-69 -326q-16 -72 -16 -117q0 -67 28.5 -106t103.5 -39q185 0 243 281l62 300q0 36 -68 36l7 32h183l-6 -32q-66 0 -75 -44l-54 -268q-38 -179 -111.5 -265.5t-203.5 -86.5q-197 0 -197 198q0 57 12 104l69 333q0 29 -56 29zM613 851 q47 0 47 -47q0 -23 -13.5 -35.5t-35.5 -12.5q-50 0 -50 44q0 51 52 51zM418 851q47 0 47 -47q0 -23 -13.5 -35.5t-36.5 -12.5q-50 0 -50 44q0 51 53 51z" />
<glyph unicode="&#xdd;" horiz-adv-x="621" d="M172 681h179l-6 -32q-20 0 -20 -21q2 -24 6 -38l71 -252l170 237q30 38 30 56t-30 18l7 32h169l-6 -32q-34 0 -53.5 -8.5t-34.5 -29.5l-192 -256q-27 -36 -52 -135l-31 -142q-2 -14 -2 -16q0 -30 51 -30l-5 -32h-210l5 32q59 0 68 45l29 140q9 43 9 72q0 26 -10 56 l-72 218q-16 49 -33.5 67.5t-43.5 18.5zM582 863q23 0 23 -23q0 -24 -28.5 -41.5t-85 -37.5t-80.5 -32l-7 17q26 16 65 47.5t67 50.5t46 19z" />
<glyph unicode="&#xde;" horiz-adv-x="524" d="M268 32l-5 -32h-214l5 32q59 0 65 24l117 559q0 34 -53 34l6 32h213l-6 -32q-57 0 -66 -44l-16 -83q29 0 55.5 2.5t45.5 2.5q63 0 103.5 -37t40.5 -97q0 -62 -27 -112.5t-69.5 -81t-91 -46.5t-95.5 -16h-17l9 40h9q34 0 64 8.5t58 28.5t44 58.5t16 91.5q0 58 -29.5 92 t-60.5 34h-22q-41 0 -47 -28l-86 -408q0 -22 54 -22z" />
<glyph unicode="&#xdf;" horiz-adv-x="536" d="M432 747q157 0 157 -115q0 -34 -16 -62t-38.5 -47.5t-45 -38t-38.5 -42.5t-16 -52q0 -26 15 -51.5t33 -44.5t33 -48.5t15 -62.5q0 -72 -75 -134t-137 -62q-39 0 -62 14t-23 39q0 20 12 36.5t31 16.5q17 0 35.5 -25t43.5 -25q33 0 58 32.5t25 64.5q0 30 -14 57.5t-31 46 t-31 45.5t-14 56q0 30 16 57.5t38.5 49l45 43t38.5 49t16 58.5q0 46 -21 72t-60 26q-19 0 -35 -6t-30 -21t-24 -27.5t-20.5 -40t-16.5 -43t-15 -51.5t-12 -50.5t-12 -54.5l-88 -405q-14 -65 -42.5 -121t-79 -98t-111.5 -42q-39 0 -62 14t-23 39q0 54 44 54q15 0 23.5 -12.5 t20.5 -25t34 -12.5q41 0 64 50t46 154l89 409q0 8 -10 8h-58l27 44h37q12 0 21 29q72 256 243 256z" />
<glyph unicode="&#xe0;" horiz-adv-x="535" d="M209 55q27 0 89 66.5t96 129.5l32 158q-21 21 -59 21q-53 0 -99 -58.5t-68.5 -130.5t-22.5 -128q0 -27 4 -40t9.5 -15.5t18.5 -2.5zM151 -12q-15 0 -25.5 3.5t-22 13.5t-17.5 32.5t-6 57.5q0 72 30.5 143t77.5 122t106.5 83t115.5 32q31 0 59.5 -12t49.5 -12l-65 -314 q-7 -24 -7 -50q0 -15 7 -15q12 0 60 45l12 -24q-26 -36 -73.5 -70t-77.5 -34q-28 0 -28 35q0 14 2 23l23 110q-44 -62 -107 -115.5t-114 -53.5zM280 638q13 0 34.5 -20.5t52.5 -53t53 -49.5l-12 -16q-20 12 -65 34t-70 38.5t-25 33.5q0 33 32 33z" />
<glyph unicode="&#xe1;" horiz-adv-x="535" d="M209 55q27 0 89 66.5t96 129.5l32 158q-21 21 -59 21q-53 0 -99 -58.5t-68.5 -130.5t-22.5 -128q0 -27 4 -40t9.5 -15.5t18.5 -2.5zM151 -12q-15 0 -25.5 3.5t-22 13.5t-17.5 32.5t-6 57.5q0 72 30.5 143t77.5 122t106.5 83t115.5 32q31 0 59.5 -12t49.5 -12l-65 -314 q-7 -24 -7 -50q0 -15 7 -15q12 0 60 45l12 -24q-26 -36 -73.5 -70t-77.5 -34q-28 0 -28 35q0 14 2 23l23 110q-44 -62 -107 -115.5t-114 -53.5zM486 644q23 0 23 -23q0 -24 -28.5 -41.5t-85 -37.5t-80.5 -32l-7 17q26 16 65 47.5t67 50.5t46 19z" />
<glyph unicode="&#xe2;" horiz-adv-x="535" d="M209 55q27 0 89 66.5t96 129.5l32 158q-21 21 -59 21q-53 0 -99 -58.5t-68.5 -130.5t-22.5 -128q0 -27 4 -40t9.5 -15.5t18.5 -2.5zM151 -12q-15 0 -25.5 3.5t-22 13.5t-17.5 32.5t-6 57.5q0 72 30.5 143t77.5 122t106.5 83t115.5 32q31 0 59.5 -12t49.5 -12l-65 -314 q-7 -24 -7 -50q0 -15 7 -15q12 0 60 45l12 -24q-26 -36 -73.5 -70t-77.5 -34q-28 0 -28 35q0 14 2 23l23 110q-44 -62 -107 -115.5t-114 -53.5zM279 518l-7 12l131 111l85 -111l-15 -12l-85 56z" />
<glyph unicode="&#xe3;" horiz-adv-x="535" d="M209 55q27 0 89 66.5t96 129.5l32 158q-21 21 -59 21q-53 0 -99 -58.5t-68.5 -130.5t-22.5 -128q0 -27 4 -40t9.5 -15.5t18.5 -2.5zM151 -12q-15 0 -25.5 3.5t-22 13.5t-17.5 32.5t-6 57.5q0 72 30.5 143t77.5 122t106.5 83t115.5 32q31 0 59.5 -12t49.5 -12l-65 -314 q-7 -24 -7 -50q0 -15 7 -15q12 0 60 45l12 -24q-26 -36 -73.5 -70t-77.5 -34q-28 0 -28 35q0 14 2 23l23 110q-44 -62 -107 -115.5t-114 -53.5zM239 537l-10 14q17 41 50 67t62 26q26 0 43 -11t24.5 -23.5t20.5 -23.5t31 -11q41 0 83 66l14 -13q-19 -43 -50 -69.5t-66 -26.5 q-29 0 -63 34t-57 34q-35 0 -82 -63z" />
<glyph unicode="&#xe4;" horiz-adv-x="535" d="M209 55q27 0 89 66.5t96 129.5l32 158q-21 21 -59 21q-53 0 -99 -58.5t-68.5 -130.5t-22.5 -128q0 -27 4 -40t9.5 -15.5t18.5 -2.5zM151 -12q-15 0 -25.5 3.5t-22 13.5t-17.5 32.5t-6 57.5q0 72 30.5 143t77.5 122t106.5 83t115.5 32q31 0 59.5 -12t49.5 -12l-65 -314 q-7 -24 -7 -50q0 -15 7 -15q12 0 60 45l12 -24q-26 -36 -73.5 -70t-77.5 -34q-28 0 -28 35q0 14 2 23l23 110q-44 -62 -107 -115.5t-114 -53.5zM492 632q47 0 47 -47q0 -23 -13.5 -35.5t-35.5 -12.5q-50 0 -50 44q0 51 52 51zM297 632q47 0 47 -47q0 -23 -13.5 -35.5 t-36.5 -12.5q-50 0 -50 44q0 51 53 51z" />
<glyph unicode="&#xe5;" horiz-adv-x="535" d="M209 55q27 0 89 66.5t96 129.5l32 158q-21 21 -59 21q-53 0 -99 -58.5t-68.5 -130.5t-22.5 -128q0 -27 4 -40t9.5 -15.5t18.5 -2.5zM151 -12q-15 0 -25.5 3.5t-22 13.5t-17.5 32.5t-6 57.5q0 72 30.5 143t77.5 122t106.5 83t115.5 32q31 0 59.5 -12t49.5 -12l-65 -314 q-7 -24 -7 -50q0 -15 7 -15q12 0 60 45l12 -24q-26 -36 -73.5 -70t-77.5 -34q-28 0 -28 35q0 14 2 23l23 110q-44 -62 -107 -115.5t-114 -53.5zM392 630q-21 0 -34 -14t-13 -34q0 -51 43 -51q20 0 34.5 14t14.5 37q0 20 -12.5 34t-32.5 14zM393 661q31 0 52.5 -22.5 t21.5 -53.5q0 -36 -23.5 -60.5t-56.5 -24.5q-31 0 -51.5 22.5t-20.5 55.5t22 58t56 25z" />
<glyph unicode="&#xe6;" horiz-adv-x="738" d="M657 475q106 0 106 -90q0 -13 -2 -23t-17.5 -31t-43 -40t-84.5 -45t-136 -51q0 -69 28.5 -104.5t80.5 -35.5q34 0 67.5 18.5t54.5 42.5l20 -17q-46 -56 -87.5 -83.5t-96.5 -27.5q-78 0 -120.5 44t-44.5 117q-52 -60 -118.5 -110.5t-112.5 -50.5q-15 0 -25.5 3.5t-22 13.5 t-17.5 32.5t-6 57.5q0 71 30.5 142.5t76 122.5t97.5 83t94 32q35 0 62 -6.5t34 -6.5q15 0 27 4l-22 -75q65 84 178 84zM209 55q27 0 89 66.5t96 129.5l32 158q-21 21 -59 21q-53 0 -99 -58.5t-68.5 -130.5t-22.5 -128q0 -27 4 -40t9.5 -15.5t18.5 -2.5zM629 436 q-59 0 -101 -63.5t-45 -140.5q41 15 69.5 27.5t61.5 31t50 39.5t17 44q0 62 -52 62z" />
<glyph unicode="&#xe7;" horiz-adv-x="455" d="M376 473q104 0 104 -53q0 -22 -17 -38t-29 -16q-13 0 -21 9t-13 20t-19 20t-37 9q-48 0 -85 -42.5t-53.5 -97t-16.5 -106.5q0 -118 109 -118q37 0 63.5 13.5t54.5 47.5l23 -17q-32 -58 -87.5 -87t-111.5 -29q-73 0 -111.5 40.5t-38.5 113.5q0 126 88.5 228.5t197.5 102.5 zM277 -45q22 -27 22 -52q0 -37 -112 -151l-14 10q44 64 44 87q0 22 -24 49q26 48 84 57z" />
<glyph unicode="&#xe8;" horiz-adv-x="448" d="M350 475q122 0 122 -90q0 -13 -2 -23t-17.5 -31t-42.5 -40t-84 -45t-137 -51q0 -69 28.5 -104.5t80.5 -35.5q33 0 67 18.5t56 42.5l19 -17q-45 -56 -86.5 -83.5t-96.5 -27.5q-82 0 -123.5 47t-41.5 124q0 121 79 218.5t179 97.5zM339 436q-59 0 -101 -63.5t-46 -140.5 q41 15 70 27.5t62 31t50 39.5t17 44q0 62 -52 62zM246 638q13 0 34.5 -20.5t52.5 -53t53 -49.5l-12 -16q-20 12 -65 34t-70 38.5t-25 33.5q0 33 32 33z" />
<glyph unicode="&#xe9;" horiz-adv-x="448" d="M350 475q122 0 122 -90q0 -13 -2 -23t-17.5 -31t-42.5 -40t-84 -45t-137 -51q0 -69 28.5 -104.5t80.5 -35.5q33 0 67 18.5t56 42.5l19 -17q-45 -56 -86.5 -83.5t-96.5 -27.5q-82 0 -123.5 47t-41.5 124q0 121 79 218.5t179 97.5zM339 436q-59 0 -101 -63.5t-46 -140.5 q41 15 70 27.5t62 31t50 39.5t17 44q0 62 -52 62zM452 644q23 0 23 -23q0 -24 -28.5 -41.5t-85 -37.5t-80.5 -32l-7 17q26 16 65 47.5t67 50.5t46 19z" />
<glyph unicode="&#xea;" horiz-adv-x="448" d="M350 475q122 0 122 -90q0 -13 -2 -23t-17.5 -31t-42.5 -40t-84 -45t-137 -51q0 -69 28.5 -104.5t80.5 -35.5q33 0 67 18.5t56 42.5l19 -17q-45 -56 -86.5 -83.5t-96.5 -27.5q-82 0 -123.5 47t-41.5 124q0 121 79 218.5t179 97.5zM339 436q-59 0 -101 -63.5t-46 -140.5 q41 15 70 27.5t62 31t50 39.5t17 44q0 62 -52 62zM256 518l-7 12l131 111l85 -111l-15 -12l-85 56z" />
<glyph unicode="&#xeb;" horiz-adv-x="448" d="M350 475q122 0 122 -90q0 -13 -2 -23t-17.5 -31t-42.5 -40t-84 -45t-137 -51q0 -69 28.5 -104.5t80.5 -35.5q33 0 67 18.5t56 42.5l19 -17q-45 -56 -86.5 -83.5t-96.5 -27.5q-82 0 -123.5 47t-41.5 124q0 121 79 218.5t179 97.5zM339 436q-59 0 -101 -63.5t-46 -140.5 q41 15 70 27.5t62 31t50 39.5t17 44q0 62 -52 62zM459 632q47 0 47 -47q0 -23 -13.5 -35.5t-35.5 -12.5q-50 0 -50 44q0 51 52 51zM264 632q47 0 47 -47q0 -23 -13.5 -35.5t-36.5 -12.5q-50 0 -50 44q0 51 53 51z" />
<glyph unicode="&#xec;" horiz-adv-x="293" d="M127 -11q-25 0 -27 31q0 10 5 27l85 320q2 8 2 14q-1 7 -7 7q-13 0 -60 -45l-13 24q30 37 79 71t78 34q28 0 28 -32q0 -12 -4 -27l-80 -276q-8 -27 -11 -50q2 -15 9 -15q13 0 61 45l12 -24q-29 -37 -78 -70.5t-79 -33.5zM159 638q13 0 34.5 -20.5t52.5 -53t53 -49.5 l-12 -16q-20 12 -65 34t-70 38.5t-25 33.5q0 33 32 33z" />
<glyph unicode="&#xed;" horiz-adv-x="293" d="M127 -11q-25 0 -27 31q0 10 5 27l85 320q2 8 2 14q-1 7 -7 7q-13 0 -60 -45l-13 24q30 37 79 71t78 34q28 0 28 -32q0 -12 -4 -27l-80 -276q-8 -27 -11 -50q2 -15 9 -15q13 0 61 45l12 -24q-29 -37 -78 -70.5t-79 -33.5zM365 644q23 0 23 -23q0 -24 -28.5 -41.5 t-85 -37.5t-80.5 -32l-7 17q26 16 65 47.5t67 50.5t46 19z" />
<glyph unicode="&#xee;" horiz-adv-x="293" d="M127 -11q-25 0 -27 31q0 10 5 27l85 320q2 8 2 14q-1 7 -7 7q-13 0 -60 -45l-13 24q30 37 79 71t78 34q28 0 28 -32q0 -12 -4 -27l-80 -276q-8 -27 -11 -50q2 -15 9 -15q13 0 61 45l12 -24q-29 -37 -78 -70.5t-79 -33.5zM158 518l-7 12l131 111l85 -111l-15 -12l-85 56z " />
<glyph unicode="&#xef;" horiz-adv-x="293" d="M127 -11q-25 0 -27 31q0 10 5 27l85 320q2 8 2 14q-1 7 -7 7q-13 0 -60 -45l-13 24q30 37 79 71t78 34q28 0 28 -32q0 -12 -4 -27l-80 -276q-8 -27 -11 -50q2 -15 9 -15q13 0 61 45l12 -24q-29 -37 -78 -70.5t-79 -33.5zM372 632q47 0 47 -47q0 -23 -13.5 -35.5 t-35.5 -12.5q-50 0 -50 44q0 51 52 51zM177 632q47 0 47 -47q0 -23 -13.5 -35.5t-36.5 -12.5q-50 0 -50 44q0 51 53 51z" />
<glyph unicode="&#xf0;" horiz-adv-x="532" d="M392 672l72 59l29 -44l-68 -53q115 -134 115 -298q0 -151 -78.5 -251t-210.5 -100q-161 0 -161 154q0 75 26.5 139.5t69.5 106.5t96 65.5t106 23.5q20 0 43 -5q-18 57 -61 119l-82 -65l-28 43l79 64q-70 77 -95 85l15 37q61 -16 133 -80zM373 435q-63 0 -124.5 -78.5 t-61.5 -192.5q0 -139 81 -139q69 0 124 90.5t55 210.5q0 109 -74 109z" />
<glyph unicode="&#xf1;" horiz-adv-x="568" d="M512 475q16 0 28 -16.5t12 -46.5q0 -29 -22 -115l-42 -160q-9 -35 -9 -50t7 -15q14 0 61 45l12 -24q-29 -37 -78.5 -70.5t-78.5 -33.5q-26 0 -26 31q0 16 3 27l64 232q23 84 24 105q0 26 -20 26q-50 0 -216 -204l-57 -197l-83 -27l98 361q6 20 6 31q0 14 -8 14 q-13 0 -61 -45l-13 24q33 39 77.5 72t74.5 33q13 0 17.5 -6.5t4.5 -23.5q0 -35 -41 -169q168 202 266 202zM266 537l-10 14q17 41 50 67t62 26q26 0 43 -11t24.5 -23.5t20.5 -23.5t31 -11q41 0 83 66l14 -13q-19 -43 -50 -69.5t-66 -26.5q-29 0 -63 34t-57 34q-35 0 -82 -63 z" />
<glyph unicode="&#xf2;" horiz-adv-x="522" d="M373 474q72 0 112 -47t40 -122q0 -73 -26.5 -136.5t-67.5 -104t-89 -63.5t-93 -23q-74 0 -115.5 47t-41.5 122q0 71 26.5 134.5t68 104.5t90.5 64.5t96 23.5zM265 23q41 0 73.5 23t50.5 57t29.5 77t15 77t3.5 64q0 114 -76 114q-44 0 -78 -24.5t-52 -59t-29.5 -79 t-14.5 -77.5t-3 -62q0 -110 81 -110zM273 638q13 0 34.5 -20.5t52.5 -53t53 -49.5l-12 -16q-20 12 -65 34t-70 38.5t-25 33.5q0 33 32 33z" />
<glyph unicode="&#xf3;" horiz-adv-x="522" d="M373 474q72 0 112 -47t40 -122q0 -73 -26.5 -136.5t-67.5 -104t-89 -63.5t-93 -23q-74 0 -115.5 47t-41.5 122q0 71 26.5 134.5t68 104.5t90.5 64.5t96 23.5zM265 23q41 0 73.5 23t50.5 57t29.5 77t15 77t3.5 64q0 114 -76 114q-44 0 -78 -24.5t-52 -59t-29.5 -79 t-14.5 -77.5t-3 -62q0 -110 81 -110zM479 644q23 0 23 -23q0 -24 -28.5 -41.5t-85 -37.5t-80.5 -32l-7 17q26 16 65 47.5t67 50.5t46 19z" />
<glyph unicode="&#xf4;" horiz-adv-x="522" d="M373 474q72 0 112 -47t40 -122q0 -73 -26.5 -136.5t-67.5 -104t-89 -63.5t-93 -23q-74 0 -115.5 47t-41.5 122q0 71 26.5 134.5t68 104.5t90.5 64.5t96 23.5zM265 23q41 0 73.5 23t50.5 57t29.5 77t15 77t3.5 64q0 114 -76 114q-44 0 -78 -24.5t-52 -59t-29.5 -79 t-14.5 -77.5t-3 -62q0 -110 81 -110zM273 518l-7 12l131 111l85 -111l-15 -12l-85 56z" />
<glyph unicode="&#xf5;" horiz-adv-x="522" d="M373 474q72 0 112 -47t40 -122q0 -73 -26.5 -136.5t-67.5 -104t-89 -63.5t-93 -23q-74 0 -115.5 47t-41.5 122q0 71 26.5 134.5t68 104.5t90.5 64.5t96 23.5zM265 23q41 0 73.5 23t50.5 57t29.5 77t15 77t3.5 64q0 114 -76 114q-44 0 -78 -24.5t-52 -59t-29.5 -79 t-14.5 -77.5t-3 -62q0 -110 81 -110zM233 537l-10 14q17 41 50 67t62 26q26 0 43 -11t24.5 -23.5t20.5 -23.5t31 -11q41 0 83 66l14 -13q-19 -43 -50 -69.5t-66 -26.5q-29 0 -63 34t-57 34q-35 0 -82 -63z" />
<glyph unicode="&#xf6;" horiz-adv-x="522" d="M373 474q72 0 112 -47t40 -122q0 -73 -26.5 -136.5t-67.5 -104t-89 -63.5t-93 -23q-74 0 -115.5 47t-41.5 122q0 71 26.5 134.5t68 104.5t90.5 64.5t96 23.5zM265 23q41 0 73.5 23t50.5 57t29.5 77t15 77t3.5 64q0 114 -76 114q-44 0 -78 -24.5t-52 -59t-29.5 -79 t-14.5 -77.5t-3 -62q0 -110 81 -110zM486 632q47 0 47 -47q0 -23 -13.5 -35.5t-35.5 -12.5q-50 0 -50 44q0 51 52 51zM291 632q47 0 47 -47q0 -23 -13.5 -35.5t-36.5 -12.5q-50 0 -50 44q0 51 53 51z" />
<glyph unicode="&#xf7;" horiz-adv-x="433" d="M465 293l-1 -62h-385v62h386zM272 171q54 0 54 -52q0 -60 -58 -60t-58 53q0 59 62 59zM283 464q54 0 54 -51q0 -61 -58 -61t-58 54q0 58 62 58z" />
<glyph unicode="&#xf8;" horiz-adv-x="522" d="M373 474q23 0 44 -6l31 55h43l-39 -69q73 -44 73 -150q0 -72 -26.5 -135t-68 -104t-89.5 -64t-92 -23q-35 0 -58 10l-23 -43h-42l32 59q-66 44 -66 144q0 71 26.5 134t68 104t90.5 64.5t96 23.5zM265 23q50 0 86.5 31.5t53.5 80t24.5 92.5t7.5 85q0 62 -15 87l-203 -362 q17 -14 46 -14zM361 435q-54 0 -92.5 -35t-55.5 -89.5t-23.5 -98t-6.5 -81.5q0 -35 11 -63l201 359q-16 8 -34 8z" />
<glyph unicode="&#xf9;" horiz-adv-x="557" d="M158 -18q-16 0 -27.5 15.5t-11.5 43.5q0 31 22 119l41 159q10 29 10 43q0 22 -7 22q-12 0 -61 -46l-12 25q28 37 77.5 70.5t79.5 33.5q26 0 26 -30q0 -17 -3 -27l-65 -232q-22 -88 -22 -106q0 -25 19 -25q26 0 71.5 47t133.5 157l57 196l84 28l-99 -362q-4 -16 -4 -30 q0 -15 6 -15q11 0 61 45l13 -25q-31 -38 -76 -70.5t-75 -32.5q-13 0 -18 6t-5 23q0 34 42 170q-87 -104 -148 -153t-109 -49zM291 638q13 0 34.5 -20.5t52.5 -53t53 -49.5l-12 -16q-20 12 -65 34t-70 38.5t-25 33.5q0 33 32 33z" />
<glyph unicode="&#xfa;" horiz-adv-x="557" d="M158 -18q-16 0 -27.5 15.5t-11.5 43.5q0 31 22 119l41 159q10 29 10 43q0 22 -7 22q-12 0 -61 -46l-12 25q28 37 77.5 70.5t79.5 33.5q26 0 26 -30q0 -17 -3 -27l-65 -232q-22 -88 -22 -106q0 -25 19 -25q26 0 71.5 47t133.5 157l57 196l84 28l-99 -362q-4 -16 -4 -30 q0 -15 6 -15q11 0 61 45l13 -25q-31 -38 -76 -70.5t-75 -32.5q-13 0 -18 6t-5 23q0 34 42 170q-87 -104 -148 -153t-109 -49zM497 644q23 0 23 -23q0 -24 -28.5 -41.5t-85 -37.5t-80.5 -32l-7 17q26 16 65 47.5t67 50.5t46 19z" />
<glyph unicode="&#xfb;" horiz-adv-x="557" d="M158 -18q-16 0 -27.5 15.5t-11.5 43.5q0 31 22 119l41 159q10 29 10 43q0 22 -7 22q-12 0 -61 -46l-12 25q28 37 77.5 70.5t79.5 33.5q26 0 26 -30q0 -17 -3 -27l-65 -232q-22 -88 -22 -106q0 -25 19 -25q26 0 71.5 47t133.5 157l57 196l84 28l-99 -362q-4 -16 -4 -30 q0 -15 6 -15q11 0 61 45l13 -25q-31 -38 -76 -70.5t-75 -32.5q-13 0 -18 6t-5 23q0 34 42 170q-87 -104 -148 -153t-109 -49zM290 518l-7 12l131 111l85 -111l-15 -12l-85 56z" />
<glyph unicode="&#xfc;" horiz-adv-x="557" d="M158 -18q-16 0 -27.5 15.5t-11.5 43.5q0 31 22 119l41 159q10 29 10 43q0 22 -7 22q-12 0 -61 -46l-12 25q28 37 77.5 70.5t79.5 33.5q26 0 26 -30q0 -17 -3 -27l-65 -232q-22 -88 -22 -106q0 -25 19 -25q26 0 71.5 47t133.5 157l57 196l84 28l-99 -362q-4 -16 -4 -30 q0 -15 6 -15q11 0 61 45l13 -25q-31 -38 -76 -70.5t-75 -32.5q-13 0 -18 6t-5 23q0 34 42 170q-87 -104 -148 -153t-109 -49zM503 632q47 0 47 -47q0 -23 -13.5 -35.5t-35.5 -12.5q-50 0 -50 44q0 51 52 51zM308 632q47 0 47 -47q0 -23 -13.5 -35.5t-36.5 -12.5 q-50 0 -50 44q0 51 53 51z" />
<glyph unicode="&#xfd;" horiz-adv-x="472" d="M232 472q15 0 27.5 -15t13.5 -44l11 -317q61 76 108 158t47 128q0 12 -6.5 23.5t-6.5 20.5q0 20 16 32t34 12q44 0 44 -48q0 -43 -36 -106t-159 -228q-129 -172 -189 -246t-80.5 -91t-41.5 -17q-41 0 -41 33q0 38 47 56q29 11 88 59.5t97 109.5l-19 378q-1 19 -11 19 q-19 0 -49 -43l-17 21q20 38 56.5 71.5t66.5 33.5zM500 644q23 0 23 -23q0 -24 -28.5 -41.5t-85 -37.5t-80.5 -32l-7 17q26 16 65 47.5t67 50.5t46 19z" />
<glyph unicode="&#xfe;" horiz-adv-x="529" d="M-24 -248l10 31q50 0 60 34l171 775q4 16 4 32q0 59 -48 59l6 29l155 35l-66 -315q61 43 129 43q66 0 103.5 -43.5t37.5 -115.5q0 -135 -84 -231.5t-219 -96.5q-28 0 -61 6l-40 -178q0 -33 74 -33l-8 -31h-224zM358 418q-58 0 -105 -38l-58 -275q0 -30 21 -51t60 -21 q66 0 118.5 69.5t52.5 174.5q0 141 -89 141z" />
<glyph unicode="&#xff;" horiz-adv-x="472" d="M232 472q15 0 27.5 -15t13.5 -44l11 -317q61 76 108 158t47 128q0 12 -6.5 23.5t-6.5 20.5q0 20 16 32t34 12q44 0 44 -48q0 -43 -36 -106t-159 -228q-129 -172 -189 -246t-80.5 -91t-41.5 -17q-41 0 -41 33q0 38 47 56q29 11 88 59.5t97 109.5l-19 378q-1 19 -11 19 q-19 0 -49 -43l-17 21q20 38 56.5 71.5t66.5 33.5zM471 632q47 0 47 -47q0 -23 -13.5 -35.5t-35.5 -12.5q-50 0 -50 44q0 51 52 51zM276 632q47 0 47 -47q0 -23 -13.5 -35.5t-36.5 -12.5q-50 0 -50 44q0 51 53 51z" />
<glyph unicode="&#x152;" horiz-adv-x="1046" d="M642 0l18 87q-119 -102 -280 -102q-132 0 -198.5 80.5t-66.5 199.5q0 78 28.5 153.5t79.5 137t131.5 99.5t176.5 38q156 0 231 -119l22 107h277q33 0 57 9l4 -10l-23 -123h-25q2 12 2 14q0 31 -21 48.5t-55 17.5h-115q-21 0 -25 -24l-44 -210q0 -21 16 -21h148 q24 0 56 32h21l-30 -141h-24q0 65 -50 65h-130q-23 0 -26 -22l-54 -254q0 -19 18 -19h92q51 0 89 24t58 61l22 -8l-38 -120h-342zM524 658q-131 0 -215.5 -116.5t-84.5 -284.5q0 -103 42.5 -168.5t130.5 -65.5q133 0 217 116.5t84 280.5q0 107 -45.5 172.5t-128.5 65.5z" />
<glyph unicode="&#x153;" horiz-adv-x="776" d="M679 475q121 0 121 -90q0 -13 -2 -23t-17 -31t-42.5 -40t-84.5 -45t-136 -51q0 -69 28 -104.5t80 -35.5q33 0 67 18.5t56 42.5l20 -17q-45 -56 -86.5 -83.5t-96.5 -27.5q-109 0 -148 83q-88 -93 -189 -93q-74 0 -115.5 47t-41.5 122q0 71 26.5 134.5t68 104.5t90.5 64.5 t96 23.5q98 0 136 -86q74 87 170 87zM265 23q41 0 73.5 23t50.5 57t29.5 77t15 77t3.5 64q0 114 -76 114q-44 0 -78 -24.5t-52 -59t-29.5 -79t-14.5 -77.5t-3 -62q0 -110 81 -110zM668 436q-59 0 -101.5 -63.5t-45.5 -140.5q42 15 70 27.5t61.5 31t50.5 39.5t17 44 q0 62 -52 62z" />
<glyph unicode="&#x178;" horiz-adv-x="621" d="M172 681h179l-6 -32q-20 0 -20 -21q2 -24 6 -38l71 -252l170 237q30 38 30 56t-30 18l7 32h169l-6 -32q-34 0 -53.5 -8.5t-34.5 -29.5l-192 -256q-27 -36 -52 -135l-31 -142q-2 -14 -2 -16q0 -30 51 -30l-5 -32h-210l5 32q59 0 68 45l29 140q9 43 9 72q0 26 -10 56 l-72 218q-16 49 -33.5 67.5t-43.5 18.5zM591 851q47 0 47 -47q0 -23 -13.5 -35.5t-35.5 -12.5q-50 0 -50 44q0 51 52 51zM396 851q47 0 47 -47q0 -23 -13.5 -35.5t-36.5 -12.5q-50 0 -50 44q0 51 53 51z" />
<glyph unicode="&#x2c6;" horiz-adv-x="271" d="M147 518l-7 12l131 111l85 -111l-15 -12l-85 56z" />
<glyph unicode="&#x2dc;" horiz-adv-x="396" d="M168 537l-10 14q17 41 50 67t62 26q26 0 43 -11t24.5 -23.5t20.5 -23.5t31 -11q41 0 83 66l14 -13q-19 -43 -50 -69.5t-66 -26.5q-29 0 -63 34t-57 34q-35 0 -82 -63z" />
<glyph unicode="&#x2000;" horiz-adv-x="440" />
<glyph unicode="&#x2001;" horiz-adv-x="880" />
<glyph unicode="&#x2002;" horiz-adv-x="440" />
<glyph unicode="&#x2003;" horiz-adv-x="880" />
<glyph unicode="&#x2004;" horiz-adv-x="293" />
<glyph unicode="&#x2005;" horiz-adv-x="220" />
<glyph unicode="&#x2006;" horiz-adv-x="146" />
<glyph unicode="&#x2007;" horiz-adv-x="146" />
<glyph unicode="&#x2008;" horiz-adv-x="110" />
<glyph unicode="&#x2009;" horiz-adv-x="176" />
<glyph unicode="&#x200a;" horiz-adv-x="48" />
<glyph unicode="&#x2010;" horiz-adv-x="323" d="M330 293l-11 -62h-219l12 62h218z" />
<glyph unicode="&#x2011;" horiz-adv-x="323" d="M330 293l-11 -62h-219l12 62h218z" />
<glyph unicode="&#x2012;" horiz-adv-x="323" d="M330 293l-11 -62h-219l12 62h218z" />
<glyph unicode="&#x2013;" horiz-adv-x="453" d="M461 293l-12 -62h-348l12 62h348z" />
<glyph unicode="&#x2014;" horiz-adv-x="734" d="M743 293l-11 -62h-631l12 62h630z" />
<glyph unicode="&#x2018;" horiz-adv-x="157" d="M165 515q-19 26 -19 52q0 42 107 157l15 -12q-45 -64 -45 -88q0 -25 23 -50q-26 -49 -81 -59z" />
<glyph unicode="&#x2019;" horiz-adv-x="157" d="M258 741q18 -24 18 -53q0 -18 -20.5 -50t-86.5 -104l-15 10q40 58 44 77q1 5 1 11q0 20 -22 51q25 50 81 58z" />
<glyph unicode="&#x201a;" horiz-adv-x="157" d="M126 119q19 -23 19 -53q0 -38 -109 -154l-14 10q4 5 11 16t10 15.5t8 12.5t7.5 12.5t5 10.5t3.5 11t1 10q0 19 -22 51q23 49 80 58z" />
<glyph unicode="&#x201c;" horiz-adv-x="301" d="M178 515q-19 29 -19 52q0 41 109 157l14 -12q-45 -62 -45 -88q0 -25 22 -50q-24 -49 -81 -59zM298 515q-18 27 -18 52q0 42 108 157l14 -12q-44 -63 -44 -88q0 -26 21 -50q-24 -49 -81 -59z" />
<glyph unicode="&#x201d;" horiz-adv-x="302" d="M389 741q18 -26 18 -53q0 -18 -21 -50t-88 -104l-14 10q18 25 25.5 37t13.5 25.5t6 25.5q0 21 -21 51q24 51 81 58zM268 741q18 -24 18 -53q0 -36 -108 -154l-14 10q40 58 44 77q1 5 1 11q0 19 -21 51q24 51 80 58z" />
<glyph unicode="&#x201e;" horiz-adv-x="301" d="M255 119q19 -25 19 -54q0 -40 -108 -153l-15 10q40 58 45 76q1 6 1 12q0 22 -23 51q24 49 81 58zM135 119q19 -27 19 -54q0 -40 -108 -153l-14 10q5 9 14 22t13 20t9 16t7 16t2 14q0 20 -23 51q25 49 81 58z" />
<glyph unicode="&#x2022;" horiz-adv-x="329" d="M239 433q108 0 108 -106q0 -116 -115 -116t-115 103q0 119 122 119z" />
<glyph unicode="&#x2026;" horiz-adv-x="1015" d="M113 101q55 0 55 -53q0 -59 -58 -59q-59 0 -59 51q0 61 62 61zM519 101q55 0 55 -53q0 -59 -58 -59q-59 0 -59 51q0 61 62 61zM925 101q55 0 55 -53q0 -59 -58 -59q-59 0 -59 51q0 61 62 61z" />
<glyph unicode="&#x202f;" horiz-adv-x="176" />
<glyph unicode="&#x2039;" horiz-adv-x="197" d="M179 140l-23 -24l-90 143l152 142l11 -25l-96 -117z" />
<glyph unicode="&#x203a;" horiz-adv-x="196" d="M88 117l-15 23l98 119l-46 117l22 25l90 -142z" />
<glyph unicode="&#x205f;" horiz-adv-x="220" />
<glyph unicode="&#x20ac;" horiz-adv-x="632" d="M515 360h-241q-9 -68 -9 -71h214l-25 -47h-194q0 -103 35.5 -156.5t117.5 -53.5q95 0 158 66l24 -28q-85 -85 -214 -85q-112 0 -169 69t-57 188h-76l31 47h48l15 71h-70l31 47h52q49 125 146 205.5t200 80.5q78 0 128 -25t50 -72q0 -28 -18.5 -50t-44.5 -22q-31 0 -31 30 q0 8 7 25.5t7 32.5q0 26 -24.5 33.5t-78.5 7.5q-87 0 -149.5 -69.5t-93.5 -176.5h254z" />
<glyph unicode="&#x2122;" horiz-adv-x="853" d="M184 620l-12 8l16 59q25 -6 31 -6h219q4 0 34 6l-2 -64l-14 -4q-3 38 -30 38h-66q-3 0 -3 -9l-10 -254q0 -19 33 -19l-1 -14h-129l1 14q29 0 31 19l9 254q0 11 -2 11h-75q-9 0 -30 -39zM548 375l-1 -14h-101l1 14q39 0 42 24l37 282h31l113 -243l127 243h31l20 -289 q0 -17 44 -17l-1 -14h-132l1 14q20 0 22 17l-14 179l-109 -210h-17l-101 210l-22 -172q0 -10 8 -17t21 -7z" />
<glyph unicode="&#x25fc;" horiz-adv-x="470" d="M0 470h470v-470h-470v470z" />
</font>
</defs>
</svg>
