<svg width="416" height="155" viewBox="0 0 416 155" xmlns="http://www.w3.org/2000/svg"><g fill="none" fill-rule="evenodd"><path d="M.225 154.603h415.55V.327H.225z"/><path d="M120.681 19.772c0 1.897-.007 3.611-.023 5.139-.016 1.527-.072 2.726-.169 3.596-.063.61-.175 1.101-.337 1.471-.159.369-.464.604-.914.699-.383.096-.879.145-1.489.145-.256 0-.434.048-.529.145-.096.097-.145.193-.145.288 0 .291.273.436.819.436a50.308 50.308 0 0 0 2.932-.097c.513 0 .977-.009 1.395-.025.415-.016.754-.023 1.008-.023.545 0 1.187.023 1.925.071.737.049 1.523.106 2.356.171.832.064 1.691.12 2.572.168.882.049 1.707.072 2.477.072 1.955 0 3.702-.162 5.24-.482 1.539-.321 2.893-.724 4.064-1.206 1.169-.482 2.155-1.006 2.957-1.568.8-.563 1.441-1.086 1.924-1.569a12.975 12.975 0 0 0 1.729-2.051 16.433 16.433 0 0 0 1.468-2.629c.431-.965.775-2.011 1.034-3.137.256-1.125.383-2.331.383-3.618 0-2.446-.4-4.528-1.203-6.249-.8-1.722-1.729-3.113-2.786-4.174a12.998 12.998 0 0 0-3.873-2.702 19.756 19.756 0 0 0-4.4-1.4 28.92 28.92 0 0 0-4.517-.507 133.439 133.439 0 0 0-4.234-.072c-.639 0-1.297.007-1.971.024-.673.016-1.33.025-1.971.025-.609 0-1.17.007-1.683.023-.512.016-.93.025-1.249.025-.609 0-1.498-.016-2.668-.048a125.916 125.916 0 0 0-3.439-.049c-.642 0-.961.129-.961.386 0 .29.239.435.721.435.32 0 .641.007.96.024.323.015.561.057.722.121.674.192 1.131.434 1.37.722.241.291.394.789.457 1.497 0 .322.009.668.025 1.037.016.37.023.861.023 1.472v13.414zm5.674-7.864V7.227c0-1.513.016-2.622.048-3.33 0-.417.177-.692.529-.821.161-.096.521-.168 1.083-.216.56-.049 1.065-.072 1.514-.072.833 0 1.73.04 2.693.12.962.08 1.964.258 3.005.53 1.041.275 2.085.669 3.124 1.183 1.043.514 2.043 1.206 3.007 2.076.48.417.954.941 1.418 1.568.466.627.882 1.367 1.249 2.218.371.854.674 1.817.914 2.896.24 1.077.361 2.26.361 3.547 0 2.122-.257 4.068-.77 5.839-.512 1.768-1.458 3.216-2.837 4.342-1.283 1.061-2.659 1.794-4.134 2.195-1.475.401-3.174.604-5.097.604-1.668 0-2.941-.177-3.822-.532-.882-.353-1.452-.722-1.708-1.11-.16-.225-.271-.634-.335-1.229a36.216 36.216 0 0 1-.145-1.665c-.033-.419-.056-1.36-.072-2.824a512.485 512.485 0 0 1-.025-5.475v-5.163zm40.053 7.864c0 1.897-.007 3.611-.023 5.139-.017 1.527-.074 2.726-.171 3.596-.06.61-.173 1.101-.335 1.471-.161.369-.464.604-.914.699-.383.096-.88.145-1.489.145-.258 0-.434.048-.528.145-.097.097-.146.193-.146.288 0 .291.273.436.819.436a50.308 50.308 0 0 0 2.932-.097c.513 0 .977-.009 1.394-.025.416-.016.755-.023 1.01-.023.641 0 1.361.007 2.164.023.802.016 1.713.041 2.741.074 2.05.096 4.646.145 7.788.145.385 0 .706-.009.962-.025.258-.016.473-.056.649-.12a.82.82 0 0 0 .409-.314c.096-.145.177-.346.242-.604.062-.192.127-.498.191-.916.063-.419.128-.853.192-1.302.064-.452.113-.893.145-1.328.03-.434.047-.764.047-.99 0-.224-.023-.441-.07-.651-.049-.209-.155-.313-.314-.313-.224 0-.385.21-.482.627-.159.837-.367 1.488-.625 1.954-.255.468-.656.83-1.201 1.086-.545.258-1.21.41-1.995.458-.786.049-1.449.072-1.996.072-1.089 0-1.995-.048-2.717-.143-.722-.097-1.297-.274-1.731-.533a2.253 2.253 0 0 1-.938-1.037c-.191-.434-.304-1.004-.336-1.712v-9.361c0-.289.08-.434.24-.434.258 0 .713.007 1.371.023.656.016 1.346.033 2.068.049.721.016 1.385.032 1.995.048.609.016 1.01.041 1.202.073.801.063 1.362.241 1.683.531.319.288.545.643.674 1.061.064.258.095.514.095.772 0 .256.016.498.048.724 0 .224.129.337.385.337.192 0 .312-.113.361-.337.048-.226.072-.419.072-.579 0-.161.015-.555.048-1.182.032-.628.08-1.151.143-1.569.129-1.028.217-1.752.265-2.171.048-.418.074-.692.074-.819 0-.291-.113-.436-.339-.436-.095 0-.191.048-.287.145l-.385.385a1.321 1.321 0 0 1-.771.436c-.319.064-.734.129-1.249.191-.256.033-.738.058-1.44.074-.707.016-1.461.024-2.262.024h-3.703c-.191 0-.288-.144-.288-.434V3.415c0-.258.097-.387.288-.387.226 0 .658.009 1.3.025l2.068.049c.735.016 1.417.032 2.043.048.623.016 1.034.04 1.225.072 1.058.096 1.748.281 2.067.555.322.272.561.586.722.941.127.256.208.53.24.819.033.29.048.516.048.676 0 .354.113.532.335.532.162 0 .275-.09.339-.267.065-.176.113-.314.144-.409.03-.129.055-.322.072-.579.015-.258.039-.523.071-.797.032-.272.057-.538.074-.796.016-.258.023-.433.023-.53.064-.934.136-1.568.217-1.907.078-.337.12-.586.12-.747 0-.258-.095-.386-.289-.386a.79.79 0 0 0-.312.072 2.363 2.363 0 0 1-.362.12 15.31 15.31 0 0 1-.72.122c-.321.047-.674.087-1.057.12h-11.54c-.609 0-1.498-.016-2.668-.048a126.03 126.03 0 0 0-3.439-.049c-.642 0-.961.129-.961.386 0 .29.239.435.721.435.319 0 .641.007.96.024.323.015.561.057.723.121.672.192 1.13.434 1.369.722.242.291.392.789.457 1.497 0 .322.008.668.025 1.037.016.37.023.861.023 1.472v13.414zm33.466 0c0 1.897-.008 3.611-.024 5.139-.015 1.527-.073 2.726-.17 3.596-.061.61-.174 1.101-.335 1.471-.161.369-.464.604-.914.699-.383.096-.88.145-1.489.145-.258 0-.434.048-.529.145-.097.097-.145.193-.145.288 0 .291.272.436.819.436.416 0 .88-.009 1.393-.025l1.515-.049c.497-.016.954-.032 1.37-.048.415-.016.722-.023.912-.023.161 0 .482.007.962.023s1.034.032 1.66.048c.625.016 1.29.033 1.994.049.706.016 1.362.025 1.972.025.577 0 .867-.145.867-.436 0-.095-.048-.191-.145-.288a.52.52 0 0 0-.384-.145c-.258 0-.586-.007-.985-.024a6.918 6.918 0 0 1-1.083-.121c-.641-.095-1.057-.33-1.251-.699-.191-.37-.32-.861-.385-1.471-.095-.87-.16-2.06-.192-3.572a246.662 246.662 0 0 1-.048-5.163v-.579c0-.224.113-.337.337-.337l3.797.097c.323 0 .578.095.771.288.127.162.328.434.602.821l.961 1.375c.369.53.761 1.095 1.177 1.69.416.594.835 1.164 1.251 1.711 1.186 1.609 2.21 2.903 3.077 3.885.865.98 1.761 1.697 2.692 2.147.544.29 1.154.498 1.827.627.674.129 1.605.194 2.789.194h4.038c.546 0 .819-.145.819-.436 0-.095-.049-.191-.145-.288a.517.517 0 0 0-.384-.145h-.481c-.129 0-.306-.033-.528-.097-.161-.032-.376-.081-.651-.143a5.605 5.605 0 0 1-.985-.362 7.741 7.741 0 0 1-1.298-.798 13.909 13.909 0 0 1-1.586-1.4c-1.283-1.286-2.677-2.846-4.184-4.678a2435.322 2435.322 0 0 1-5.097-6.226c2.084-1.672 3.583-3.217 4.497-4.631.912-1.416 1.369-2.896 1.369-4.439 0-.676-.095-1.312-.289-1.907a7.09 7.09 0 0 0-.744-1.617 8.056 8.056 0 0 0-.987-1.279 6.025 6.025 0 0 0-.96-.844c-1.122-.74-2.406-1.213-3.847-1.423a29.023 29.023 0 0 0-4.184-.314c-.319 0-.776.007-1.369.024-.593.016-1.228.025-1.9.025-.641 0-1.267.007-1.876.023-.608.016-1.088.025-1.443.025-.448 0-1.24-.016-2.378-.048-1.14-.032-2.269-.049-3.391-.049-.641 0-.962.129-.962.386 0 .29.24.435.722.435.319 0 .642.007.961.024.322.015.561.057.722.121.672.192 1.131.434 1.369.722.242.291.393.789.457 1.497 0 .322.01.668.025 1.037.016.37.024.861.024 1.472v13.414zm5.385-16.26c0-.29.129-.484.385-.581.224-.062.561-.103 1.011-.12.448-.016.944-.023 1.489-.023.609 0 1.29.104 2.045.314.751.207 1.457.595 2.115 1.157.656.563 1.2 1.31 1.634 2.244.432.932.649 2.124.649 3.57 0 1.706-.296 3.032-.889 3.982-.593.948-1.21 1.649-1.851 2.098-.354.258-.73.434-1.129.531-.403.097-1.018.145-1.853.145-.545 0-1.106-.025-1.681-.073a5.992 5.992 0 0 1-1.54-.314c-.256-.127-.385-.369-.385-.722V3.512zm33.37 16.26c0 1.897-.007 3.611-.022 5.139-.017 1.527-.074 2.726-.171 3.596-.063.61-.176 1.101-.335 1.471-.161.369-.464.604-.916.699-.384.096-.88.145-1.489.145-.257 0-.434.048-.529.145-.095.097-.143.193-.143.288 0 .291.27.436.817.436a50.373 50.373 0 0 0 2.932-.097c.513 0 .976-.009 1.396-.025.416-.016.753-.023 1.009-.023.64 0 1.362.007 2.163.023.803.016 1.715.041 2.742.074 2.05.096 4.647.145 7.787.145.386 0 .706-.009.963-.025a2.32 2.32 0 0 0 .648-.12.8.8 0 0 0 .408-.314c.097-.145.178-.346.242-.604.065-.192.129-.498.193-.916.063-.419.126-.853.19-1.302a19.23 19.23 0 0 0 .194-2.318c0-.224-.023-.441-.071-.651-.049-.209-.154-.313-.313-.313-.225 0-.387.21-.481.627-.16.837-.369 1.488-.626 1.954-.256.468-.658.83-1.202 1.086-.545.258-1.208.41-1.995.458-.785.049-1.45.072-1.996.072-1.09 0-1.995-.048-2.717-.143-.721-.097-1.298-.274-1.73-.533a2.245 2.245 0 0 1-.937-1.037c-.194-.434-.306-1.004-.339-1.712v-9.361c0-.289.081-.434.242-.434.257 0 .712.007 1.37.023.657.016 1.347.033 2.068.049.722.016 1.385.032 1.994.048.611.016 1.011.041 1.205.073.799.063 1.36.241 1.681.531.32.288.544.643.674 1.061.064.258.096.514.096.772 0 .256.016.498.049.724 0 .224.128.337.383.337.193 0 .312-.113.36-.337.048-.226.072-.419.072-.579 0-.161.016-.555.048-1.182.033-.628.081-1.151.145-1.569.129-1.028.215-1.752.264-2.171.048-.418.073-.692.073-.819 0-.291-.112-.436-.337-.436-.096 0-.193.048-.288.145-.095.097-.224.226-.385.385a1.32 1.32 0 0 1-.769.436c-.321.064-.737.129-1.251.191-.255.033-.737.058-1.441.074-.706.016-1.459.024-2.261.024h-3.701c-.194 0-.291-.144-.291-.434V3.415c0-.258.097-.387.291-.387.224 0 .656.009 1.297.025l2.068.049c.737.016 1.418.032 2.043.048.626.016 1.034.04 1.228.072 1.057.096 1.745.281 2.066.555.321.272.561.586.721.941.128.256.209.53.241.819.033.29.049.516.049.676 0 .354.111.532.335.532.162 0 .273-.09.337-.267.064-.176.113-.314.143-.409.032-.129.058-.322.074-.579a14.7 14.7 0 0 1 .071-.797 13.629 13.629 0 0 0 .097-1.326c.063-.934.135-1.568.215-1.907.081-.337.122-.586.122-.747 0-.258-.097-.386-.29-.386a.804.804 0 0 0-.312.072 2.375 2.375 0 0 1-.36.12c-.161.033-.4.073-.722.122-.319.047-.673.087-1.057.12h-11.54c-.61 0-1.498-.016-2.669-.048-1.17-.032-2.315-.049-3.439-.049-.641 0-.96.129-.96.386 0 .29.24.435.722.435.319 0 .64.007.961.024.321.015.561.057.72.121.674.192 1.131.434 1.371.722.24.291.393.789.457 1.497 0 .322.009.668.026 1.037.015.37.022.861.022 1.472v13.414zm38.996-7.237V6.358c0-.611.008-1.102.024-1.472.016-.369.021-.715.021-1.037.065-.74.203-1.271.411-1.592.207-.322.6-.532 1.177-.627.258-.064.464-.106.626-.121.161-.017.351-.024.576-.024.386 0 .577-.145.577-.435 0-.257-.304-.386-.912-.386-.354 0-.786.007-1.299.024-.514.016-1.043.025-1.588.025-.512 0-1.001.007-1.466.023-.464.016-.824.025-1.082.025-.512 0-1.346-.016-2.5-.048a123.05 123.05 0 0 0-3.414-.049c-.642 0-.96.129-.96.386 0 .29.238.435.722.435.319 0 .64.007.96.024.321.015.561.057.721.121.673.192 1.131.434 1.369.722.242.291.394.789.459 1.497 0 .322.009.668.025 1.037.016.37.023.861.023 1.472v13.414c0 1.897-.007 3.611-.023 5.139-.016 1.527-.074 2.726-.17 3.596-.063.61-.176 1.101-.335 1.471-.162.369-.467.604-.916.699-.384.096-.88.145-1.489.145-.257 0-.434.048-.529.145-.095.097-.144.193-.144.288 0 .291.271.436.818.436.415 0 .879-.009 1.392-.025l1.539-.049c.513-.016.977-.032 1.395-.048.417-.016.754-.023 1.009-.023.258 0 .625.007 1.105.023.483.016 1.018.032 1.611.048.595.016 1.221.033 1.877.049.658.016 1.274.025 1.851.025.545 0 .817-.145.817-.436 0-.095-.057-.191-.168-.288a.6.6 0 0 0-.409-.145c-.256 0-.593-.007-1.011-.024a6.076 6.076 0 0 1-1.057-.121c-.545-.095-.921-.33-1.129-.699-.208-.37-.346-.844-.41-1.423-.061-.902-.094-2.108-.094-3.62v-8.878h.19l.434.579c.16.225.497.643 1.009 1.254.513.611 1.122 1.328 1.828 2.147l2.26 2.631c.801.931 1.579 1.817 2.333 2.654.751.835 1.441 1.584 2.066 2.243.624.66 1.081 1.117 1.372 1.375.928.805 1.793 1.423 2.596 1.858.799.434 1.762.699 2.884.796.448.065.881.097 1.299.097h5.337c.383 0 .649-.032.792-.097a.341.341 0 0 0 .217-.339c0-.288-.194-.433-.577-.433-.257 0-.593-.024-1.009-.072-.418-.048-.947-.201-1.588-.459a9.913 9.913 0 0 1-3.029-1.907 512.37 512.37 0 0 0-2.74-2.484 28.467 28.467 0 0 1-1.322-1.302c-.594-.611-1.275-1.312-2.045-2.099-.767-.789-1.57-1.632-2.403-2.534a223.006 223.006 0 0 0-2.404-2.557 68.379 68.379 0 0 1-2.019-2.195 51.121 51.121 0 0 1-1.251-1.472c.226-.258.57-.62 1.034-1.085l1.563-1.569c.577-.579 1.195-1.183 1.851-1.81l1.876-1.785c.593-.563 1.122-1.07 1.586-1.52a25.2 25.2 0 0 1 1.034-.965c.898-.836 1.698-1.488 2.403-1.954a10.758 10.758 0 0 1 2.068-1.086 5.913 5.913 0 0 1 1.274-.362 7.05 7.05 0 0 1 1.178-.12c.418 0 .626-.145.626-.435 0-.257-.241-.386-.722-.386-.319 0-.698.007-1.13.024-.433.016-.888.025-1.371.025-.448 0-.889.007-1.321.023a31.28 31.28 0 0 1-1.13.025c-.289 0-.633-.009-1.034-.025-.4-.016-.809-.023-1.226-.023-.418 0-.817-.009-1.203-.025a21.365 21.365 0 0 0-.912-.024c-.45 0-.674.129-.674.386 0 .193.192.338.578.435.383.097.576.369.576.819 0 .355-.2.781-.6 1.279a40.86 40.86 0 0 1-1.516 1.762c-.321.353-.889.948-1.706 1.785-.818.837-1.701 1.73-2.645 2.678l-2.692 2.702a68.88 68.88 0 0 0-1.805 1.859h-.19v-1.834zM.356 17.539h101.332v-2.724H.356zm313.955 0h101.332v-2.724H314.311zM30.909 93.384V74.131c0-1.906.025-3.434.074-4.589.05-1.153.075-2.229.075-3.233.201-2.306.628-3.96 1.28-4.963.651-1.003 1.879-1.655 3.684-1.957.803-.199 1.455-.325 1.956-.374.501-.05 1.103-.077 1.805-.077 1.203 0 1.805-.451 1.805-1.354 0-.801-.953-1.202-2.859-1.202a137 137 0 0 0-4.061.074c-1.604.052-3.258.077-4.964.077-1.604 0-3.132.025-4.587.074-1.453.05-2.581.075-3.384.075-1.604 0-4.212-.05-7.822-.149-3.61-.101-7.168-.151-10.679-.151-2.006 0-3.007.401-3.007 1.202 0 .903.751 1.354 2.256 1.354 1.002 0 2.006.027 3.007.077 1.002.049 1.756.175 2.257.374 2.105.603 3.535 1.354 4.286 2.257.752.902 1.228 2.457 1.429 4.663 0 1.004.024 2.08.076 3.233.05 1.155.075 2.683.075 4.589v41.815c0 5.916-.025 11.256-.075 16.019-.052 4.763-.225 8.499-.528 11.206-.2 1.905-.55 3.434-1.051 4.588-.503 1.153-1.455 1.881-2.859 2.181-1.202.3-2.757.451-4.663.451-.801 0-1.354.151-1.654.451-.3.301-.451.603-.451.903 0 .903.853 1.354 2.556 1.354 1.304 0 2.759-.025 4.363-.075l4.813-.151c1.604-.05 3.059-.099 4.361-.151a85.872 85.872 0 0 1 3.159-.074c.803 0 1.956.024 3.461.074 1.503.052 3.183.101 5.038.151 1.855.05 3.811.1 5.866.151 2.056.05 3.987.075 5.792.075 1.704 0 2.557-.451 2.557-1.354 0-.3-.176-.602-.527-.903-.351-.3-.778-.451-1.279-.451-.801 0-1.855-.025-3.158-.074-1.304-.052-2.408-.176-3.31-.377-1.704-.3-2.882-1.028-3.534-2.181-.651-1.154-1.078-2.631-1.279-4.437-.2-2.808-.3-6.567-.3-11.281v-27.676h.601l1.353 1.804c.503.702 1.555 2.006 3.159 3.91a735.143 735.143 0 0 0 5.717 6.695c2.206 2.556 4.562 5.288 7.069 8.197a480.297 480.297 0 0 0 7.294 8.273 378.83 378.83 0 0 0 6.469 6.995c1.956 2.055 3.384 3.483 4.287 4.286 2.908 2.507 5.615 4.438 8.122 5.792 2.507 1.354 5.516 2.18 9.025 2.482 1.403.2 2.757.3 4.061.3h16.696c1.204 0 2.031-.1 2.482-.3.451-.201.677-.553.677-1.054 0-.903-.601-1.354-1.805-1.354-.802 0-1.855-.074-3.159-.225-1.304-.151-2.958-.627-4.964-1.429a31.184 31.184 0 0 1-9.476-5.942 1493.763 1493.763 0 0 0-8.574-7.746c-.902-.803-2.281-2.157-4.135-4.061a3615.767 3615.767 0 0 0-6.392-6.543 410.242 410.242 0 0 1-7.522-7.897 648.148 648.148 0 0 0-7.52-7.971 214.4 214.4 0 0 1-6.318-6.845c-1.805-2.056-3.108-3.585-3.912-4.587.704-.803 1.78-1.932 3.235-3.385l4.888-4.889a328.554 328.554 0 0 1 5.791-5.64 3588.56 3588.56 0 0 1 5.866-5.565 640.407 640.407 0 0 0 4.964-4.739c1.455-1.404 2.532-2.406 3.236-3.008 2.806-2.606 5.313-4.637 7.519-6.092 2.207-1.453 4.362-2.581 6.469-3.384 1.202-.501 2.531-.878 3.985-1.128 1.454-.251 2.682-.377 3.686-.377 1.302 0 1.954-.451 1.954-1.354 0-.801-.751-1.202-2.256-1.202-1.002 0-2.18.025-3.534.074-1.353.052-2.783.077-4.287.077-1.405 0-2.783.025-4.137.074a97.41 97.41 0 0 1-3.534.075c-.902 0-1.98-.025-3.234-.075a98.224 98.224 0 0 0-3.836-.074c-1.304 0-2.556-.025-3.759-.077a74.483 74.483 0 0 0-2.859-.074c-1.403 0-2.107.401-2.107 1.202 0 .603.602 1.054 1.805 1.354 1.205.302 1.805 1.155 1.805 2.558 0 1.104-.626 2.432-1.88 3.985-1.252 1.555-2.832 3.385-4.738 5.491-1.002 1.104-2.782 2.959-5.34 5.565-2.556 2.607-5.314 5.39-8.271 8.349l-8.425 8.423c-2.656 2.658-4.537 4.587-5.64 5.792h-.601v-5.717zm100.883 23.473c-.002 5.554-.026 10.59-.074 15.108-.052 4.763-.226 8.499-.528 11.206-.201 1.905-.551 3.434-1.051 4.588-.504 1.153-1.456 1.881-2.859 2.181-1.203.3-2.757.451-4.664.451-.801 0-1.353.151-1.654.451-.3.301-.451.603-.451.903 0 .903.853 1.354 2.557 1.354 1.405 0 2.883-.025 4.437-.075 1.555-.051 3.134-.126 4.739-.225 1.604 0 3.059-.025 4.361-.077a85.825 85.825 0 0 1 3.159-.074c2.005 0 4.261.024 6.768.074 2.509.052 5.366.126 8.574.226 6.418.302 14.541.451 24.367.451 1.204 0 2.206-.025 3.01-.074.801-.05 1.478-.177 2.03-.377.551-.201.977-.526 1.279-.977.3-.451.551-1.079.751-1.88.201-.602.402-1.554.603-2.858.199-1.304.399-2.658.6-4.062.201-1.403.352-2.781.451-4.135.102-1.354.152-2.382.152-3.084s-.075-1.379-.226-2.031c-.151-.652-.476-.977-.977-.977-.703 0-1.204.652-1.505 1.954-.501 2.608-1.153 4.639-1.956 6.092-.801 1.455-2.055 2.583-3.761 3.384-1.704.803-3.784 1.279-6.241 1.43-2.457.15-4.537.226-6.243.226-3.409 0-6.243-.151-8.499-.451-2.256-.302-4.061-.853-5.415-1.656-1.353-.801-2.331-1.88-2.933-3.234-.6-1.353-.952-3.133-1.051-5.34v-19.281c-5.863.086-11.807.334-17.75.789zm17.75-27.483V64.956c0-.802.3-1.203.902-1.203.702 0 2.056.024 4.061.074 2.006.05 4.161.101 6.467.151 2.308.05 4.438.1 6.394.149 1.954.052 3.233.126 3.835.226 3.308.302 5.465.878 6.467 1.73 1.004.853 1.755 1.831 2.256 2.934.402.803.652 1.654.753 2.556.1.903.15 1.606.15 2.107 0 1.104.351 1.654 1.053 1.654.501 0 .853-.275 1.054-.828.2-.551.35-.977.451-1.277.099-.402.176-1.004.226-1.805.049-.803.124-1.629.225-2.482a45.925 45.925 0 0 0 .3-4.137c.201-2.907.427-4.888.677-5.941.251-1.054.377-1.83.377-2.331 0-.803-.302-1.205-.903-1.205-.302 0-.627.077-.978.226-.35.151-.727.277-1.129.376-.501.102-1.252.226-2.256.377a51.71 51.71 0 0 1-3.308.375h-36.099c-1.906 0-4.688-.05-8.348-.149a390.079 390.079 0 0 0-10.755-.151c-2.006 0-3.008.401-3.008 1.202 0 .903.751 1.354 2.256 1.354 1.002 0 2.006.027 3.008.077 1.002.049 1.755.175 2.256.374 2.105.603 3.535 1.354 4.287 2.257.752.902 1.227 2.457 1.428 4.663 0 1.004.025 2.08.077 3.233.049 1.155.074 2.683.074 4.589v19.038a293.216 293.216 0 0 1 17.75-3.795zm75.658-5.918h.451c.602.603 1.879 1.931 3.835 3.987 1.957 2.056 4.337 4.537 7.146 7.445 2.807 2.909 5.941 6.142 9.399 9.702a348.45 348.45 0 0 0 10.605 10.453 2523.8 2523.8 0 0 0 10.68 10.304 8200.88 8200.88 0 0 0 10.755 10.304c3.459 3.308 6.668 6.368 9.626 9.174a446.553 446.553 0 0 0 7.596 7.071 12.885 12.885 0 0 0 2.407 1.88c.903.551 1.905.827 3.008.827.501 0 .977-.326 1.429-.978.451-.652.677-1.679.677-3.083l1.504-80.623c.1-3.61.476-6.142 1.128-7.596.652-1.454 1.88-2.431 3.685-2.934.803-.199 1.505-.325 2.107-.374.6-.05 1.252-.077 1.954-.077 1.505 0 2.256-.451 2.256-1.354 0-.801-1.002-1.202-3.008-1.202-3.208 0-5.967.05-8.273.151-2.306.099-3.86.149-4.662.149-1.405 0-3.686-.05-6.844-.149a313.71 313.71 0 0 0-10.002-.151c-2.207 0-3.31.401-3.31 1.202 0 .903.701 1.354 2.107 1.354.902 0 2.03.027 3.384.077 1.354.049 2.532.275 3.534.676 1.604.601 2.732 1.655 3.384 3.159.652 1.503 1.029 4.211 1.128 8.122l1.354 56.857h-.601c-.502-.402-1.856-1.73-4.061-3.986a3769.126 3769.126 0 0 0-7.597-7.746 1467.273 1467.273 0 0 0-8.95-9.025c-3.109-3.109-5.765-5.767-7.971-7.971a3884.82 3884.82 0 0 1-14.291-14.065 1532.888 1532.888 0 0 1-12.709-12.71 4199.425 4199.425 0 0 1-9.401-9.552c-2.507-2.557-3.96-4.035-4.362-4.436a76.065 76.065 0 0 0-3.084-2.933c-.952-.853-1.83-1.279-2.631-1.279-.702 0-1.255.401-1.656 1.202-.4.803-.6 1.857-.6 3.159l-1.205 75.811c0 2.806-.05 5.137-.149 6.994-.101 1.855-.302 3.384-.602 4.587-.3 1.202-.702 2.105-1.203 2.707-.503.602-1.204 1.002-2.107 1.203-.903.201-1.905.352-3.008.451a32.85 32.85 0 0 1-3.007.151c-1.406 0-2.108.451-2.108 1.354 0 .602.278.977.829 1.128.55.151 1.279.226 2.181.226 3.409 0 6.492-.075 9.25-.226 2.758-.151 4.437-.225 5.039-.225 1.203 0 3.285.074 6.242.225 2.959.151 6.593.226 10.905.226 2.006 0 3.008-.451 3.008-1.354s-.752-1.354-2.256-1.354c-1.102 0-2.257-.049-3.46-.151a13.262 13.262 0 0 1-3.458-.751c-1.304-.501-2.333-1.679-3.084-3.535-.752-1.855-1.228-5.289-1.429-10.303L225.2 83.456zm137.329 32.49c0 5.916-.025 11.256-.075 16.019-.05 4.763-.225 8.499-.528 11.206-.199 1.905-.55 3.434-1.051 4.588-.501 1.153-1.456 1.881-2.859 2.181-1.103.3-2.658.451-4.663.451-.802 0-1.354.151-1.655.451-.299.301-.45.603-.45.903 0 .903.852 1.354 2.556 1.354 1.304 0 2.809-.025 4.512-.075l5.04-.151c1.654-.05 3.159-.099 4.513-.151a91.84 91.84 0 0 1 3.233-.074c1.906 0 4.84.074 8.799.225 3.962.151 8.148.226 12.56.226 1.704 0 2.557-.451 2.557-1.354 0-.3-.151-.602-.451-.903-.3-.3-.853-.451-1.654-.451-1.004 0-2.157-.025-3.461-.074-1.302-.052-2.405-.176-3.308-.377-2.006-.3-3.309-1.028-3.912-2.181-.6-1.154-1.002-2.631-1.203-4.437-.3-2.808-.501-6.594-.602-11.357a777.407 777.407 0 0 1-.149-16.019V64.204l16.696.3c3.008 0 5.49.25 7.446.752 1.955.502 3.535 1.103 4.738 1.805 1.203.703 2.055 1.48 2.556 2.332.501.853.803 1.679.903 2.482l.15 1.354c.1 1.703.603 2.556 1.505 2.556.601 0 1.002-.701 1.203-2.105 0-.803.025-1.931.075-3.384.049-1.455.076-2.983.076-4.589 0-1.604.025-3.082.075-4.436.049-1.354.074-2.382.074-3.084 0-1.805-.35-2.708-1.051-2.708-.201 0-.578.05-1.129.151l-2.481.451c-1.004.201-2.232.351-3.687.452-1.453.099-3.233.149-5.338.149h-53.7c-2.205 0-4.461-.05-6.769-.149a115.872 115.872 0 0 1-6.466-.452c-1.706-.2-2.958-.5-3.762-.902-.802-.401-1.453-.602-1.955-.602-.702 0-1.203.803-1.503 2.407-.101.3-.302 1.178-.603 2.631-.299 1.455-.627 3.035-.977 4.738-.351 1.706-.652 3.36-.902 4.964-.25 1.606-.377 2.658-.377 3.159 0 1.405.402 2.106 1.203 2.106.702 0 1.204-.552 1.505-1.655l.751-1.88c.302-.751.803-1.579 1.505-2.481 1.002-1.404 2.432-2.381 4.287-2.934 1.854-.55 4.688-.878 8.499-.977l19.704-.451v51.742z" fill="#292D78"/><path d="M181.825 99.638c-35.273.943-79.613 6.633-108.682 25.595 22.284-22.597 70.654-33.776 113.735-37.06l-5.053 11.465" fill="#292D78"/><path d="M175.875 113.139c-33.404-1.978-73.452-.069-103.315 14.119 24.3-18.018 67.741-24.451 107.858-24.425l-4.543 10.306" fill="#D9222A"/></g></svg>