<?xml version="1.0" encoding="UTF-8"?>
<svg width="48px" height="48px" viewBox="0 0 48 48" version="1.1" xmlns="http://www.w3.org/2000/svg" xmlns:xlink="http://www.w3.org/1999/xlink">
    <!-- Generator: Sketch 41.1 (35376) - http://www.bohemiancoding.com/sketch -->
    <title>Artboard</title>
    <desc>Created with Sketch.</desc>
    <defs></defs>
    <g id="Page-1" stroke="none" stroke-width="1" fill="none" fill-rule="evenodd">
        <g id="Artboard" fill="#D8BA27">
            <path d="M21.3448276,36.2492837 C18.6896552,36.2492837 17.4224138,37.3925501 17.4224138,39.5702006 C17.4224138,41.8567335 18.6896552,43 21.3448276,43 C23.8189655,43 25.0862069,41.8567335 25.0862069,39.5702006 C25.0862069,37.3925501 23.8189655,36.2492837 21.3448276,36.2492837 Z M23.5172414,5 C20.5,5 16.4568966,5.16332378 13.5,7.01432665 L13.862069,14.5816619 L15.9137931,14.4727794 C16.1551724,9.51862464 18.5689655,8.0487106 22.5517241,8.0487106 C26.2931034,8.0487106 27.862069,9.73638968 27.862069,13.1661891 C27.862069,21.0601719 17.9051724,22.530086 17.9051724,29.5530086 C17.9051724,32.0028653 19.0517241,33.1461318 20.9827586,34.5071633 L22.7931034,33.5272206 C22.1293103,32.2750716 21.7672414,30.9684814 21.7672414,30.3696275 C21.7672414,26.0687679 27.7413793,22.747851 31.0603448,20.1346705 C33.5344828,18.1747851 34.5,16.4326648 34.5,12.2951289 C34.5,7.66762178 29.4310345,5 23.5172414,5 Z" id="?"></path>
        </g>
    </g>
</svg>