<svg viewBox="0 0 268 268" version="1.1" xmlns="http://www.w3.org/2000/svg">
    <path d="M252.716,267.447 C260.851,267.447 267.446,260.852 267.446,252.717 L267.446,15.283 C267.446,7.146 260.851,0.553 252.716,0.553 L15.284,0.553 C7.146,0.553 0.553,7.146 0.553,15.283 L0.553,252.717 C0.553,260.852 7.146,267.447 15.284,267.447 L252.716,267.447" id="background" fill="#395185"></path>
    <path d="M184.705,267.447 L184.705,164.092 L219.397,164.092 L224.591,123.812 L184.705,123.812 L184.705,98.095 C184.705,86.433 187.943,78.486 204.667,78.486 L225.997,78.476 L225.997,42.45 C222.306,41.96 209.646,40.863 194.916,40.863 C164.163,40.863 143.109,59.634 143.109,94.107 L143.109,123.812 L108.328,123.812 L108.328,164.092 L143.109,164.092 L143.109,267.447 L184.705,267.447" id="f" fill="#FFFFFF"></path>
</svg>