<?xml version="1.0" standalone="no"?>
<!DOCTYPE svg PUBLIC "-//W3C//DTD SVG 1.1//EN" "http://www.w3.org/Graphics/SVG/1.1/DTD/svg11.dtd" >
<svg xmlns="http://www.w3.org/2000/svg">
<metadata></metadata>
<defs>
<font id="byingtonbold" horiz-adv-x="606" >
<font-face units-per-em="1000" ascent="752" descent="-248" />
<missing-glyph horiz-adv-x="290" />
<glyph unicode="&#xfb01;" horiz-adv-x="701" d="M666 32v-32h-295v32q78 0 78 69v258q0 59 -70 59h-126q-14 -3 -14 -12v-319q0 -55 99 -55v-32h-304v32q73 0 73 55v319q0 11 -9 12h-66l20 44h46q9 0 9 29q0 101 67.5 178.5t164.5 77.5q94 0 162.5 -40t68.5 -107q0 -27 -17.5 -45t-44.5 -18q-30 0 -48.5 16t-27.5 38.5 t-19 44.5t-33 38t-60 16q-26 0 -43 -13.5t-25 -40.5t-10.5 -54.5t-2.5 -67.5v-23q0 -29 14 -29h202q50 0 124 26v-391q0 -65 87 -65z" />
<glyph unicode="&#xfb02;" horiz-adv-x="711" d="M678 32v-32h-292v32q74 0 74 52v511q-43 53 -77.5 74t-80.5 21q-37 0 -50 -47t-13 -129v-23q0 -29 14 -29h111l-5 -44h-106q-14 -3 -14 -12v-319q0 -55 78 -55v-32h-283v32q73 0 73 55v319q0 11 -9 12h-66l20 44h46q9 0 9 29q0 95 77 175.5t155 80.5q69 0 100 -32l152 36 v-671q0 -48 87 -48z" />
<glyph unicode="&#xfb03;" horiz-adv-x="1046" d="M239 491q0 -29 14 -29h193q10 0 10 29q0 101 67 178.5t164 77.5q94 0 162 -40t68 -107q0 -27 -17 -45t-44 -18q-30 0 -48.5 16t-27.5 38.5t-19 44.5t-33 38t-61 16q-48 0 -64 -46.5t-16 -129.5v-23q0 -29 14 -29h202q50 0 124 26v-391q0 -65 86 -65v-32h-291v32 q74 0 74 69v258q0 59 -69 59h-126q-14 -3 -14 -12v-319q0 -55 87 -55v-32h-303v32q85 0 85 55v319q0 10 -10 12h-193q-14 -3 -14 -12v-319q0 -55 82 -55v-32h-287v32q73 0 73 55v319q0 11 -9 12h-66l20 44h46q9 0 9 29q0 94 81.5 175t160.5 81q45 0 71.5 -17t26.5 -49 q0 -11 -19.5 -26t-36.5 -15t-38.5 25t-42.5 25q-37 0 -54 -49.5t-17 -126.5v-23z" />
<glyph unicode="&#xfb04;" horiz-adv-x="1048" d="M239 491q0 -29 14 -29h181q11 0 11 29q0 95 77 175.5t155 80.5q70 0 99 -32l153 36v-671q0 -48 85 -48v-32h-290v32q73 0 73 52v511q-43 54 -77.5 74.5t-81.5 20.5q-36 0 -49 -47t-13 -129v-23q0 -29 13 -29h112l-4 -44h-108q-13 -3 -13 -12v-319q0 -55 81 -55v-32h-283 v32q71 0 71 55v319q0 10 -11 12h-181q-14 -3 -14 -12v-319q0 -55 73 -55v-32h-278v32q73 0 73 55v319q0 11 -9 12h-66l20 44h46q9 0 9 29q0 94 81.5 175t160.5 81q45 0 71.5 -17t26.5 -49q0 -11 -19.5 -26t-36.5 -15t-38.5 25t-42.5 25q-37 0 -54 -49.5t-17 -126.5v-23z" />
<glyph horiz-adv-x="0" />
<glyph horiz-adv-x="0" />
<glyph horiz-adv-x="333" />
<glyph unicode="&#xd;" horiz-adv-x="290" />
<glyph horiz-adv-x="329" />
<glyph unicode=" "  horiz-adv-x="290" />
<glyph unicode="&#x09;" horiz-adv-x="290" />
<glyph unicode="&#xa0;" horiz-adv-x="290" />
<glyph unicode="!" horiz-adv-x="208" d="M104 692q39 0 66 -33v-65q-39 -168 -39 -426h-55q0 73 -11.5 201.5t-28.5 225.5v64q25 33 68 33zM104 113q61 0 61 -61q0 -63 -61 -63q-66 0 -66 63q0 61 66 61z" />
<glyph unicode="&#x22;" horiz-adv-x="372" d="M267 694q50 0 50 -40q0 -63 -35 -225h-36q-31 162 -31 225q0 40 52 40zM107 694q50 0 50 -40q0 -58 -36 -225h-35q-32 161 -32 225q0 40 53 40z" />
<glyph unicode="#" horiz-adv-x="578" d="M403 270h103l-9 -55h-106l-46 -215h-59l47 215h-126l-42 -215h-62l47 215h-115l8 55h118l22 129h-112l11 55h114l47 215h59l-43 -215h121l47 215h58l-42 -215h98l-9 -55h-105zM345 270l23 129h-121l-28 -129h126z" />
<glyph unicode="$" horiz-adv-x="409" d="M244 289v-163q19 13 31 35t12 44q0 53 -43 84zM190 447v161q-56 -14 -56 -72q0 -28 10.5 -44.5t45.5 -44.5zM360 622l-3 -90h-21q-18 64 -92 77v-198q81 -59 103.5 -91.5t22.5 -84.5q0 -45 -33 -87.5t-93 -60.5v-107h-54v100h-22q-82 0 -134 28l13 105l28 -3v-12 q0 -87 115 -87v214q-35 23 -55 38t-42.5 38t-32.5 49t-10 58q0 54 38.5 88t101.5 43v71h54v-69q54 -2 116 -19z" />
<glyph unicode="%" horiz-adv-x="774" d="M186 701q59 0 93 -50t34 -121q0 -83 -35.5 -133t-99.5 -50q-62 0 -93.5 48t-31.5 120q0 89 34 137.5t99 48.5zM171 678q-45 0 -45 -142q0 -83 13.5 -125t46.5 -42q18 0 30 11.5t16.5 36t5.5 43t1 50.5q0 36 -1.5 59.5t-7.5 51.5t-21 42.5t-38 14.5zM584 681h81l-482 -681 h-76zM594 336q59 0 93 -50t34 -121q0 -83 -35.5 -133t-99.5 -50q-62 0 -93.5 48t-31.5 120q0 89 34 137.5t99 48.5zM579 313q-45 0 -45 -142q0 -83 13.5 -125t46.5 -42q18 0 30 11.5t16.5 36t5.5 43t1 50.5q0 36 -1.5 59.5t-7.5 51.5t-21 42.5t-38 14.5z" />
<glyph unicode="&#x26;" horiz-adv-x="901" d="M511 347v33l180 -18q-10 -136 -84 -224h-2q57 -49 111.5 -75t126.5 -34l3 -29h-105q-109 0 -207 66q-116 -78 -233 -78q-244 0 -244 199q0 58 37.5 113.5t114.5 97.5q-50 64 -50 135q0 155 216 155q75 0 151 -26l-11 -125l-24 -7q-12 62 -44.5 95t-72.5 33q-98 0 -98 -95 q0 -44 25 -95.5t73 -107.5t86 -94.5t94 -90.5q35 60 35 98q0 74 -78 74zM482 103q-157 125 -251 254q-49 -32 -49 -123q0 -183 157 -183q34 0 61.5 9.5t81.5 42.5z" />
<glyph unicode="'" horiz-adv-x="185" d="M93 694q50 0 50 -40q0 -65 -36 -225h-35q-32 171 -32 225q0 40 53 40z" />
<glyph unicode="(" horiz-adv-x="313" d="M257 723l10 -33q-147 -150 -147 -420q0 -219 148 -408l-10 -35q-126 132 -176.5 232t-50.5 211q0 131 54 241t172 212z" />
<glyph unicode=")" horiz-adv-x="312" d="M57 -174l-12 32q71 71 109.5 180t38.5 240q0 229 -149 408l13 33q123 -129 173.5 -229.5t50.5 -211.5q0 -133 -52.5 -240.5t-171.5 -211.5z" />
<glyph unicode="*" horiz-adv-x="469" d="M235 707q15 0 28 -12.5t13 -32.5q0 -21 -12 -56t-12 -55q0 -7 3 -7q6 0 24 25t41.5 50.5t41.5 25.5q16 0 28 -12t12 -28q0 -20 -30.5 -40.5t-61 -34.5t-30.5 -17t11 -3q15 0 38.5 1t33.5 1q70 0 70 -47q0 -16 -11 -27t-30 -11q-21 0 -65 24.5t-54 24.5q-3 0 -3 -2 q0 -9 36.5 -54t36.5 -64q0 -16 -11.5 -28t-26.5 -12q-26 0 -41 35.5t-21 71t-10 35.5t-9 -22t-10 -49t-18.5 -49t-32.5 -22q-18 0 -29 11.5t-11 29.5q0 23 38 68.5t38 48.5t-3 3t-50.5 -24.5t-70.5 -24.5q-18 0 -29.5 11.5t-11.5 28.5q0 44 75 44q12 0 29 -1t22 -1 q31 0 31 3q0 8 -31.5 21t-62.5 32t-31 40q0 16 12 27.5t28 11.5q19 0 42.5 -25.5t41.5 -51t23 -25.5q3 0 3 8q0 20 -10.5 54t-10.5 57q0 21 11.5 33t28.5 12z" />
<glyph unicode="+" horiz-adv-x="513" d="M24 301h191v194h83v-194h191v-79h-191v-187h-83v187h-191v79z" />
<glyph unicode="," horiz-adv-x="183" d="M71 -89l-28 18q30 60 30 79q0 24 -37 56q18 56 78 68q41 -36 41 -70q0 -36 -84 -151z" />
<glyph unicode="-" horiz-adv-x="375" d="M312 301v-75h-252v75h252z" />
<glyph unicode="." horiz-adv-x="247" d="M123 113q61 0 61 -61q0 -63 -61 -63q-65 0 -65 63q0 61 65 61z" />
<glyph unicode="/" horiz-adv-x="401" d="M24 -55l289 751h64l-290 -751h-63z" />
<glyph unicode="0" d="M309 693q117 0 185 -100.5t68 -241.5q0 -165 -70.5 -265.5t-199.5 -100.5q-63 0 -111.5 27t-78 74.5t-44.5 107t-15 127.5q0 179 67.5 275.5t198.5 96.5zM278 647q-89 0 -89 -284q0 -166 26.5 -250t92.5 -84q25 0 44 11t30.5 34.5t18.5 46t10 60.5t3.5 63t0.5 66 q0 46 -1 78.5t-5.5 75.5t-13.5 72t-23.5 56.5t-38.5 41t-55 13.5z" />
<glyph unicode="1" d="M349 709l42 -17q-7 -35 -7 -61v-569q0 -30 98 -30v-32h-336v32q112 0 112 30v486q0 32 -9 32l-100 -49l-27 29z" />
<glyph unicode="2" d="M312 692q103 0 153 -43.5t50 -136.5q0 -52 -18 -103.5t-45.5 -93t-69.5 -86t-79 -76t-86 -69.5h196q48 0 69.5 15t39.5 71l24 -8l-39 -162h-352q-41 0 -93 -7l-3 26q9 9 34.5 33t38.5 36q53 51 76.5 75t65 72.5t61 83t35.5 82.5t16 95q0 72 -36 106.5t-94 34.5 q-57 0 -88.5 -23t-39.5 -86l-26 -7l-6 128q56 27 101.5 35t114.5 8z" />
<glyph unicode="3" d="M286 693q209 0 209 -138q0 -50 -32.5 -92.5t-100.5 -66.5v-6q167 -42 167 -178q0 -226 -270 -226q-179 0 -183 26l9 154l25 -5q9 -63 38 -97t66 -34q82 0 129 39t47 114q0 139 -164 175v32q72 0 108.5 38t36.5 109q0 52 -33 79.5t-87 27.5q-46 0 -77.5 -28t-33.5 -80 l-24 6l-8 105q73 46 178 46z" />
<glyph unicode="4" d="M344 47v138q0 10 -12 10h-288l-12 29l371 474l63 -7v-418q0 -11 13 -11h32q16 0 63 17l-17 -84h-78q-13 0 -13 -10v-138q0 -15 80 -15v-32h-286v32q84 0 84 15zM344 273v268l-223 -279h211q12 0 12 11z" />
<glyph unicode="5" d="M159 681h281q24 0 71 10l-9 -139l-27 -9q-4 57 -14 74t-44 17h-177l-13 -146q120 -20 204.5 -86t84.5 -162q0 -110 -75.5 -182.5t-225.5 -72.5q-24 0 -63 7t-62 16l6 150h22q5 -65 38 -100t76 -35q60 0 108 46t48 126q0 91 -67 148t-174 76l-11 11z" />
<glyph unicode="6" d="M295 352q-14 0 -32 -6l-9 41q36 12 84 12q89 0 149 -51.5t60 -131.5q0 -110 -61 -170.5t-174 -60.5q-132 0 -193 67t-61 197q0 86 39 168.5t98 140.5t125 97.5t125 50.5l7 -37q-31 -10 -73 -45t-85 -87.5t-72.5 -129.5t-29.5 -157q0 -98 31.5 -160.5t88.5 -62.5 q49 0 79 45.5t30 114.5q0 81 -35 123t-91 42z" />
<glyph unicode="7" d="M528 681l9 -30q-71 -109 -139 -287t-94 -327l-136 -58l-16 18q94 384 284 601h-261q-20 0 -35.5 -12.5t-24 -28.5t-21.5 -49l-26 13l22 166q51 -6 120 -6h318z" />
<glyph unicode="8" d="M311 693q82 0 138 -34.5t56 -105.5q0 -61 -36 -104t-98 -66q77 -24 123.5 -76t46.5 -118q0 -97 -67 -150.5t-174 -53.5q-101 0 -168.5 47.5t-67.5 135.5q0 71 47 122.5t116 71.5q-135 52 -135 172q0 63 59 111t160 48zM308 16q40 0 71.5 46.5t31.5 100.5q0 24 -8.5 45.5 t-19.5 36.5t-29.5 30t-30 22.5t-30.5 18t-22 12.5q-39 -14 -68.5 -63t-29.5 -102q0 -62 39.5 -104.5t95.5 -42.5zM305 651q-94 0 -94 -95q0 -50 32.5 -89t80.5 -59q76 44 76 124q0 55 -25 87t-70 32z" />
<glyph unicode="9" d="M301 344q30 0 53 16l15 -39q-36 -24 -106 -24q-77 0 -140 52.5t-63 138.5q0 101 69.5 153.5t171.5 52.5q131 0 187 -66t56 -199q0 -86 -37 -168t-94 -140t-122 -97.5t-123 -50.5l-7 36q41 14 97 67.5t101 135.5q51 93 51 217q0 100 -27 161t-82 61q-52 0 -83.5 -33.5 t-31.5 -99.5q0 -80 35 -127t80 -47z" />
<glyph unicode=":" horiz-adv-x="227" d="M113 148q62 0 62 -61q0 -63 -62 -63q-65 0 -65 63q0 61 65 61zM113 436q62 0 62 -62t-62 -62q-65 0 -65 62t65 62z" />
<glyph unicode=";" horiz-adv-x="201" d="M102 436q61 0 61 -62t-61 -62q-66 0 -66 62t66 62zM116 132q41 -36 41 -70q0 -36 -84 -151l-29 18q31 59 31 79q0 22 -36 56q18 56 77 68z" />
<glyph unicode="&#x3c;" horiz-adv-x="456" d="M40 242v30l370 174v-62l-275 -126l275 -126v-64z" />
<glyph unicode="=" horiz-adv-x="556" d="M501 215v-63h-444v63h444zM501 371v-62h-444v62h444z" />
<glyph unicode="&#x3e;" horiz-adv-x="457" d="M435 272v-30l-370 -174v63l275 126l-275 126v63z" />
<glyph unicode="?" horiz-adv-x="417" d="M170 113q62 0 62 -61q0 -63 -62 -63q-65 0 -65 63q0 61 65 61zM206 687q77 0 129.5 -36t52.5 -98q0 -55 -12.5 -85.5t-44.5 -58.5q-7 -6 -45 -37t-55 -47t-35.5 -46t-18.5 -58q0 -22 17 -58l-30 -18q-27 21 -39 40.5t-12 50.5q0 35 17 66t41.5 54.5t48.5 48t41 58.5 t17 74q0 48 -21 71t-67 23q-53 0 -80 -26.5t-30 -91.5l-34 -2l-6 139q53 37 166 37z" />
<glyph unicode="@" horiz-adv-x="798" d="M428 681q148 0 232.5 -78t84.5 -212q0 -115 -60.5 -176t-155.5 -61q-73 0 -74 57q-44 -53 -106 -53q-58 0 -94.5 32t-36.5 104q0 105 57 161.5t136 56.5q73 0 96 -44l10 33h80l-74 -249q5 -71 26 -71q48 0 90 58.5t42 147.5q0 114 -64.5 179t-184.5 65q-131 0 -219 -78 t-88 -220q0 -143 85 -220t218 -77q61 0 125.5 25t110.5 68l29 -35q-39 -49 -114 -77.5t-163 -28.5q-163 0 -263 89t-100 256q0 162 101.5 255t273.5 93zM411 481q-44 0 -70.5 -49t-26.5 -137q0 -53 14.5 -79.5t35.5 -26.5q35 0 83 98h-1l31 120q-5 74 -66 74z" />
<glyph unicode="A" horiz-adv-x="780" d="M363 699l61 -9l243 -616q19 -41 87 -46v-28h-258v32q35 2 35 36q0 10 -6 27l-50 120q-12 27 -45 27h-183q-20 0 -30 -27l-41 -105q-6 -14 -6 -25q0 -21 13 -35t40 -14v-36h-195v35q32 0 50 15t37 60zM344 529l-77 -192q-10 -23 -10 -33q0 -18 21 -18h147q13 0 13 11 q0 10 -14 36z" />
<glyph unicode="B" horiz-adv-x="595" d="M31 681h247q92 0 144.5 -37.5t52.5 -107.5q0 -48 -29 -90.5t-83 -65.5q78 -12 132.5 -64t54.5 -120q0 -84 -66 -142t-171 -58q-36 0 -101 2t-101 2h-76v32q62 0 62 14v577q0 26 -66 26v32zM255 352h-21v-274q0 -42 49 -42h25q53 0 75.5 35.5t22.5 104.5q0 82 -37.5 129 t-113.5 47zM234 628v-237q71 0 95.5 22.5t24.5 89.5q0 69 -25.5 103.5t-67.5 34.5q-27 0 -27 -13z" />
<glyph unicode="C" horiz-adv-x="780" d="M460 693q120 0 254 -31l-10 -165h-26q-15 83 -64 119.5t-154 36.5q-130 0 -195 -79t-65 -212q0 -146 74.5 -238t197.5 -92q161 0 216 136l32 -10l-32 -143q-114 -30 -239 -30q-181 0 -289.5 105t-108.5 256q0 165 100.5 256t308.5 91z" />
<glyph unicode="D" horiz-adv-x="819" d="M385 685q184 0 282.5 -91t98.5 -254q0 -158 -103.5 -249t-279.5 -91h-339v32q62 0 62 48v517q0 52 -65 52v36q45 -7 91 -7q44 0 127.5 3.5t125.5 3.5zM375 641h-85q-29 0 -37.5 -10.5t-8.5 -51.5v-462q0 -52 14 -65t59 -13h75q113 0 167 73t54 228q0 151 -61 226t-177 75 z" />
<glyph unicode="E" horiz-adv-x="543" d="M44 649v32h368q21 0 37 14l15 -7l-17 -131h-29q-6 75 -62 75h-97q-12 0 -12 -24v-193q0 -30 15 -30h126q21 0 44 32l17 -3l-17 -143h-26q-9 65 -41 65h-103q-15 0 -15 -23v-242q0 -22 14 -22h70q97 0 128 83l24 -15l-17 -117h-414v32q57 0 57 21v556q0 40 -65 40z" />
<glyph unicode="F" horiz-adv-x="517" d="M316 0h-261v32q53 0 53 36v541q0 40 -65 40v32h387q20 0 36 14l14 -18l-16 -120h-29q-4 75 -62 75h-113q-14 0 -14 -24v-193q0 -30 15 -30h132q25 0 40 32h22l-15 -146h-26q-14 65 -44 65h-109q-15 0 -15 -23v-245q0 -36 70 -36v-32z" />
<glyph unicode="G" horiz-adv-x="812" d="M461 693q123 0 254 -31l-10 -165h-26q-15 82 -70 119t-161 37q-249 0 -249 -277q0 -145 86 -245.5t211 -100.5q78 0 94 25v227q0 24 -68 24v31h257v-31q-54 0 -54 -24v-231q-55 -36 -119 -51t-157 -15q-181 0 -289 104.5t-108 256.5q0 165 100.5 256t308.5 91z" />
<glyph unicode="H" horiz-adv-x="811" d="M303 32v-32h-265v32q69 0 69 24v549q0 44 -69 44v32h265v-32q-57 0 -57 -44v-194q0 -12 11 -13h313q12 2 12 13v194q0 44 -66 44v32h261v-32q-57 0 -57 -44v-549q0 -24 57 -24v-32h-261v32q66 0 66 24v288q0 14 -12 16h-313q-11 -1 -11 -16v-288q0 -24 57 -24z" />
<glyph unicode="I" horiz-adv-x="335" d="M303 32v-32h-261v32q62 0 62 24v549q0 44 -66 44v32h261v-32q-58 0 -58 -44v-549q0 -24 62 -24z" />
<glyph unicode="J" horiz-adv-x="337" d="M305 681v-32q-59 0 -59 -44v-511q0 -72 -13.5 -123t-46.5 -91t-68 -66t-99 -63l-20 46q108 66 108 277v526q0 49 -69 49v32h267z" />
<glyph unicode="K" horiz-adv-x="789" d="M303 681v-32q-65 0 -65 -29v-258q74 29 231 233q15 19 15 36q0 20 -33 20v30h231v-29q-77 -16 -103 -30q-20 -12 -37 -30l-177 -179l220 -296q62 -85 173 -85v-32q-172 0 -233 16t-105 82l-155 230h-27v-272q0 -24 76 -24v-32h-269v32q57 0 57 24v564q0 29 -64 29v32h265 z" />
<glyph unicode="L" horiz-adv-x="544" d="M37 649v32h262v-32q-58 0 -58 -33v-549q0 -18 49 -18h65q61 0 86 15t46 74l25 -7l-18 -131h-445v32q55 0 55 30v554q0 33 -67 33z" />
<glyph unicode="M" horiz-adv-x="1005" d="M247 32v-32h-217v32q83 0 89 53l57 596h64l258 -515l250 515h69l64 -613q0 -36 93 -36v-32h-280v32q44 0 44 30l-42 385l-214 -447h-37l-230 447l-33 -362q1 -23 18 -38t47 -15z" />
<glyph unicode="N" horiz-adv-x="836" d="M244 32v-32h-211v32q69 0 69 38v611h71l509 -506v430q0 44 -94 44v32h216v-32q-75 0 -75 -44v-604l-50 -20l-523 511v-422q0 -38 88 -38z" />
<glyph unicode="O" horiz-adv-x="887" d="M439 693q179 0 287 -91t108 -248q0 -155 -108.5 -262t-286.5 -107q-96 0 -171.5 29.5t-121.5 80t-69.5 113.5t-23.5 134q0 68 24 130t70 112t121.5 79.5t170.5 29.5zM431 658q-110 0 -167 -81.5t-57 -213.5q0 -91 27.5 -166.5t86.5 -124.5t140 -49q113 0 167 84.5 t54 218.5q0 151 -69.5 241.5t-181.5 90.5z" />
<glyph unicode="P" horiz-adv-x="583" d="M38 681h163q40 0 70 2.5t62 2.5q87 0 146.5 -49t59.5 -125q0 -104 -73 -159.5t-184 -55.5v40q65 2 92.5 35t27.5 117q0 73 -38 116.5t-71 43.5h-22q-25 0 -25 -31v-554q0 -32 65 -32v-32h-269v32q66 0 66 29v550q0 38 -70 38v32z" />
<glyph unicode="Q" horiz-adv-x="880" d="M432 693q178 0 286.5 -91t108.5 -248q0 -96 -42.5 -175.5t-120.5 -130.5q164 -91 286.5 -137t242.5 -46q91 0 214 38l19 -40q-152 -53 -298 -53q-282 0 -555 196q-66 -21 -141 -21q-96 0 -171.5 29.5t-121.5 80t-70 113.5t-24 134q0 54 14.5 104.5t46 95.5t76.5 78.5 t109 53t141 19.5zM423 658q-109 0 -166.5 -82t-57.5 -213q0 -142 67 -241t188 -99q113 0 166.5 84t53.5 219q0 151 -69 241.5t-182 90.5z" />
<glyph unicode="R" horiz-adv-x="802" d="M41 649v32h102q44 0 103 2.5t109 2.5q86 0 144 -48t58 -121q0 -113 -122 -205q7 -7 57.5 -69.5t86 -101.5t92 -77.5t102.5 -38.5v-25h-72q-93 0 -148.5 15t-85.5 58q-144 210 -160 210h-62q-10 0 -10 -12v-209q0 -30 95 -30v-32h-281v32q44 0 44 30v557q0 30 -52 30z M235 619v-275q0 -11 22 -18.5t52 -7.5q46 0 74 42.5t28 107.5q0 80 -30 126.5t-75 46.5h-50q-21 0 -21 -22z" />
<glyph unicode="S" horiz-adv-x="508" d="M290 696q63 0 160 -24l-4 -114h-30q-10 34 -26 55.5t-37.5 30.5t-38.5 11.5t-41 2.5q-80 0 -80 -96q0 -45 20 -72.5t101 -89.5q87 -67 117 -111t30 -108q0 -33 -13 -66t-40.5 -63t-77 -48.5t-115.5 -18.5q-76 0 -162 37l14 133l34 -6q-1 -6 -1 -14q0 -61 41.5 -86.5 t92.5 -25.5q52 0 78 34.5t26 80.5q0 47 -25 81t-92 88q-90 72 -120 113.5t-30 107.5q0 77 60 122.5t159 45.5z" />
<glyph unicode="T" horiz-adv-x="689" d="M51 553l-26 13l28 125q60 -10 66 -10h467q10 0 71 10v-133l-26 -8q-13 79 -69 79h-142q-4 0 -4 -17v-541q0 -39 72 -39v-32h-275v32q65 0 65 39v541q0 20 -6 20h-160q-20 0 -61 -79z" />
<glyph unicode="U" horiz-adv-x="787" d="M34 681h264v-32q-57 0 -57 -29v-347q0 -57 6 -96t23.5 -74.5t53.5 -53t91 -17.5q97 0 155.5 61.5t58.5 197.5v314q0 44 -87 44v32h213v-32q-73 0 -73 -44v-290q0 -174 -64.5 -252t-216.5 -78q-149 0 -223 63.5t-74 216.5v355q0 29 -70 29v32z" />
<glyph unicode="V" horiz-adv-x="814" d="M28 649v32h275v-32h-32q-6 0 -6 -25q0 -26 8 -40l179 -432l173 431q6 15 6 30q0 36 -46 36v32h202v-32h-61q-14 0 -27 -33l-267 -634l-70 12l-243 605q-20 50 -91 50z" />
<glyph unicode="W" horiz-adv-x="1125" d="M307 681v-32q-48 0 -48 -25q0 -8 1 -12l122 -448l174 517h80l161 -518l136 434q2 12 2 17q0 35 -64 35v32h227v-32q-77 0 -93 -52l-198 -597h-65l-177 531l-184 -531h-70l-191 613q-17 36 -92 36v32h279z" />
<glyph unicode="X" horiz-adv-x="734" d="M678 681v-32q-62 -2 -88 -38l-168 -238l207 -311q19 -30 71 -30v-32h-247v32q18 0 18 12q0 20 -16 50l-106 193l-117 -189q-8 -13 -8 -37q0 -29 31 -29v-32h-214v32q68 0 120 74l161 228l-176 275q-24 38 -98 40v32h268v-32q-27 0 -27 -21q0 -19 7 -33l93 -174l123 184 q6 11 6 23q0 21 -40 21v32h200z" />
<glyph unicode="Y" horiz-adv-x="731" d="M28 681h234v-32q-16 0 -16 -17t14 -42l130 -245l137 230q19 36 19 50q0 24 -39 24v32h197v-32q-39 0 -58.5 -8.5t-33.5 -29.5l-155 -266q-21 -35 -21 -125v-147q0 -41 66 -41v-32h-271v32q64 0 64 45v140q0 87 -27 128l-133 218q-52 86 -107 86v32z" />
<glyph unicode="Z" horiz-adv-x="633" d="M64 525l-24 9l26 158q46 -11 60 -11h445l8 -20l-398 -617h237q75 0 105.5 27t47.5 83l25 -14l-27 -140h-539l-3 20l399 612h-197q-67 0 -108.5 -22t-56.5 -85z" />
<glyph unicode="[" horiz-adv-x="234" d="M142 678v-724h69v-40h-146v798h146v-34h-69z" />
<glyph unicode="\" horiz-adv-x="464" d="M368 -55l-344 755h79l336 -755h-71z" />
<glyph unicode="]" horiz-adv-x="237" d="M91 -46v724h-68v34h146v-798h-146v40h68z" />
<glyph unicode="^" horiz-adv-x="459" d="M204 681h52l164 -352h-74l-115 252l-117 -252h-76z" />
<glyph unicode="_" horiz-adv-x="520" d="M500 -59v-63h-480v63h480z" />
<glyph unicode="`" horiz-adv-x="256" d="M58 653q4 0 8 -0.5t8 -2.5t6.5 -3.5t7 -5t6 -5t6.5 -6t6 -5.5q57 -52 118 -91l-17 -28q-42 22 -138 59q-50 20 -50 49q0 14 9.5 26.5t29.5 12.5z" />
<glyph unicode="a" horiz-adv-x="538" d="M278 475q70 0 113.5 -37.5t43.5 -114.5v-220q0 -42 22 -42q15 0 46 22l15 -43l-95 -52q-76 0 -103 59q-64 -59 -127 -59q-71 0 -106 29t-35 80q0 66 66 103.5t188 57.5v61q0 105 -60 105q-24 0 -38.5 -17.5t-19.5 -38.5t-19 -38.5t-36 -17.5q-64 0 -64 50q0 32 72.5 72.5 t136.5 40.5zM238 50q40 0 70 27v151q-69 -23 -97 -47.5t-28 -68.5q0 -27 14 -44.5t41 -17.5z" />
<glyph unicode="b" horiz-adv-x="619" d="M349 475q98 0 158.5 -63t60.5 -162q0 -117 -70.5 -189.5t-215.5 -72.5q-91 0 -179 38v566q0 91 -70 91v27l200 42v-310q42 33 116 33zM319 418q-54 0 -89 -33v-280q6 -30 29.5 -51t60.5 -21q56 0 86.5 52t30.5 141q0 41 -10.5 82.5t-39 75.5t-68.5 34z" />
<glyph unicode="c" horiz-adv-x="528" d="M319 473q67 0 112 -15t45 -44q0 -21 -18 -34.5t-39 -13.5q-32 0 -63.5 30t-62.5 30q-35 0 -59 -27t-34 -65t-10 -83q0 -90 34 -133t105 -43q79 0 127 48l30 -21q-22 -56 -80 -85t-125 -29q-109 0 -169.5 62.5t-60.5 170.5q0 113 77 182.5t191 69.5z" />
<glyph unicode="d" horiz-adv-x="636" d="M262 -12q-98 0 -154.5 55t-56.5 172q0 74 42.5 135.5t104 93t123.5 31.5q40 0 70 -19v188q0 39 -86 39v31l222 37v-614q0 -77 75 -77v-35q-67 0 -205 -46v59q-50 -50 -135 -50zM308 55q52 0 87 33v296q-11 21 -37 33.5t-56 12.5q-54 0 -85 -51.5t-31 -123.5 q0 -89 29 -144.5t93 -55.5z" />
<glyph unicode="e" horiz-adv-x="540" d="M289 475q25 0 50 -4.5t52 -17.5t47.5 -32.5t33.5 -52t13 -74.5q0 -6 -2 -20h-298q4 -192 144 -192q37 0 75.5 10.5t55.5 30.5l31 -21q-23 -45 -72 -79.5t-121 -34.5q-117 0 -182 68t-65 169q0 105 66 177.5t172 72.5zM284 436q-38 0 -67.5 -39t-31.5 -88h154q17 0 17 39 q0 33 -24 60.5t-48 27.5z" />
<glyph unicode="f" horiz-adv-x="377" d="M359 418h-106q-14 -3 -14 -12v-319q0 -55 99 -55v-32h-304v32q73 0 73 55v319q0 11 -9 12h-66l20 44h46q9 0 9 29q0 95 77 175.5t155 80.5q47 0 82 -17.5t35 -48.5q0 -11 -19.5 -26t-35.5 -15q-18 0 -49 25t-50 25q-37 0 -50 -47t-13 -129v-23q0 -29 14 -29h111z" />
<glyph unicode="g" horiz-adv-x="553" d="M521 468l17 -21l-32 -53l-62 -6q36 -39 36 -88q0 -70 -58 -114t-176 -44q-36 0 -51 4q-23 -15 -23 -40q0 -16 13 -29t29 -13h138q79 0 127 -35t48 -114q0 -75 -87.5 -128t-193.5 -53q-95 0 -152 38.5t-57 90.5q0 50 37 81t114 53q-51 8 -85 36t-34 46q0 17 30.5 43.5 t61.5 40.5q-101 51 -101 152q0 71 55.5 115t157.5 44q74 0 129 -38zM285 -9q-36 0 -61 -11t-36.5 -28.5t-16 -33.5t-4.5 -33q0 -43 31 -69.5t87 -26.5q66 0 98 29t32 77q0 45 -28 70.5t-102 25.5zM268 438q-78 0 -78 -120q0 -58 20.5 -97.5t57.5 -39.5q42 0 60.5 29.5 t18.5 88.5q0 60 -20 99.5t-59 39.5z" />
<glyph unicode="h" horiz-adv-x="646" d="M291 32v-32h-259v32q74 0 74 55v526q0 70 -71 70v27l200 42v-328q55 51 130 51q88 0 130 -43t42 -135v-217q0 -48 78 -48v-32h-259v32q54 0 54 48v199q0 131 -78 131q-70 0 -97 -40v-283q0 -55 56 -55z" />
<glyph unicode="i" horiz-adv-x="373" d="M338 32v-32h-295v32q78 0 78 69v258q0 59 -70 59v27l200 43v-391q0 -65 87 -65zM182 696q78 0 78 -64q0 -69 -83 -69q-78 0 -78 69q0 64 83 64z" />
<glyph unicode="j" horiz-adv-x="322" d="M54 445l217 46v-396q0 -74 -22 -144t-53 -115.5t-63.5 -73t-56.5 -27.5q-21 0 -35.5 6t-20.5 15t-8 15t-2 11q0 11 9 22.5t26 11.5q12 0 26.5 -7t24.5 -7q25 0 34.5 36.5t9.5 139.5v397q0 43 -86 43v27zM201 696q79 0 79 -64q0 -69 -83 -69q-78 0 -78 69q0 64 82 64z" />
<glyph unicode="k" horiz-adv-x="625" d="M41 714l209 37v-483q47 19 78 67.5t31 75.5q0 20 -35 20v31h253v-31q-71 -3 -115 -30q-33 -21 -76 -73l-40 -49l170 -193q48 -54 87 -54h25v-32h-179q-41 18 -66 51l-133 169v-136q0 -52 76 -52v-32h-281v32q74 0 74 55v540q0 56 -78 56v31z" />
<glyph unicode="l" horiz-adv-x="375" d="M340 32v-32h-295v32q78 0 78 52v543q0 56 -86 56v27l218 41v-671q0 -48 85 -48z" />
<glyph unicode="m" horiz-adv-x="937" d="M43 445l184 42q12 -14 12 -25v-48q67 61 137 61q45 0 73.5 -17.5t57.5 -56.5q77 74 158 74q77 0 120.5 -43.5t43.5 -120.5v-224q0 -55 73 -55v-32h-249v32q49 0 49 55v201q0 125 -67 125q-53 0 -94 -39v-269q0 -73 48 -73v-32h-229v32q49 0 49 78v157q0 146 -58 146 q-68 0 -107 -33v-288q0 -60 52 -60v-32h-253v32q69 0 69 55v297q0 34 -69 34v27z" />
<glyph unicode="n" horiz-adv-x="651" d="M43 445l184 42q12 -14 12 -25v-48q70 61 142 61q69 0 112.5 -36t43.5 -120v-214q0 -73 73 -73v-32h-253v32q49 0 49 78v157q0 146 -55 146q-68 0 -107 -32v-289q0 -60 49 -60v-32h-250v32q69 0 69 55v297q0 34 -69 34v27z" />
<glyph unicode="o" horiz-adv-x="612" d="M310 474q109 0 180 -70t71 -171q0 -116 -74.5 -185.5t-179.5 -69.5q-113 0 -184.5 70t-71.5 172q0 115 74.5 184.5t184.5 69.5zM310 23q35 0 59.5 17t35 45t14 51.5t3.5 49.5q0 249 -115 249q-36 0 -61.5 -18t-36 -47.5t-14.5 -53.5t-4 -49q0 -244 119 -244z" />
<glyph unicode="p" horiz-adv-x="635" d="M388 475q91 0 143.5 -62.5t52.5 -135.5q0 -125 -68.5 -207t-178.5 -82q-54 0 -90 23v-192q0 -39 91 -39v-28h-287v28q60 0 60 34v552q0 52 -68 52v27l192 46q8 -19 8 -43v-29q61 56 145 56zM337 413q-53 0 -94 -36v-316q37 -23 78 -23q53 0 92.5 57t39.5 141 q0 72 -33 124.5t-83 52.5z" />
<glyph unicode="q" horiz-adv-x="592" d="M314 475q92 0 138 -38q16 21 44 40l31 -22q-5 -80 -5 -93v-518q0 -64 68 -64v-28h-285v28q85 0 85 64v167q-48 -25 -112 -25q-103 0 -165 69.5t-62 152.5q0 118 76 192.5t187 74.5zM317 429q-60 0 -97.5 -43.5t-37.5 -139.5q0 -87 41 -143.5t106 -56.5q31 0 61 15v331 q-37 37 -73 37z" />
<glyph unicode="r" horiz-adv-x="473" d="M45 418v27l200 43v-122q13 23 21 36t26 36.5t38 35.5t42 12q29 0 51 -20.5t22 -48.5q0 -26 -17 -53t-43 -27q-25 0 -44.5 17t-36.5 17q-19 0 -34.5 -19t-22.5 -51v-209q0 -60 86 -60v-32h-290v32q73 0 73 65v240q0 42 -16.5 61.5t-54.5 19.5z" />
<glyph unicode="s" horiz-adv-x="456" d="M387 338l-34 -1q-27 99 -108 99q-58 0 -58 -49q0 -52 72 -88q9 -4 36 -17t37.5 -19t30 -20t27.5 -27.5t15.5 -35t7.5 -47.5q0 -68 -62.5 -106.5t-143.5 -38.5q-82 0 -132 37q-11 38 -17 134h32q14 -53 51.5 -93t73.5 -40q74 0 74 64q0 49 -62 82q-10 5 -43.5 21t-45 24 t-30.5 26.5t-26 43t-7 58.5q0 51 47.5 90t126.5 39q63 0 115 -24q20 -52 23 -112z" />
<glyph unicode="t" horiz-adv-x="402" d="M101 418h-69l17 44h52v85l88 106l43 -17v-174h54q14 0 70 14v-58h-124v-246q0 -74 6 -99t32 -25q12 0 36 9.5t44 24.5l14 -33q-18 -21 -59 -41t-74 -20q-25 0 -40 2t-34.5 12t-30 29t-18 55t-7.5 88v244z" />
<glyph unicode="u" horiz-adv-x="649" d="M43 418v28l204 25v-284q0 -136 68 -136q49 0 92 42v295q0 40 -82 40v29l214 14v-381q0 -40 77 -40v-27l-198 -31q-6 14 -6 34v37q-23 -34 -62.5 -54.5t-79.5 -20.5q-76 0 -115 38t-39 136v218q0 38 -73 38z" />
<glyph unicode="v" horiz-adv-x="555" d="M552 462v-32q-52 0 -69 -35l-163 -404l-73 -17l-172 423q-15 33 -63 33v32h259v-32q-53 0 -53 -31q0 -17 6 -31l95 -251l96 237q3 8 5 21.5t3 17.5q0 37 -56 37v32h185z" />
<glyph unicode="w" horiz-adv-x="818" d="M418 278l-115 -293l-65 -8l-146 410q-15 43 -69 43v32h259v-32q-51 0 -51 -32q0 -7 8 -37l57 -229l122 330h52l129 -330l78 231q5 18 5 33q0 34 -69 34v32h199v-32q-58 0 -72 -43l-137 -402l-66 -8z" />
<glyph unicode="x" horiz-adv-x="581" d="M47 430v32h246v-32q-25 0 -25 -24q0 -16 7 -26l49 -84l62 83q8 11 8 27q0 24 -26 24v32h174v-32q-68 0 -100 -42l-92 -126l132 -193q25 -37 89 -37v-32h-268v32q39 0 39 24q0 12 -12 32l-66 101l-70 -100q-10 -11 -10 -28q0 -29 39 -29v-32h-198v32q83 0 115 46l99 142 l-119 181q-19 29 -73 29z" />
<glyph unicode="y" horiz-adv-x="556" d="M357 428v34h196v-34q-54 0 -77 -51l-241 -543q-8 -17 -17 -40t-12.5 -30.5t-11 -16.5t-16.5 -11t-25 -2q-34 0 -58.5 17.5t-24.5 33.5q0 22 38 41q75 34 134 166l-160 392q-18 44 -70 44v34h260v-34h-34q-21 0 -21 -23q0 -13 14 -51l86 -230l94 221q8 19 8 48 q0 35 -62 35z" />
<glyph unicode="z" horiz-adv-x="518" d="M455 157l25 -19l-39 -138h-397v26l266 392h-95q-63 0 -86 -16.5t-63 -94.5l-23 18l43 162q47 -25 98 -25h269v-18l-269 -400h128q50 0 77.5 24.5t65.5 88.5z" />
<glyph unicode="{" horiz-adv-x="265" d="M231 713v-34q-40 -9 -70 -46v-283l-38 -38l38 -38v-258q15 -48 70 -64v-39q-82 6 -148 53v292l-51 54l51 53v273q44 61 148 75z" />
<glyph unicode="|" horiz-adv-x="193" d="M92 751q27 0 27 -12v-849q0 -11 -26 -11q-28 0 -28 11v849q0 12 27 12z" />
<glyph unicode="}" horiz-adv-x="266" d="M104 352v258q-16 47 -70 64v38q80 -4 148 -52v-296l50 -50l-50 -51v-275q-40 -57 -148 -75v33q39 10 70 46v284l37 38z" />
<glyph unicode="~" horiz-adv-x="556" d="M79 179l-27 30q14 60 56 99.5t90 39.5q31 0 56.5 -15t39.5 -33t35.5 -33t45.5 -15q51 0 93 96l33 -29q-15 -64 -52 -103t-92 -39q-29 0 -56.5 15t-45 33t-40 33t-41.5 15q-46 0 -95 -94z" />
<glyph unicode="&#xa1;" horiz-adv-x="208" d="M104 -11q-40 0 -68 34v64q40 174 40 425h55q0 -73 11 -201t28 -225v-63q-23 -34 -66 -34zM104 568q-62 0 -62 62t62 62q64 0 64 -62t-64 -62z" />
<glyph unicode="&#xa2;" horiz-adv-x="427" d="M133 339q0 -130 70 -172v326q-34 -18 -52 -61.5t-18 -92.5zM251 730v-185q69 -1 110 -18.5t41 -47.5q0 -19 -11.5 -31t-32.5 -12q-24 0 -49.5 29.5t-57.5 34.5v-344q76 4 113 62l38 -20q-20 -51 -62 -79t-89 -33v-186q0 -18 -21 -18q-27 0 -27 18v186q-82 7 -128.5 68 t-46.5 151q0 89 44.5 154.5t130.5 80.5v190q0 18 23 18q25 0 25 -18z" />
<glyph unicode="&#xa3;" horiz-adv-x="640" d="M469 692q119 0 119 -83q0 -17 -10.5 -28t-27.5 -11q-24 0 -36.5 11.5t-16 26t-15 26t-34.5 11.5q-36 0 -56.5 -47.5t-42.5 -141.5t-45 -147h141v-52h-165q-41 -70 -91 -112q27 5 43 5q64 0 124 -71q39 -48 95 -48q51 0 108 54l30 -25q-60 -75 -198 -75q-89 0 -136 66 q-34 49 -87 49q-47 0 -105 -107l-38 40q45 69 95 91q44 65 76 133h-70v52h89q12 33 26 83.5t23.5 88t27 79.5t38.5 69t56.5 45t82.5 18z" />
<glyph unicode="&#xa4;" horiz-adv-x="718" d="M603 36l-64 64q-77 -51 -176 -51q-101 0 -181 52l-64 -65l-50 50l62 63q-64 72 -64 177t67 180l-64 64l49 50l67 -66q79 53 178 53q97 0 174 -51l65 64l49 -50l-62 -62q68 -74 68 -182q0 -102 -66 -179l61 -61zM590 326q0 101 -68 162.5t-159 61.5q-101 0 -165.5 -64 t-64.5 -160q0 -102 68.5 -163t161.5 -61q107 0 167 68t60 156z" />
<glyph unicode="&#xa5;" horiz-adv-x="687" d="M586 333v-63h-174v-64h174v-63h-174v-69q0 -42 87 -42v-32h-304v32q89 0 89 46v65h-179v63h179v64h-179v63h153l-120 230q-42 86 -98 86v32h278v-32q-63 0 -63 -35q0 -16 10 -35l107 -209l97 205q7 21 7 43q0 31 -71 31v32h241v-32q-51 0 -73 -38h1l-139 -278h151z" />
<glyph unicode="&#xa6;" horiz-adv-x="209" d="M137 739v-327h-72v327q0 12 34 12q38 0 38 -12zM92 -121l-27 17v319h72v-325q0 -11 -45 -11z" />
<glyph unicode="&#xa7;" horiz-adv-x="432" d="M191 413q-47 0 -47 -50q0 -15 6 -27.5t24 -26t27 -18.5t39 -22q22 5 36.5 21t14.5 39q0 32 -30 57.5t-70 26.5zM353 546l-43 1q-30 99 -105 99q-45 0 -45 -52q0 -26 25.5 -48t72.5 -46t59 -32q69 -47 69 -117q0 -86 -87 -117q70 -51 70 -119q0 -64 -51 -97t-121 -33 q-39 0 -76.5 11.5t-54.5 26.5q-19 62 -28 133h46q17 -53 51 -88t73 -35q28 0 47 15.5t19 39.5q0 28 -22 51.5t-54 41t-63.5 37t-53.5 50t-22 69.5q0 89 94 115q-78 46 -78 117q0 58 39.5 90.5t112.5 32.5q45 0 96 -22q24 -56 30 -124z" />
<glyph unicode="&#xa8;" horiz-adv-x="486" d="M343 640q55 0 55 -53q0 -51 -55 -51t-55 51q0 53 55 53zM144 640q54 0 54 -53q0 -51 -54 -51q-56 0 -56 51q0 53 56 53z" />
<glyph unicode="&#xa9;" horiz-adv-x="820" d="M411 688q151 0 248.5 -98t97.5 -253q0 -152 -96 -252t-250 -100q-155 0 -250 100t-95 252q0 149 100 250t245 101zM414 31q74 0 131 28.5t89 75t48 98t16 104.5q0 76 -27.5 137t-71 96.5t-91.5 53.5t-94 18q-120 0 -202 -85.5t-82 -219.5q0 -80 27.5 -142t71 -96t91 -51 t94.5 -17zM426 495q49 0 109 -15l-4 -86h-22q-6 38 -24.5 54t-58.5 16q-50 0 -75 -33.5t-25 -91.5q0 -63 28 -102.5t77 -39.5q57 0 83 63l24 -8l-13 -74q-49 -15 -104 -15q-77 0 -122.5 49t-45.5 121q0 76 42.5 119t130.5 43z" />
<glyph unicode="&#xaa;" horiz-adv-x="493" d="M250 608q51 0 82 -30.5t31 -92.5v-170q0 -27 23 -27q14 0 30 10l14 -37l-74 -43q-48 0 -69 46q-47 -46 -102 -46q-50 0 -75.5 24.5t-25.5 67.5q0 52 45.5 81.5t149.5 50.5v39q0 75 -52 75q-21 0 -35.5 -13.5t-19.5 -29.5t-13.5 -29.5t-19.5 -13.5q-41 0 -41 44 q0 27 52.5 58.5t99.5 35.5zM220 284q39 0 62 23v96q-62 -17 -87 -34.5t-25 -47.5q0 -37 50 -37z" />
<glyph unicode="&#xab;" horiz-adv-x="383" d="M193 144l-29 -34l-132 150l134 152l26 -37l-73 -116zM325 144l-28 -34l-130 150l132 152l25 -37l-71 -115z" />
<glyph unicode="&#xac;" horiz-adv-x="566" d="M509 0h-78v299h-386v69h464v-368z" />
<glyph unicode="&#xad;" horiz-adv-x="375" d="M312 301v-75h-252v75h252z" />
<glyph unicode="&#xae;" horiz-adv-x="796" d="M398 688q151 0 248 -98t97 -253q0 -152 -95.5 -252t-249.5 -100q-155 0 -250 100t-95 252q0 149 100 250t245 101zM401 31q74 0 130.5 28.5t88.5 75t48 98t16 104.5q0 76 -27.5 137t-71 96.5t-91 53.5t-93.5 18q-120 0 -202.5 -85.5t-82.5 -219.5q0 -80 27.5 -142t71 -96 t91 -51t95.5 -17zM232 491v30h58q28 0 55.5 1t52.5 1q49 0 79.5 -26t30.5 -67q0 -59 -59 -105q59 -79 93.5 -109t74.5 -30v-25h-43q-47 0 -75 6q-20 4 -42.5 28t-50.5 63.5t-32 45.5h-31v-106q0 -9 48 -9v-28h-155v28q22 0 22 9v284q0 9 -26 9zM343 482v-141q0 -5 32 -5 q21 0 33 19.5t12 50.5q0 38 -13 59.5t-34 21.5h-26q-4 0 -4 -5z" />
<glyph unicode="&#xaf;" horiz-adv-x="384" d="M348 549h-313v72h313v-72z" />
<glyph unicode="&#xb0;" horiz-adv-x="379" d="M191 787q66 0 106.5 -39.5t40.5 -107.5q0 -65 -40.5 -111t-106.5 -46q-70 0 -106.5 44t-36.5 109q0 61 37 106t106 45zM187 739q-39 0 -59 -26.5t-20 -69.5q0 -47 24.5 -79.5t67.5 -32.5q40 0 59 27.5t19 71.5q0 50 -25 79.5t-66 29.5z" />
<glyph unicode="&#xb1;" horiz-adv-x="513" d="M24 301h191v194h83v-194h191v-79h-191v-187h-83v187h-191v79zM419 0v-75h-325v75h325z" />
<glyph unicode="&#xb2;" horiz-adv-x="333" d="M171 701q101 0 101 -90q0 -61 -41 -112t-108 -102h98q24 0 35 7.5t20 35.5l12 -4l-20 -81h-176q-22 0 -46 -4l-2 13q37 33 46.5 42t40 41.5t42 51t23.5 48t12 56.5q0 36 -18 53t-47 17t-44.5 -11.5t-19.5 -42.5l-13 -4l-3 64q45 22 108 22z" />
<glyph unicode="&#xb3;" horiz-adv-x="333" d="M158 701q104 0 104 -69q0 -55 -66 -79v-3q83 -21 83 -89q0 -113 -135 -113q-90 0 -91 13l4 77l13 -3q4 -31 19 -48t33 -17q41 0 64.5 19.5t23.5 56.5q0 70 -82 88v16q72 0 72 73q0 26 -16.5 40t-43.5 14q-23 0 -38.5 -14t-16.5 -40l-12 3l-4 52q35 23 89 23z" />
<glyph unicode="&#xb4;" horiz-adv-x="256" d="M199 653q21 0 30 -12t9 -27t-10.5 -26.5t-20.5 -16.5t-31 -11.5t-25 -8.5q-75 -32 -100 -45l-18 28q84 52 119 91q24 28 47 28z" />
<glyph unicode="&#xb6;" horiz-adv-x="551" d="M418 0h-55v680h70q33 0 76 9v-134l-33 -6q-9 70 -48 70q-10 0 -10 -8v-611zM335 0h-57v612q0 23 -26 23h-18q-27 0 -58 -40.5t-31 -108.5q0 -81 28 -112.5t82 -31.5h15v-51q-6 -2 -14 -2q-82 0 -142 55.5t-60 162.5q0 78 43.5 127.5t106.5 49.5q14 0 40 -2t62 -2h29v-680 z" />
<glyph unicode="&#xb7;" horiz-adv-x="375" d="M190 322q62 0 62 -62t-62 -62q-65 0 -65 62t65 62z" />
<glyph unicode="&#xb8;" horiz-adv-x="184" d="M79 -243l-28 17q30 55 30 73q0 22 -37 53q18 52 78 63q41 -33 41 -65q0 -33 -84 -141z" />
<glyph unicode="&#xb9;" horiz-adv-x="333" d="M189 709l21 -8q-3 -19 -3 -31v-284q0 -15 49 -15v-16h-168v16q56 0 56 15v243q0 16 -5 16l-50 -25l-13 15z" />
<glyph unicode="&#xba;" horiz-adv-x="551" d="M274 608q97 0 156.5 -50.5t59.5 -137.5q0 -86 -59.5 -145t-156.5 -59q-104 0 -158.5 57.5t-54.5 139.5q0 80 55.5 137.5t157.5 57.5zM268 575q-55 0 -83.5 -41t-28.5 -108q0 -73 34 -124.5t95 -51.5q57 0 84 43t27 112q0 78 -35 124t-93 46z" />
<glyph unicode="&#xbb;" horiz-adv-x="383" d="M85 111l-28 33l75 116l-74 115l25 37l134 -152zM220 111l-29 32l72 117l-71 115l26 37l132 -152z" />
<glyph unicode="&#xbc;" horiz-adv-x="730" d="M166 709l21 -8q-3 -19 -3 -31v-284q0 -15 49 -15v-16h-168v16q56 0 56 15v243q0 16 -5 16l-50 -25l-13 15zM544 681h81l-482 -681h-76zM562 13v69q0 5 -6 5h-144l-6 15l185 237l32 -4v-209q0 -5 6 -5h16q9 0 32 8l-9 -42h-39q-6 0 -6 -5v-69q0 -7 40 -7v-16h-143v16 q42 0 42 7zM562 126v134l-112 -139h106q6 0 6 5z" />
<glyph unicode="&#xbd;" horiz-adv-x="736" d="M166 709l21 -8q-3 -19 -3 -31v-284q0 -15 49 -15v-16h-168v16q56 0 56 15v243q0 16 -5 16l-50 -25l-13 15zM544 681h81l-482 -681h-76zM566 336q101 0 101 -90q0 -61 -41 -112t-108 -102h98q24 0 35 7.5t20 35.5l12 -4l-20 -81h-176q-22 0 -46 -4l-2 13q37 33 46.5 42 t40 41.5t42 51t23.5 48t12 56.5q0 36 -18 53t-47 17t-44.5 -11.5t-19.5 -42.5l-13 -4l-3 64q45 22 108 22z" />
<glyph unicode="&#xbe;" horiz-adv-x="733" d="M158 701q104 0 104 -69q0 -55 -66 -79v-3q83 -21 83 -89q0 -113 -135 -113q-90 0 -91 13l4 77l13 -3q4 -31 19 -48t33 -17q41 0 64.5 19.5t23.5 56.5q0 70 -82 88v16q72 0 72 73q0 26 -16.5 40t-43.5 14q-23 0 -38.5 -14t-16.5 -40l-12 3l-4 52q35 23 89 23zM547 681h81 l-482 -681h-76zM565 13v69q0 5 -6 5h-144l-6 15l185 237l32 -4v-209q0 -5 6 -5h16q9 0 32 8l-9 -42h-39q-6 0 -6 -5v-69q0 -7 40 -7v-16h-143v16q42 0 42 7zM565 126v134l-112 -139h106q6 0 6 5z" />
<glyph unicode="&#xbf;" horiz-adv-x="417" d="M257 562q-61 0 -61 62q0 63 61 63q67 0 67 -63q0 -62 -67 -62zM222 -12q-77 0 -130 36.5t-53 98.5q0 54 13 84.5t45 59.5q11 10 45.5 37.5t53.5 45.5t37 47.5t18 57.5q0 24 -18 57l30 19q27 -21 39 -40.5t12 -50.5q0 -45 -25 -81.5t-69 -76.5q-70 -63 -70 -145 q0 -47 21 -69.5t66 -22.5q53 0 80 26t31 91l34 2l5 -139q-54 -37 -165 -37z" />
<glyph unicode="&#xc0;" horiz-adv-x="780" d="M363 699l61 -9l243 -616q19 -41 87 -46v-28h-258v32q35 2 35 36q0 10 -6 27l-50 120q-12 27 -45 27h-183q-20 0 -30 -27l-41 -105q-6 -14 -6 -25q0 -21 13 -35t40 -14v-36h-195v35q32 0 50 15t37 60zM344 529l-77 -192q-10 -23 -10 -33q0 -18 21 -18h147q13 0 13 11 q0 10 -14 36zM296 886q4 0 8 -0.5t8 -2.5t6.5 -3.5t7 -5t6 -5t6.5 -6t6 -5.5q57 -52 118 -91l-17 -28q-42 22 -138 59q-50 20 -50 49q0 14 9.5 26.5t29.5 12.5z" />
<glyph unicode="&#xc1;" horiz-adv-x="780" d="M363 699l61 -9l243 -616q19 -41 87 -46v-28h-258v32q35 2 35 36q0 10 -6 27l-50 120q-12 27 -45 27h-183q-20 0 -30 -27l-41 -105q-6 -14 -6 -25q0 -21 13 -35t40 -14v-36h-195v35q32 0 50 15t37 60zM344 529l-77 -192q-10 -23 -10 -33q0 -18 21 -18h147q13 0 13 11 q0 10 -14 36zM483 886q21 0 30 -12t9 -27t-10.5 -26.5t-20.5 -16.5t-31 -11.5t-25 -8.5q-75 -32 -100 -45l-18 28q84 52 119 91q24 28 47 28z" />
<glyph unicode="&#xc2;" horiz-adv-x="780" d="M363 699l61 -9l243 -616q19 -41 87 -46v-28h-258v32q35 2 35 36q0 10 -6 27l-50 120q-12 27 -45 27h-183q-20 0 -30 -27l-41 -105q-6 -14 -6 -25q0 -21 13 -35t40 -14v-36h-195v35q32 0 50 15t37 60zM344 529l-77 -192q-10 -23 -10 -33q0 -18 21 -18h147q13 0 13 11 q0 10 -14 36zM289 746l-22 22l123 119l122 -119l-23 -21l-99 55z" />
<glyph unicode="&#xc3;" horiz-adv-x="780" d="M363 699l61 -9l243 -616q19 -41 87 -46v-28h-258v32q35 2 35 36q0 10 -6 27l-50 120q-12 27 -45 27h-183q-20 0 -30 -27l-41 -105q-6 -14 -6 -25q0 -21 13 -35t40 -14v-36h-195v35q32 0 50 15t37 60zM344 529l-77 -192q-10 -23 -10 -33q0 -18 21 -18h147q13 0 13 11 q0 10 -14 36zM244 763l-23 22q13 45 42.5 73t61.5 28q28 0 49 -10.5t31.5 -23.5t25.5 -23.5t32 -10.5q37 0 68 69l28 -22q-12 -46 -40 -74.5t-67 -28.5q-30 0 -72.5 33.5t-64.5 33.5q-31 0 -71 -66z" />
<glyph unicode="&#xc4;" horiz-adv-x="780" d="M363 699l61 -9l243 -616q19 -41 87 -46v-28h-258v32q35 2 35 36q0 10 -6 27l-50 120q-12 27 -45 27h-183q-20 0 -30 -27l-41 -105q-6 -14 -6 -25q0 -21 13 -35t40 -14v-36h-195v35q32 0 50 15t37 60zM344 529l-77 -192q-10 -23 -10 -33q0 -18 21 -18h147q13 0 13 11 q0 10 -14 36zM490 873q55 0 55 -53q0 -51 -55 -51t-55 51q0 53 55 53zM291 873q54 0 54 -53q0 -51 -54 -51q-56 0 -56 51q0 53 56 53z" />
<glyph unicode="&#xc5;" horiz-adv-x="780" d="M363 699l61 -9l243 -616q19 -41 87 -46v-28h-258v32q35 2 35 36q0 10 -6 27l-50 120q-12 27 -45 27h-183q-20 0 -30 -27l-41 -105q-6 -14 -6 -25q0 -21 13 -35t40 -14v-36h-195v35q32 0 50 15t37 60zM344 529l-77 -192q-10 -23 -10 -33q0 -18 21 -18h147q13 0 13 11 q0 10 -14 36zM389 857q-17 0 -27 -11t-10 -28q0 -43 37 -43q17 0 28 11.5t11 31.5q0 16 -11 27.5t-28 11.5zM389 901q35 0 58.5 -24t23.5 -59q0 -37 -23.5 -62t-58.5 -25t-57.5 24.5t-22.5 62.5q0 34 22.5 58.5t57.5 24.5z" />
<glyph unicode="&#xc6;" horiz-adv-x="862" d="M287 632v49h447q21 0 38 14l15 -7l-18 -131h-28q-7 75 -62 75h-97q-12 0 -12 -24v-193q0 -30 15 -30h126q21 0 44 32l17 -3l-17 -143h-26q-11 65 -42 65h-102q-15 0 -15 -23v-242q0 -22 14 -22h69q96 0 129 83l25 -15l-18 -117h-415v32h18q40 3 40 23v190q0 11 -9 11 h-146q-17 0 -22 -15l-61 -152q-4 -4 -4 -21q0 -32 82 -32v-36h-229v35q58 3 83 64l205 498q5 15 5 23q0 12 -49 12zM418 632q-15 0 -22 -15l-116 -297q-4 -8 -4 -13q0 -7 12 -7h134q10 0 10 10v303q0 19 -14 19z" />
<glyph unicode="&#xc7;" horiz-adv-x="780" d="M460 693q120 0 254 -31l-10 -165h-26q-15 83 -64 119.5t-154 36.5q-130 0 -195 -79t-65 -212q0 -146 74.5 -238t197.5 -92q161 0 216 136l32 -10l-32 -143q-114 -30 -239 -30q-181 0 -289.5 105t-108.5 256q0 165 100.5 256t308.5 91zM405 -243l-28 17q30 55 30 73 q0 22 -37 53q18 52 78 63q41 -33 41 -65q0 -33 -84 -141z" />
<glyph unicode="&#xc8;" horiz-adv-x="543" d="M44 649v32h368q21 0 37 14l15 -7l-17 -131h-29q-6 75 -62 75h-97q-12 0 -12 -24v-193q0 -30 15 -30h126q21 0 44 32l17 -3l-17 -143h-26q-9 65 -41 65h-103q-15 0 -15 -23v-242q0 -22 14 -22h70q97 0 128 83l24 -15l-17 -117h-414v32q57 0 57 21v556q0 40 -65 40z M178 886q4 0 8 -0.5t8 -2.5t6.5 -3.5t7 -5t6 -5t6.5 -6t6 -5.5q57 -52 118 -91l-17 -28q-42 22 -138 59q-50 20 -50 49q0 14 9.5 26.5t29.5 12.5z" />
<glyph unicode="&#xc9;" horiz-adv-x="543" d="M44 649v32h368q21 0 37 14l15 -7l-17 -131h-29q-6 75 -62 75h-97q-12 0 -12 -24v-193q0 -30 15 -30h126q21 0 44 32l17 -3l-17 -143h-26q-9 65 -41 65h-103q-15 0 -15 -23v-242q0 -22 14 -22h70q97 0 128 83l24 -15l-17 -117h-414v32q57 0 57 21v556q0 40 -65 40z M365 886q21 0 30 -12t9 -27t-10.5 -26.5t-20.5 -16.5t-31 -11.5t-25 -8.5q-75 -32 -100 -45l-18 28q84 52 119 91q24 28 47 28z" />
<glyph unicode="&#xca;" horiz-adv-x="543" d="M44 649v32h368q21 0 37 14l15 -7l-17 -131h-29q-6 75 -62 75h-97q-12 0 -12 -24v-193q0 -30 15 -30h126q21 0 44 32l17 -3l-17 -143h-26q-9 65 -41 65h-103q-15 0 -15 -23v-242q0 -22 14 -22h70q97 0 128 83l24 -15l-17 -117h-414v32q57 0 57 21v556q0 40 -65 40z M181 746l-22 22l123 119l122 -119l-23 -21l-99 55z" />
<glyph unicode="&#xcb;" horiz-adv-x="543" d="M44 649v32h368q21 0 37 14l15 -7l-17 -131h-29q-6 75 -62 75h-97q-12 0 -12 -24v-193q0 -30 15 -30h126q21 0 44 32l17 -3l-17 -143h-26q-9 65 -41 65h-103q-15 0 -15 -23v-242q0 -22 14 -22h70q97 0 128 83l24 -15l-17 -117h-414v32q57 0 57 21v556q0 40 -65 40z M381 873q55 0 55 -53q0 -51 -55 -51t-55 51q0 53 55 53zM182 873q54 0 54 -53q0 -51 -54 -51q-56 0 -56 51q0 53 56 53z" />
<glyph unicode="&#xcc;" horiz-adv-x="335" d="M303 32v-32h-261v32q62 0 62 24v549q0 44 -66 44v32h261v-32q-58 0 -58 -44v-549q0 -24 62 -24zM74 886q4 0 8 -0.5t8 -2.5t6.5 -3.5t7 -5t6 -5t6.5 -6t6 -5.5q57 -52 118 -91l-17 -28q-42 22 -138 59q-50 20 -50 49q0 14 9.5 26.5t29.5 12.5z" />
<glyph unicode="&#xcd;" horiz-adv-x="335" d="M303 32v-32h-261v32q62 0 62 24v549q0 44 -66 44v32h261v-32q-58 0 -58 -44v-549q0 -24 62 -24zM261 886q21 0 30 -12t9 -27t-10.5 -26.5t-20.5 -16.5t-31 -11.5t-25 -8.5q-75 -32 -100 -45l-18 28q84 52 119 91q24 28 47 28z" />
<glyph unicode="&#xce;" horiz-adv-x="335" d="M303 32v-32h-261v32q62 0 62 24v549q0 44 -66 44v32h261v-32q-58 0 -58 -44v-549q0 -24 62 -24zM67 746l-22 22l123 119l122 -119l-23 -21l-99 55z" />
<glyph unicode="&#xcf;" horiz-adv-x="335" d="M303 32v-32h-261v32q62 0 62 24v549q0 44 -66 44v32h261v-32q-58 0 -58 -44v-549q0 -24 62 -24zM268 873q55 0 55 -53q0 -51 -55 -51t-55 51q0 53 55 53zM69 873q54 0 54 -53q0 -51 -54 -51q-56 0 -56 51q0 53 56 53z" />
<glyph unicode="&#xd0;" horiz-adv-x="823" d="M385 685q184 0 282.5 -91t98.5 -254q0 -158 -103.5 -249t-279.5 -91h-339v32q62 0 62 48v230h-57v62h57v225q0 52 -65 52v36q45 -7 91 -7q44 0 127.5 3.5t125.5 3.5zM375 641h-85q-29 0 -37.5 -10.5t-8.5 -51.5v-207h84v-62h-84v-193q0 -52 14 -65t59 -13h75 q113 0 167 73t54 228q0 151 -61 226t-177 75z" />
<glyph unicode="&#xd1;" horiz-adv-x="836" d="M244 32v-32h-211v32q69 0 69 38v611h71l509 -506v430q0 44 -94 44v32h216v-32q-75 0 -75 -44v-604l-50 -20l-523 511v-422q0 -38 88 -38zM272 763l-23 22q13 45 42.5 73t61.5 28q28 0 49 -10.5t31.5 -23.5t25.5 -23.5t32 -10.5q37 0 68 69l28 -22q-12 -46 -40 -74.5 t-67 -28.5q-30 0 -72.5 33.5t-64.5 33.5q-31 0 -71 -66z" />
<glyph unicode="&#xd2;" horiz-adv-x="887" d="M439 693q179 0 287 -91t108 -248q0 -155 -108.5 -262t-286.5 -107q-96 0 -171.5 29.5t-121.5 80t-69.5 113.5t-23.5 134q0 68 24 130t70 112t121.5 79.5t170.5 29.5zM431 658q-110 0 -167 -81.5t-57 -213.5q0 -91 27.5 -166.5t86.5 -124.5t140 -49q113 0 167 84.5 t54 218.5q0 151 -69.5 241.5t-181.5 90.5zM350 886q4 0 8 -0.5t8 -2.5t6.5 -3.5t7 -5t6 -5t6.5 -6t6 -5.5q57 -52 118 -91l-17 -28q-42 22 -138 59q-50 20 -50 49q0 14 9.5 26.5t29.5 12.5z" />
<glyph unicode="&#xd3;" horiz-adv-x="887" d="M439 693q179 0 287 -91t108 -248q0 -155 -108.5 -262t-286.5 -107q-96 0 -171.5 29.5t-121.5 80t-69.5 113.5t-23.5 134q0 68 24 130t70 112t121.5 79.5t170.5 29.5zM431 658q-110 0 -167 -81.5t-57 -213.5q0 -91 27.5 -166.5t86.5 -124.5t140 -49q113 0 167 84.5 t54 218.5q0 151 -69.5 241.5t-181.5 90.5zM537 886q21 0 30 -12t9 -27t-10.5 -26.5t-20.5 -16.5t-31 -11.5t-25 -8.5q-75 -32 -100 -45l-18 28q84 52 119 91q24 28 47 28z" />
<glyph unicode="&#xd4;" horiz-adv-x="887" d="M439 693q179 0 287 -91t108 -248q0 -155 -108.5 -262t-286.5 -107q-96 0 -171.5 29.5t-121.5 80t-69.5 113.5t-23.5 134q0 68 24 130t70 112t121.5 79.5t170.5 29.5zM431 658q-110 0 -167 -81.5t-57 -213.5q0 -91 27.5 -166.5t86.5 -124.5t140 -49q113 0 167 84.5 t54 218.5q0 151 -69.5 241.5t-181.5 90.5zM343 746l-22 22l123 119l122 -119l-23 -21l-99 55z" />
<glyph unicode="&#xd5;" horiz-adv-x="887" d="M439 693q179 0 287 -91t108 -248q0 -155 -108.5 -262t-286.5 -107q-96 0 -171.5 29.5t-121.5 80t-69.5 113.5t-23.5 134q0 68 24 130t70 112t121.5 79.5t170.5 29.5zM431 658q-110 0 -167 -81.5t-57 -213.5q0 -91 27.5 -166.5t86.5 -124.5t140 -49q113 0 167 84.5 t54 218.5q0 151 -69.5 241.5t-181.5 90.5zM297 763l-23 22q13 45 42.5 73t61.5 28q28 0 49 -10.5t31.5 -23.5t25.5 -23.5t32 -10.5q36 0 68 69l28 -22q-12 -46 -40 -74.5t-67 -28.5q-30 0 -72.5 33.5t-64.5 33.5q-31 0 -71 -66z" />
<glyph unicode="&#xd6;" horiz-adv-x="887" d="M439 693q179 0 287 -91t108 -248q0 -155 -108.5 -262t-286.5 -107q-96 0 -171.5 29.5t-121.5 80t-69.5 113.5t-23.5 134q0 68 24 130t70 112t121.5 79.5t170.5 29.5zM431 658q-110 0 -167 -81.5t-57 -213.5q0 -91 27.5 -166.5t86.5 -124.5t140 -49q113 0 167 84.5 t54 218.5q0 151 -69.5 241.5t-181.5 90.5zM543 873q55 0 55 -53q0 -51 -55 -51t-55 51q0 53 55 53zM344 873q54 0 54 -53q0 -51 -54 -51q-56 0 -56 51q0 53 56 53z" />
<glyph unicode="&#xd7;" horiz-adv-x="513" d="M120 454l136 -135l135 135l59 -60l-135 -135l135 -135l-56 -57l-135 136l-136 -136l-59 60l135 135l-135 136z" />
<glyph unicode="&#xd8;" horiz-adv-x="887" d="M439 693q55 0 110 -11l26 55l77 -33l-21 -45q96 -39 149.5 -117.5t53.5 -187.5q0 -155 -108.5 -262t-286.5 -107q-70 0 -123 14l-31 -66l-80 35l28 61q-89 45 -134.5 128.5t-45.5 184.5q0 68 24 130t70 112t121.5 79.5t170.5 29.5zM682 326q0 169 -86 260l-253 -531 q54 -32 118 -32q113 0 167 84.5t54 218.5zM431 658q-110 0 -167 -81.5t-57 -213.5q0 -147 70 -246l250 520q-50 21 -96 21z" />
<glyph unicode="&#xd9;" horiz-adv-x="787" d="M34 681h264v-32q-57 0 -57 -29v-347q0 -57 6 -96t23.5 -74.5t53.5 -53t91 -17.5q97 0 155.5 61.5t58.5 197.5v314q0 44 -87 44v32h213v-32q-73 0 -73 -44v-290q0 -174 -64.5 -252t-216.5 -78q-149 0 -223 63.5t-74 216.5v355q0 29 -70 29v32zM300 886q4 0 8 -0.5t8 -2.5 t6.5 -3.5t7 -5t6 -5t6.5 -6t6 -5.5q57 -52 118 -91l-17 -28q-42 22 -138 59q-50 20 -50 49q0 14 9.5 26.5t29.5 12.5z" />
<glyph unicode="&#xda;" horiz-adv-x="787" d="M34 681h264v-32q-57 0 -57 -29v-347q0 -57 6 -96t23.5 -74.5t53.5 -53t91 -17.5q97 0 155.5 61.5t58.5 197.5v314q0 44 -87 44v32h213v-32q-73 0 -73 -44v-290q0 -174 -64.5 -252t-216.5 -78q-149 0 -223 63.5t-74 216.5v355q0 29 -70 29v32zM487 886q21 0 30 -12t9 -27 t-10.5 -26.5t-20.5 -16.5t-31 -11.5t-25 -8.5q-75 -32 -100 -45l-18 28q84 52 119 91q24 28 47 28z" />
<glyph unicode="&#xdb;" horiz-adv-x="787" d="M34 681h264v-32q-57 0 -57 -29v-347q0 -57 6 -96t23.5 -74.5t53.5 -53t91 -17.5q97 0 155.5 61.5t58.5 197.5v314q0 44 -87 44v32h213v-32q-73 0 -73 -44v-290q0 -174 -64.5 -252t-216.5 -78q-149 0 -223 63.5t-74 216.5v355q0 29 -70 29v32zM293 746l-22 22l123 119 l122 -119l-23 -21l-99 55z" />
<glyph unicode="&#xdc;" horiz-adv-x="787" d="M34 681h264v-32q-57 0 -57 -29v-347q0 -57 6 -96t23.5 -74.5t53.5 -53t91 -17.5q97 0 155.5 61.5t58.5 197.5v314q0 44 -87 44v32h213v-32q-73 0 -73 -44v-290q0 -174 -64.5 -252t-216.5 -78q-149 0 -223 63.5t-74 216.5v355q0 29 -70 29v32zM493 873q55 0 55 -53 q0 -51 -55 -51t-55 51q0 53 55 53zM294 873q54 0 54 -53q0 -51 -54 -51q-56 0 -56 51q0 53 56 53z" />
<glyph unicode="&#xdd;" horiz-adv-x="731" d="M28 681h234v-32q-16 0 -16 -17t14 -42l130 -245l137 230q19 36 19 50q0 24 -39 24v32h197v-32q-39 0 -58.5 -8.5t-33.5 -29.5l-155 -266q-21 -35 -21 -125v-147q0 -41 66 -41v-32h-271v32q64 0 64 45v140q0 87 -27 128l-133 218q-52 86 -107 86v32zM479 886q21 0 30 -12 t9 -27t-10.5 -26.5t-20.5 -16.5t-31 -11.5t-25 -8.5q-75 -32 -100 -45l-18 28q84 52 119 91q24 28 47 28z" />
<glyph unicode="&#xde;" horiz-adv-x="583" d="M108 61v544q0 44 -65 44v32h262v-32q-59 0 -59 -44v-66q30 5 87 5q87 0 146.5 -48.5t59.5 -125.5q0 -104 -73 -159t-184 -55v39q65 2 92.5 35.5t27.5 117.5q0 73 -38 116.5t-71 43.5h-22q-23 0 -25 -26v-418q0 -32 65 -32v-32h-269v32q66 0 66 29z" />
<glyph unicode="&#xdf;" horiz-adv-x="671" d="M572 575q0 -25 -17.5 -48t-39 -38.5t-39 -36.5t-17.5 -43q0 -24 10.5 -46t23 -34.5t33.5 -29.5l14 -13q14 -13 15.5 -15t13.5 -14t14.5 -16t11 -15t11 -17.5t7 -17t6 -20t1.5 -19.5q0 -63 -72.5 -114t-138.5 -51q-55 0 -91 17.5t-36 48.5q0 10 19.5 25t36.5 15 q22 0 53.5 -25t44.5 -25q19 0 37 23.5t18 48.5q0 24 -4.5 42t-19.5 37t-20 24.5t-28 26.5q-27 26 -40 40t-27 39t-14 50q0 32 18.5 58.5t40 43t40 42.5t18.5 56q0 59 -27.5 92.5t-71.5 33.5q-102 0 -102 -138v-562h-205v32q73 0 73 55v331h-76l20 44h56q5 285 234 285 q108 0 162 -40t54 -132z" />
<glyph unicode="&#xe0;" horiz-adv-x="538" d="M278 475q70 0 113.5 -37.5t43.5 -114.5v-220q0 -42 22 -42q15 0 46 22l15 -43l-95 -52q-76 0 -103 59q-64 -59 -127 -59q-71 0 -106 29t-35 80q0 66 66 103.5t188 57.5v61q0 105 -60 105q-24 0 -38.5 -17.5t-19.5 -38.5t-19 -38.5t-36 -17.5q-64 0 -64 50q0 32 72.5 72.5 t136.5 40.5zM238 50q40 0 70 27v151q-69 -23 -97 -47.5t-28 -68.5q0 -27 14 -44.5t41 -17.5zM175 653q4 0 8 -0.5t8 -2.5t6.5 -3.5t7 -5t6 -5t6.5 -6t6 -5.5q57 -52 118 -91l-17 -28q-42 22 -138 59q-50 20 -50 49q0 14 9.5 26.5t29.5 12.5z" />
<glyph unicode="&#xe1;" horiz-adv-x="538" d="M278 475q70 0 113.5 -37.5t43.5 -114.5v-220q0 -42 22 -42q15 0 46 22l15 -43l-95 -52q-76 0 -103 59q-64 -59 -127 -59q-71 0 -106 29t-35 80q0 66 66 103.5t188 57.5v61q0 105 -60 105q-24 0 -38.5 -17.5t-19.5 -38.5t-19 -38.5t-36 -17.5q-64 0 -64 50q0 32 72.5 72.5 t136.5 40.5zM238 50q40 0 70 27v151q-69 -23 -97 -47.5t-28 -68.5q0 -27 14 -44.5t41 -17.5zM362 653q21 0 30 -12t9 -27t-10.5 -26.5t-20.5 -16.5t-31 -11.5t-25 -8.5q-75 -32 -100 -45l-18 28q84 52 119 91q24 28 47 28z" />
<glyph unicode="&#xe2;" horiz-adv-x="538" d="M278 475q70 0 113.5 -37.5t43.5 -114.5v-220q0 -42 22 -42q15 0 46 22l15 -43l-95 -52q-76 0 -103 59q-64 -59 -127 -59q-71 0 -106 29t-35 80q0 66 66 103.5t188 57.5v61q0 105 -60 105q-24 0 -38.5 -17.5t-19.5 -38.5t-19 -38.5t-36 -17.5q-64 0 -64 50q0 32 72.5 72.5 t136.5 40.5zM238 50q40 0 70 27v151q-69 -23 -97 -47.5t-28 -68.5q0 -27 14 -44.5t41 -17.5zM168 513l-22 22l123 119l122 -119l-23 -21l-99 55z" />
<glyph unicode="&#xe3;" horiz-adv-x="538" d="M278 475q70 0 113.5 -37.5t43.5 -114.5v-220q0 -42 22 -42q15 0 46 22l15 -43l-95 -52q-76 0 -103 59q-64 -59 -127 -59q-71 0 -106 29t-35 80q0 66 66 103.5t188 57.5v61q0 105 -60 105q-24 0 -38.5 -17.5t-19.5 -38.5t-19 -38.5t-36 -17.5q-64 0 -64 50q0 32 72.5 72.5 t136.5 40.5zM238 50q40 0 70 27v151q-69 -23 -97 -47.5t-28 -68.5q0 -27 14 -44.5t41 -17.5zM123 530l-23 22q13 45 42.5 73t61.5 28q28 0 49 -10.5t31.5 -23.5t25.5 -23.5t32 -10.5q36 0 68 69l28 -22q-12 -46 -40 -74.5t-67 -28.5q-30 0 -72.5 33.5t-64.5 33.5 q-31 0 -71 -66z" />
<glyph unicode="&#xe4;" horiz-adv-x="538" d="M278 475q70 0 113.5 -37.5t43.5 -114.5v-220q0 -42 22 -42q15 0 46 22l15 -43l-95 -52q-76 0 -103 59q-64 -59 -127 -59q-71 0 -106 29t-35 80q0 66 66 103.5t188 57.5v61q0 105 -60 105q-24 0 -38.5 -17.5t-19.5 -38.5t-19 -38.5t-36 -17.5q-64 0 -64 50q0 32 72.5 72.5 t136.5 40.5zM238 50q40 0 70 27v151q-69 -23 -97 -47.5t-28 -68.5q0 -27 14 -44.5t41 -17.5zM369 640q55 0 55 -53q0 -51 -55 -51t-55 51q0 53 55 53zM170 640q54 0 54 -53q0 -51 -54 -51q-56 0 -56 51q0 53 56 53z" />
<glyph unicode="&#xe5;" horiz-adv-x="538" d="M278 475q70 0 113.5 -37.5t43.5 -114.5v-220q0 -42 22 -42q15 0 46 22l15 -43l-95 -52q-76 0 -103 59q-64 -59 -127 -59q-71 0 -106 29t-35 80q0 66 66 103.5t188 57.5v61q0 105 -60 105q-24 0 -38.5 -17.5t-19.5 -38.5t-19 -38.5t-36 -17.5q-64 0 -64 50q0 32 72.5 72.5 t136.5 40.5zM238 50q40 0 70 27v151q-69 -23 -97 -47.5t-28 -68.5q0 -27 14 -44.5t41 -17.5zM268 624q-17 0 -27 -11t-10 -28q0 -43 37 -43q17 0 28 11.5t11 31.5q0 17 -11.5 28t-27.5 11zM268 668q35 0 58.5 -24t23.5 -59q0 -37 -23.5 -62t-58.5 -25t-57.5 24.5t-22.5 62.5 q0 34 22.5 58.5t57.5 24.5z" />
<glyph unicode="&#xe6;" horiz-adv-x="809" d="M550 475q25 0 50 -4.5t52 -17.5t47.5 -32.5t33.5 -52t13 -74.5q0 -3 -0.5 -9.5t-0.5 -10.5h-298q3 -192 142 -192q38 0 77 10.5t55 30.5l31 -21q-22 -45 -71.5 -79.5t-122.5 -34.5q-129 0 -194 81q-33 -43 -73.5 -62t-97.5 -19q-71 0 -106 29t-35 80q0 66 66 103.5 t188 57.5v61q0 105 -60 105q-24 0 -38.5 -17.5t-19.5 -38.5t-19 -38.5t-36 -17.5q-64 0 -64 50q0 32 72.5 72.5t136.5 40.5q83 0 125 -49q60 49 147 49zM238 50q40 0 70 27v151q-69 -23 -97 -47.5t-28 -68.5q0 -27 14 -44.5t41 -17.5zM545 436q-38 0 -67 -39t-31 -88h154 q15 0 15 39q0 33 -23.5 60.5t-47.5 27.5z" />
<glyph unicode="&#xe7;" horiz-adv-x="528" d="M319 473q67 0 112 -15t45 -44q0 -21 -18 -34.5t-39 -13.5q-32 0 -63.5 30t-62.5 30q-35 0 -59 -27t-34 -65t-10 -83q0 -90 34 -133t105 -43q79 0 127 48l30 -21q-22 -56 -80 -85t-125 -29q-109 0 -169.5 62.5t-60.5 170.5q0 113 77 182.5t191 69.5zM269 -243l-28 17 q30 55 30 73q0 22 -37 53q18 52 78 63q41 -33 41 -65q0 -33 -84 -141z" />
<glyph unicode="&#xe8;" horiz-adv-x="540" d="M289 475q25 0 50 -4.5t52 -17.5t47.5 -32.5t33.5 -52t13 -74.5q0 -6 -2 -20h-298q4 -192 144 -192q37 0 75.5 10.5t55.5 30.5l31 -21q-23 -45 -72 -79.5t-121 -34.5q-117 0 -182 68t-65 169q0 105 66 177.5t172 72.5zM284 436q-38 0 -67.5 -39t-31.5 -88h154q17 0 17 39 q0 33 -24 60.5t-48 27.5zM176 653q4 0 8 -0.5t8 -2.5t6.5 -3.5t7 -5t6 -5t6.5 -6t6 -5.5q57 -52 118 -91l-17 -28q-42 22 -138 59q-50 20 -50 49q0 14 9.5 26.5t29.5 12.5z" />
<glyph unicode="&#xe9;" horiz-adv-x="540" d="M289 475q25 0 50 -4.5t52 -17.5t47.5 -32.5t33.5 -52t13 -74.5q0 -6 -2 -20h-298q4 -192 144 -192q37 0 75.5 10.5t55.5 30.5l31 -21q-23 -45 -72 -79.5t-121 -34.5q-117 0 -182 68t-65 169q0 105 66 177.5t172 72.5zM284 436q-38 0 -67.5 -39t-31.5 -88h154q17 0 17 39 q0 33 -24 60.5t-48 27.5zM363 653q21 0 30 -12t9 -27t-10.5 -26.5t-20.5 -16.5t-31 -11.5t-25 -8.5q-75 -32 -100 -45l-18 28q84 52 119 91q24 28 47 28z" />
<glyph unicode="&#xea;" horiz-adv-x="540" d="M289 475q25 0 50 -4.5t52 -17.5t47.5 -32.5t33.5 -52t13 -74.5q0 -6 -2 -20h-298q4 -192 144 -192q37 0 75.5 10.5t55.5 30.5l31 -21q-23 -45 -72 -79.5t-121 -34.5q-117 0 -182 68t-65 169q0 105 66 177.5t172 72.5zM284 436q-38 0 -67.5 -39t-31.5 -88h154q17 0 17 39 q0 33 -24 60.5t-48 27.5zM179 513l-22 22l123 119l122 -119l-23 -21l-99 55z" />
<glyph unicode="&#xeb;" horiz-adv-x="540" d="M289 475q25 0 50 -4.5t52 -17.5t47.5 -32.5t33.5 -52t13 -74.5q0 -6 -2 -20h-298q4 -192 144 -192q37 0 75.5 10.5t55.5 30.5l31 -21q-23 -45 -72 -79.5t-121 -34.5q-117 0 -182 68t-65 169q0 105 66 177.5t172 72.5zM284 436q-38 0 -67.5 -39t-31.5 -88h154q17 0 17 39 q0 33 -24 60.5t-48 27.5zM380 640q55 0 55 -53q0 -51 -55 -51t-55 51q0 53 55 53zM181 640q54 0 54 -53q0 -51 -54 -51q-56 0 -56 51q0 53 56 53z" />
<glyph unicode="&#xec;" horiz-adv-x="373" d="M338 32v-32h-295v32q78 0 78 69v258q0 59 -70 59v27l200 43v-391q0 -65 87 -65zM93 653q4 0 8 -0.5t8 -2.5t6.5 -3.5t7 -5t6 -5t6.5 -6t6 -5.5q57 -52 118 -91l-17 -28q-42 22 -138 59q-50 20 -50 49q0 14 9.5 26.5t29.5 12.5z" />
<glyph unicode="&#xed;" horiz-adv-x="373" d="M338 32v-32h-295v32q78 0 78 69v258q0 59 -70 59v27l200 43v-391q0 -65 87 -65zM280 653q21 0 30 -12t9 -27t-10.5 -26.5t-20.5 -16.5t-31 -11.5t-25 -8.5q-75 -32 -100 -45l-18 28q84 52 119 91q24 28 47 28z" />
<glyph unicode="&#xee;" horiz-adv-x="373" d="M338 32v-32h-295v32q78 0 78 69v258q0 59 -70 59v27l200 43v-391q0 -65 87 -65zM86 513l-22 22l123 119l122 -119l-23 -21l-99 55z" />
<glyph unicode="&#xef;" horiz-adv-x="373" d="M338 32v-32h-295v32q78 0 78 69v258q0 59 -70 59v27l200 43v-391q0 -65 87 -65zM287 640q55 0 55 -53q0 -51 -55 -51t-55 51q0 53 55 53zM88 640q54 0 54 -53q0 -51 -54 -51q-56 0 -56 51q0 53 56 53z" />
<glyph unicode="&#xf0;" horiz-adv-x="541" d="M282 426q-58 0 -89.5 -53t-31.5 -141q0 -76 30 -133t79 -57q57 0 87 56.5t30 141.5q0 87 -23 136.5t-82 49.5zM256 674l62 58l55 -61l-54 -50q182 -155 182 -369q0 -132 -57.5 -199t-182.5 -67q-106 0 -161.5 62t-55.5 184q0 111 72.5 176t168.5 65q27 0 36 -3 q-27 46 -69 90l-69 -64l-54 61l64 59q-66 59 -110 74l10 60q80 -17 163 -76z" />
<glyph unicode="&#xf1;" horiz-adv-x="651" d="M43 445l184 42q12 -14 12 -25v-48q70 61 142 61q69 0 112.5 -36t43.5 -120v-214q0 -73 73 -73v-32h-253v32q49 0 49 78v157q0 146 -55 146q-68 0 -107 -32v-289q0 -60 49 -60v-32h-250v32q69 0 69 55v297q0 34 -69 34v27zM189 530l-23 22q13 45 42.5 73t61.5 28 q28 0 49 -10.5t31.5 -23.5t25.5 -23.5t32 -10.5q36 0 68 69l28 -22q-12 -46 -40 -74.5t-67 -28.5q-30 0 -72.5 33.5t-64.5 33.5q-31 0 -71 -66z" />
<glyph unicode="&#xf2;" horiz-adv-x="612" d="M310 474q109 0 180 -70t71 -171q0 -116 -74.5 -185.5t-179.5 -69.5q-113 0 -184.5 70t-71.5 172q0 115 74.5 184.5t184.5 69.5zM310 23q35 0 59.5 17t35 45t14 51.5t3.5 49.5q0 249 -115 249q-36 0 -61.5 -18t-36 -47.5t-14.5 -53.5t-4 -49q0 -244 119 -244zM212 653 q4 0 8 -0.5t8 -2.5t6.5 -3.5t7 -5t6 -5t6.5 -6t6 -5.5q57 -52 118 -91l-17 -28q-42 22 -138 59q-50 20 -50 49q0 14 9.5 26.5t29.5 12.5z" />
<glyph unicode="&#xf3;" horiz-adv-x="612" d="M310 474q109 0 180 -70t71 -171q0 -116 -74.5 -185.5t-179.5 -69.5q-113 0 -184.5 70t-71.5 172q0 115 74.5 184.5t184.5 69.5zM310 23q35 0 59.5 17t35 45t14 51.5t3.5 49.5q0 249 -115 249q-36 0 -61.5 -18t-36 -47.5t-14.5 -53.5t-4 -49q0 -244 119 -244zM399 653 q21 0 30 -12t9 -27t-10.5 -26.5t-20.5 -16.5t-31 -11.5t-25 -8.5q-75 -32 -100 -45l-18 28q84 52 119 91q24 28 47 28z" />
<glyph unicode="&#xf4;" horiz-adv-x="612" d="M310 474q109 0 180 -70t71 -171q0 -116 -74.5 -185.5t-179.5 -69.5q-113 0 -184.5 70t-71.5 172q0 115 74.5 184.5t184.5 69.5zM310 23q35 0 59.5 17t35 45t14 51.5t3.5 49.5q0 249 -115 249q-36 0 -61.5 -18t-36 -47.5t-14.5 -53.5t-4 -49q0 -244 119 -244zM205 513 l-22 22l123 119l122 -119l-23 -21l-99 55z" />
<glyph unicode="&#xf5;" horiz-adv-x="612" d="M310 474q109 0 180 -70t71 -171q0 -116 -74.5 -185.5t-179.5 -69.5q-113 0 -184.5 70t-71.5 172q0 115 74.5 184.5t184.5 69.5zM310 23q35 0 59.5 17t35 45t14 51.5t3.5 49.5q0 249 -115 249q-36 0 -61.5 -18t-36 -47.5t-14.5 -53.5t-4 -49q0 -244 119 -244zM160 530 l-23 22q13 45 42.5 73t61.5 28q28 0 49 -10.5t31.5 -23.5t25.5 -23.5t32 -10.5q37 0 68 69l28 -22q-12 -46 -40 -74.5t-67 -28.5q-30 0 -72.5 33.5t-64.5 33.5q-31 0 -71 -66z" />
<glyph unicode="&#xf6;" horiz-adv-x="612" d="M310 474q109 0 180 -70t71 -171q0 -116 -74.5 -185.5t-179.5 -69.5q-113 0 -184.5 70t-71.5 172q0 115 74.5 184.5t184.5 69.5zM310 23q35 0 59.5 17t35 45t14 51.5t3.5 49.5q0 249 -115 249q-36 0 -61.5 -18t-36 -47.5t-14.5 -53.5t-4 -49q0 -244 119 -244zM406 640 q55 0 55 -53q0 -51 -55 -51t-55 51q0 53 55 53zM207 640q54 0 54 -53q0 -51 -54 -51q-56 0 -56 51q0 53 56 53z" />
<glyph unicode="&#xf7;" horiz-adv-x="518" d="M263 181q62 0 62 -62q0 -61 -62 -61q-64 0 -64 61q0 62 64 62zM263 468q62 0 62 -61q0 -63 -62 -63q-64 0 -64 63q0 61 64 61zM455 301v-75h-393v75h393z" />
<glyph unicode="&#xf8;" horiz-adv-x="612" d="M312 474q27 0 51 -6l29 60l76 -28l-29 -58q57 -31 90 -86.5t33 -122.5q0 -116 -74.5 -185.5t-179.5 -69.5q-47 0 -89 14l-25 -51l-72 25l28 59q-98 71 -98 195q0 115 75 184.5t185 69.5zM312 23q35 0 59 17t34.5 45t14 51.5t3.5 49.5q0 114 -24 173l-152 -310 q26 -26 65 -26zM192 267q0 -78 12 -130l139 290q-16 8 -35 8q-36 0 -61.5 -18t-36 -47.5t-14.5 -53.5t-4 -49z" />
<glyph unicode="&#xf9;" horiz-adv-x="649" d="M43 418v28l204 25v-284q0 -136 68 -136q49 0 92 42v295q0 40 -82 40v29l214 14v-381q0 -40 77 -40v-27l-198 -31q-6 14 -6 34v37q-23 -34 -62.5 -54.5t-79.5 -20.5q-76 0 -115 38t-39 136v218q0 38 -73 38zM231 653q4 0 8 -0.5t8 -2.5t6.5 -3.5t7 -5t6 -5t6.5 -6t6 -5.5 q57 -52 118 -91l-17 -28q-42 22 -138 59q-50 20 -50 49q0 14 9.5 26.5t29.5 12.5z" />
<glyph unicode="&#xfa;" horiz-adv-x="649" d="M43 418v28l204 25v-284q0 -136 68 -136q49 0 92 42v295q0 40 -82 40v29l214 14v-381q0 -40 77 -40v-27l-198 -31q-6 14 -6 34v37q-23 -34 -62.5 -54.5t-79.5 -20.5q-76 0 -115 38t-39 136v218q0 38 -73 38zM418 653q21 0 30 -12t9 -27t-10.5 -26.5t-20.5 -16.5t-31 -11.5 t-25 -8.5q-75 -32 -100 -45l-18 28q84 52 119 91q24 28 47 28z" />
<glyph unicode="&#xfb;" horiz-adv-x="649" d="M43 418v28l204 25v-284q0 -136 68 -136q49 0 92 42v295q0 40 -82 40v29l214 14v-381q0 -40 77 -40v-27l-198 -31q-6 14 -6 34v37q-23 -34 -62.5 -54.5t-79.5 -20.5q-76 0 -115 38t-39 136v218q0 38 -73 38zM224 513l-22 22l123 119l122 -119l-23 -21l-99 55z" />
<glyph unicode="&#xfc;" horiz-adv-x="649" d="M43 418v28l204 25v-284q0 -136 68 -136q49 0 92 42v295q0 40 -82 40v29l214 14v-381q0 -40 77 -40v-27l-198 -31q-6 14 -6 34v37q-23 -34 -62.5 -54.5t-79.5 -20.5q-76 0 -115 38t-39 136v218q0 38 -73 38zM424 640q55 0 55 -53q0 -51 -55 -51t-55 51q0 53 55 53z M225 640q54 0 54 -53q0 -51 -54 -51q-56 0 -56 51q0 53 56 53z" />
<glyph unicode="&#xfd;" horiz-adv-x="556" d="M357 428v34h196v-34q-54 0 -77 -51l-241 -543q-8 -17 -17 -40t-12.5 -30.5t-11 -16.5t-16.5 -11t-25 -2q-34 0 -58.5 17.5t-24.5 33.5q0 22 38 41q75 34 134 166l-160 392q-18 44 -70 44v34h260v-34h-34q-21 0 -21 -23q0 -13 14 -51l86 -230l94 221q8 19 8 48 q0 35 -62 35zM401 653q21 0 30 -12t9 -27t-10.5 -26.5t-20.5 -16.5t-31 -11.5t-25 -8.5q-75 -32 -100 -45l-18 28q84 52 119 91q24 28 47 28z" />
<glyph unicode="&#xfe;" horiz-adv-x="615" d="M384 475q90 0 143 -63t53 -135q0 -125 -69 -207t-179 -82q-54 0 -89 23v-192q0 -39 90 -39v-28h-287v28q61 0 61 34v813q0 56 -86 56v27l217 41v-332q62 56 146 56zM332 413q-52 0 -94 -36v-316q37 -23 78 -23q54 0 93.5 57t39.5 141q0 72 -33 124.5t-84 52.5z" />
<glyph unicode="&#xff;" horiz-adv-x="556" d="M357 428v34h196v-34q-54 0 -77 -51l-241 -543q-8 -17 -17 -40t-12.5 -30.5t-11 -16.5t-16.5 -11t-25 -2q-34 0 -58.5 17.5t-24.5 33.5q0 22 38 41q75 34 134 166l-160 392q-18 44 -70 44v34h260v-34h-34q-21 0 -21 -23q0 -13 14 -51l86 -230l94 221q8 19 8 48 q0 35 -62 35zM411 640q55 0 55 -53q0 -51 -55 -51t-55 51q0 53 55 53zM212 640q54 0 54 -53q0 -51 -54 -51q-56 0 -56 51q0 53 56 53z" />
<glyph unicode="&#x152;" horiz-adv-x="1081" d="M660 681h294q25 2 37 14l16 -7l-19 -131h-28q-6 75 -62 75h-97q-12 0 -12 -24v-193q0 -30 16 -30h124q20 0 43 32l17 -3l-17 -143h-26q-11 65 -41 65h-100q-16 0 -16 -23v-242q0 -22 15 -22h59q98 0 129 83l24 -15l-17 -117h-339v70q-91 -85 -242 -85q-92 0 -163.5 29.5 t-115 80t-66 113.5t-22.5 134q0 68 23 130t66.5 112t115.5 79.5t162 29.5q151 0 242 -74v62zM410 658q-104 0 -158 -81.5t-54 -213.5q0 -91 26.5 -166.5t82.5 -124.5t132 -49q73 0 121.5 42.5t68.5 108t20 152.5q0 151 -65.5 241.5t-173.5 90.5z" />
<glyph unicode="&#x153;" horiz-adv-x="887" d="M632 417q-36 0 -64 -28t-34 -67h150q21 0 21 25q0 27 -24 48.5t-49 21.5zM296 49q28 0 49.5 10.5t32.5 25.5t18 35.5t9 37t2 33.5q0 40 -4.5 74.5t-15.5 71t-35.5 58t-59.5 21.5q-30 0 -52 -11.5t-33.5 -27t-18.5 -37.5t-8.5 -38t-1.5 -33q0 -220 118 -220zM636 481 q30 0 59.5 -8.5t59.5 -28t48 -58t18 -91.5q0 -16 -4 -32h-284q2 -88 42.5 -136t99.5 -48q33 0 64 19t49 43l45 -29q-41 -62 -82.5 -93t-105.5 -31q-111 0 -173 72q-69 -81 -180 -81q-105 0 -173 71t-68 174q0 116 70.5 186t174.5 70q109 0 175 -76q63 77 165 77z" />
<glyph unicode="&#x178;" horiz-adv-x="731" d="M28 681h234v-32q-16 0 -16 -17t14 -42l130 -245l137 230q19 36 19 50q0 24 -39 24v32h197v-32q-39 0 -58.5 -8.5t-33.5 -29.5l-155 -266q-21 -35 -21 -125v-147q0 -41 66 -41v-32h-271v32q64 0 64 45v140q0 87 -27 128l-133 218q-52 86 -107 86v32zM485 873q55 0 55 -53 q0 -51 -55 -51t-55 51q0 53 55 53zM286 873q54 0 54 -53q0 -51 -54 -51q-56 0 -56 51q0 53 56 53z" />
<glyph unicode="&#x2c6;" horiz-adv-x="313" d="M56 513l-22 22l123 119l122 -119l-23 -21l-99 55z" />
<glyph unicode="&#x2dc;" horiz-adv-x="453" d="M80 530l-23 22q13 45 42.5 73t61.5 28q28 0 49 -10.5t31.5 -23.5t25.5 -23.5t32 -10.5q37 0 68 69l28 -22q-12 -46 -40 -74.5t-67 -28.5q-30 0 -72.5 33.5t-64.5 33.5q-31 0 -71 -66z" />
<glyph unicode="&#x2000;" horiz-adv-x="450" />
<glyph unicode="&#x2001;" horiz-adv-x="901" />
<glyph unicode="&#x2002;" horiz-adv-x="450" />
<glyph unicode="&#x2003;" horiz-adv-x="901" />
<glyph unicode="&#x2004;" horiz-adv-x="300" />
<glyph unicode="&#x2005;" horiz-adv-x="225" />
<glyph unicode="&#x2006;" horiz-adv-x="150" />
<glyph unicode="&#x2007;" horiz-adv-x="150" />
<glyph unicode="&#x2008;" horiz-adv-x="112" />
<glyph unicode="&#x2009;" horiz-adv-x="180" />
<glyph unicode="&#x200a;" horiz-adv-x="50" />
<glyph unicode="&#x2010;" horiz-adv-x="375" d="M312 301v-75h-252v75h252z" />
<glyph unicode="&#x2011;" horiz-adv-x="375" d="M312 301v-75h-252v75h252z" />
<glyph unicode="&#x2012;" horiz-adv-x="375" d="M312 301v-75h-252v75h252z" />
<glyph unicode="&#x2013;" horiz-adv-x="518" d="M455 301v-75h-393v75h393z" />
<glyph unicode="&#x2014;" horiz-adv-x="830" d="M764 301v-75h-698v75h698z" />
<glyph unicode="&#x2018;" horiz-adv-x="165" d="M106 725l27 -18q-29 -58 -29 -80q0 -26 35 -57q-17 -56 -78 -66q-40 34 -40 69q0 42 85 152z" />
<glyph unicode="&#x2019;" horiz-adv-x="165" d="M98 739q40 -34 40 -69q0 -36 -83 -151l-28 18q30 63 30 79q0 25 -37 57q19 57 78 66z" />
<glyph unicode="&#x201a;" horiz-adv-x="183" d="M114 132q41 -36 41 -70q0 -36 -84 -151l-28 18q30 60 30 79q0 24 -37 56q18 56 78 68z" />
<glyph unicode="&#x201c;" horiz-adv-x="306" d="M107 725l27 -18q-28 -59 -28 -80q0 -25 34 -57q-18 -56 -77 -66q-40 34 -40 69q0 42 84 152zM249 725l28 -18q-30 -60 -30 -80q0 -24 35 -57q-18 -56 -76 -66q-41 35 -41 69q0 40 84 152z" />
<glyph unicode="&#x201d;" horiz-adv-x="310" d="M241 739q41 -35 41 -69t-84 -151l-28 18q29 61 29 79q0 24 -35 57q19 57 77 66zM99 739q40 -34 40 -69q0 -36 -83 -151l-28 18q29 61 29 79q0 24 -35 57q17 57 77 66z" />
<glyph unicode="&#x201e;" horiz-adv-x="310" d="M241 132q41 -36 41 -70q0 -36 -84 -151l-28 18q29 58 29 79q0 23 -35 56q18 56 77 68zM99 132q40 -36 40 -70q0 -37 -83 -151l-28 18q29 58 29 79q0 23 -35 56q17 56 77 68z" />
<glyph unicode="&#x2022;" horiz-adv-x="359" d="M182 433q121 0 121 -112q0 -110 -121 -110q-127 0 -127 110q0 112 127 112z" />
<glyph unicode="&#x2026;" horiz-adv-x="1235" d="M123 113q61 0 61 -61q0 -63 -61 -63q-65 0 -65 63q0 61 65 61zM617 113q61 0 61 -61q0 -63 -61 -63q-65 0 -65 63q0 61 65 61zM1111 113q61 0 61 -61q0 -63 -61 -63q-65 0 -65 63q0 61 65 61z" />
<glyph unicode="&#x202f;" horiz-adv-x="180" />
<glyph unicode="&#x2039;" horiz-adv-x="229" d="M177 144l-28 -34l-133 150l135 152l25 -37l-72 -116z" />
<glyph unicode="&#x203a;" horiz-adv-x="228" d="M80 111l-28 32l73 117l-72 115l25 37l134 -152z" />
<glyph unicode="&#x205f;" horiz-adv-x="225" />
<glyph unicode="&#x20ac;" horiz-adv-x="751" d="M531 360h-266q0 -48 5 -71h237l-15 -47h-214q48 -210 201 -210q91 0 157 79l46 -41q-72 -85 -227 -85q-129 0 -216 70t-115 187h-84l22 47h54v71h-76l22 47h58q25 124 121.5 205t226.5 81q90 0 159 -30t69 -79q0 -20 -14.5 -33.5t-34.5 -13.5q-19 0 -38.5 13t-30.5 38 q-17 38 -40.5 51.5t-79.5 13.5q-85 0 -133 -69.5t-60 -176.5h281z" />
<glyph unicode="&#x2122;" horiz-adv-x="820" d="M53 620l-12 8l13 59q25 -6 31 -6h221q3 0 33 6v-64l-13 -4q-3 38 -32 38h-66q-2 0 -2 -9v-254q0 -19 33 -19v-14h-129v14q29 0 29 19v254q0 11 -2 11h-75q-10 0 -29 -39zM428 375v-14h-103v14q39 0 42 24l27 282h31l121 -243l118 243h33l30 -289q0 -17 44 -17v-14h-133 v14q13 0 17 4t4 13l-20 179l-100 -210h-18l-109 210l-15 -172q2 -24 31 -24z" />
<glyph unicode="&#x25fc;" horiz-adv-x="460" d="M0 460h460v-460h-460v460z" />
</font>
</defs>
</svg>
